SplineFontDB: 3.0
FontName: roundcube_plus_icons
FullName: roundcube_plus_icons
FamilyName: roundcube_plus_icons
Weight: Book
Copyright: Copyright (c) 2016, Roundcube Plus
Version: 001.000
ItalicAngle: 0
UnderlinePosition: 0
UnderlineWidth: 0
Ascent: 1536
Descent: 256
InvalidEm: 0
sfntRevision: 0x00010000
LayerCount: 3
Layer: 0 1 "Back" 1
Layer: 1 1 "Fore" 0
Layer: 2 0 "Back 2" 1
XUID: [1021 60 1363599177 7056583]
FSType: 0
OS2Version: 4
OS2_WeightWidthSlopeOnly: 0
OS2_UseTypoMetrics: 1
CreationTime: 1453799903
ModificationTime: 1583324486
PfmFamily: 17
TTFWeight: 400
TTFWidth: 5
LineGap: 161
VLineGap: 0
Panose: 2 0 5 3 0 0 0 0 0 0
OS2TypoAscent: 1536
OS2TypoAOffset: 0
OS2TypoDescent: -256
OS2TypoDOffset: 0
OS2TypoLinegap: 161
OS2WinAscent: 1648
OS2WinAOffset: 0
OS2WinDescent: 256
OS2WinDOffset: 0
HheadAscent: 1648
HheadAOffset: 0
HheadDescent: -256
HheadDOffset: 0
OS2SubXSize: 1164
OS2SubYSize: 1254
OS2SubXOff: 0
OS2SubYOff: 250
OS2SupXSize: 1164
OS2SupYSize: 1254
OS2SupXOff: 0
OS2SupYOff: 860
OS2StrikeYSize: 89
OS2StrikeYPos: 463
OS2Vendor: 'PfEd'
OS2CodePages: 80000001.00000000
OS2UnicodeRanges: 00000000.10000000.00000000.00000000
MarkAttachClasses: 1
DEI: 91125
ShortTable: cvt  2
  59
  1135
EndShort
ShortTable: maxp 16
  1
  0
  252
  375
  18
  0
  0
  2
  0
  1
  1
  0
  64
  46
  0
  0
EndShort
LangName: 1033 "" "" "Regular"
GaspTable: 1 65535 2 0
Encoding: UnicodeBmp
UnicodeInterp: none
NameList: Adobe Glyph List
DisplaySize: -36
AntiAlias: 1
FitToEm: 1
WinInfo: 60112 34 17
BeginPrivate: 0
EndPrivate
Grid
-1792 768 m 0
 3584 768 l 1024
  Named: "middle"
-1792 2499 m 0
 3584 2499 l 1024
EndSplineSet
TeXData: 1 0 0 346030 173015 115343 0 1048576 115343 783286 444596 497025 792723 393216 433062 380633 303038 157286 324010 404750 52429 2506097 1059062 262144
BeginChars: 65539 1126

StartChar: .notdef
Encoding: 65536 -1 0
Width: 651
Flags: W
LayerCount: 3
Fore
SplineSet
59 0 m 1,0,-1
 59 1194 l 1,1,-1
 533 1194 l 1,2,-1
 533 0 l 1,3,-1
 59 0 l 1,0,-1
118 59 m 1,4,-1
 474 59 l 1,5,-1
 474 1135 l 1,6,-1
 118 1135 l 1,7,-1
 118 59 l 1,4,-1
EndSplineSet
Validated: 1
EndChar

StartChar: uniEA60
Encoding: 60000 60000 3
Width: 1568
Flags: W
LayerCount: 3
Fore
SplineSet
469 622 m 5,0,-1
 1526 622 l 6,1,2
 1544 622 1544 622 1556 634 c 132,-1,3
 1568 646 1568 646 1568 664 c 6,4,-1
 1568 860 l 6,5,6
 1568 878 1568 878 1556 890 c 132,-1,7
 1544 902 1544 902 1526 902 c 6,8,-1
 469 902 l 5,9,-1
 469 1063 l 6,10,11
 469 1098 469 1098 444.5 1122.5 c 132,-1,12
 420 1147 420 1147 385 1147 c 4,13,14
 350 1146 350 1146 326 1122 c 6,15,-1
 24 822 l 6,16,17
 0 798 0 798 0 762.5 c 4,18,19
 0 726 0 726 24 702 c 6,20,-1
 326 402 l 6,21,22
 350 378 350 378 385 377.5 c 132,-1,23
 420 377 420 377 444.5 401.5 c 132,-1,24
 469 426 469 426 469 461 c 6,25,-1
 469 622 l 5,0,-1
EndSplineSet
Validated: 41
EndChar

StartChar: uniEA61
Encoding: 60001 60001 4
Width: 1568
Flags: W
LayerCount: 3
Fore
SplineSet
1099 902 m 5,0,-1
 42 902 l 6,1,2
 24 902 24 902 12 890 c 132,-1,3
 0 878 0 878 0 860 c 6,4,-1
 0 664 l 6,5,6
 0 646 0 646 12 634 c 132,-1,7
 24 622 24 622 42 622 c 6,8,-1
 1099 622 l 5,9,-1
 1099 461 l 6,10,11
 1099 426 1099 426 1123.5 401.5 c 132,-1,12
 1148 377 1148 377 1183 377 c 4,13,14
 1218 378 1218 378 1242 402 c 6,15,-1
 1544 702 l 6,16,17
 1568 726 1568 726 1568 761.5 c 4,18,19
 1568 798 1568 798 1544 822 c 6,20,-1
 1242 1122 l 6,21,22
 1218 1146 1218 1146 1183 1146.5 c 132,-1,23
 1148 1147 1148 1147 1123.5 1122.5 c 132,-1,24
 1099 1098 1099 1098 1099 1063 c 6,25,-1
 1099 902 l 5,0,-1
EndSplineSet
Validated: 41
EndChar

StartChar: uniEA62
Encoding: 60002 60002 5
Width: 896
Flags: W
LayerCount: 3
Fore
SplineSet
308 1067 m 5,0,-1
 308 10 l 6,1,2
 308 -8 308 -8 320 -20 c 132,-1,3
 332 -32 332 -32 350 -32 c 6,4,-1
 546 -32 l 6,5,6
 564 -32 564 -32 576 -20 c 132,-1,7
 588 -8 588 -8 588 10 c 6,8,-1
 588 1067 l 5,9,-1
 749 1067 l 6,10,11
 784 1067 784 1067 808.5 1091.5 c 132,-1,12
 833 1116 833 1116 833 1151 c 4,13,14
 832 1186 832 1186 808 1210 c 6,15,-1
 508 1512 l 6,16,17
 484 1536 484 1536 448.5 1536 c 4,18,19
 412 1536 412 1536 388 1512 c 6,20,-1
 88 1210 l 6,21,22
 64 1186 64 1186 63.5 1151 c 132,-1,23
 63 1116 63 1116 87.5 1091.5 c 132,-1,24
 112 1067 112 1067 147 1067 c 6,25,-1
 308 1067 l 5,0,-1
EndSplineSet
Validated: 41
EndChar

StartChar: uniEA63
Encoding: 60003 60003 6
Width: 896
Flags: W
LayerCount: 3
Fore
SplineSet
588 437 m 5,0,-1
 588 1494 l 6,1,2
 588 1512 588 1512 576 1524 c 132,-1,3
 564 1536 564 1536 546 1536 c 6,4,-1
 350 1536 l 6,5,6
 332 1536 332 1536 320 1524 c 132,-1,7
 308 1512 308 1512 308 1494 c 6,8,-1
 308 437 l 5,9,-1
 147 437 l 6,10,11
 112 437 112 437 87.5 412.5 c 132,-1,12
 63 388 63 388 63 353 c 4,13,14
 64 318 64 318 88 294 c 6,15,-1
 388 -8 l 6,16,17
 412 -32 412 -32 447.5 -32 c 4,18,19
 484 -32 484 -32 508 -8 c 6,20,-1
 808 294 l 6,21,22
 832 318 832 318 832.5 353 c 132,-1,23
 833 388 833 388 808.5 412.5 c 132,-1,24
 784 437 784 437 749 437 c 6,25,-1
 588 437 l 5,0,-1
EndSplineSet
Validated: 41
EndChar

StartChar: uniEA64
Encoding: 60004 60004 7
Width: 1792
Flags: W
LayerCount: 3
Fore
SplineSet
896 -101 m 132,-1,1
 536 -101 536 -101 282 153 c 132,-1,2
 28 407 28 407 28 767 c 132,-1,3
 28 1127 28 1127 282 1381 c 132,-1,4
 536 1635 536 1635 896 1635 c 132,-1,5
 1256 1635 1256 1635 1510 1381 c 132,-1,6
 1764 1127 1764 1127 1764 767 c 132,-1,7
 1764 407 1764 407 1510 153 c 132,-1,0
 1256 -101 1256 -101 896 -101 c 132,-1,1
1302 921 m 6,8,-1
 896 921 l 5,9,-1
 896 1169 l 6,10,11
 896 1197 896 1197 870 1208 c 132,-1,12
 844 1219 844 1219 826 1197 c 6,13,-1
 424 795 l 6,14,15
 396 767 396 767 424 739 c 6,16,-1
 826 337 l 6,17,18
 844 316 844 316 870 326.5 c 132,-1,19
 896 337 896 337 896 365 c 6,20,-1
 896 613 l 5,21,-1
 1302 613 l 6,22,23
 1344 613 1344 613 1344 655 c 6,24,-1
 1344 879 l 6,25,26
 1344 921 1344 921 1302 921 c 6,8,-1
EndSplineSet
EndChar

StartChar: uniEA65
Encoding: 60005 60005 8
Width: 1792
Flags: W
LayerCount: 3
Fore
SplineSet
896 1635 m 132,-1,1
 1256 1635 1256 1635 1510 1381 c 132,-1,2
 1764 1127 1764 1127 1764 767 c 132,-1,3
 1764 407 1764 407 1510 153 c 132,-1,4
 1256 -101 1256 -101 896 -101 c 132,-1,5
 536 -101 536 -101 282 153 c 132,-1,6
 28 407 28 407 28 767 c 132,-1,7
 28 1127 28 1127 282 1381 c 132,-1,0
 536 1635 536 1635 896 1635 c 132,-1,1
490 613 m 6,8,-1
 896 613 l 5,9,-1
 896 365 l 6,10,11
 896 337 896 337 922 326 c 132,-1,12
 948 315 948 315 966 337 c 6,13,-1
 1368 739 l 6,14,15
 1396 767 1396 767 1368 795 c 6,16,-1
 966 1197 l 6,17,18
 948 1218 948 1218 922 1207.5 c 132,-1,19
 896 1197 896 1197 896 1169 c 6,20,-1
 896 921 l 5,21,-1
 490 921 l 6,22,23
 448 921 448 921 448 879 c 6,24,-1
 448 655 l 6,25,26
 448 613 448 613 490 613 c 6,8,-1
EndSplineSet
EndChar

StartChar: uniEA66
Encoding: 60006 60006 9
Width: 1792
Flags: W
LayerCount: 3
Fore
SplineSet
28 767 m 132,-1,1
 28 1127 28 1127 282 1381 c 132,-1,2
 536 1635 536 1635 896 1635 c 132,-1,3
 1256 1635 1256 1635 1510 1381 c 132,-1,4
 1764 1127 1764 1127 1764 767 c 132,-1,5
 1764 407 1764 407 1510 153 c 132,-1,6
 1256 -101 1256 -101 896 -101 c 132,-1,7
 536 -101 536 -101 282 153 c 132,-1,0
 28 407 28 407 28 767 c 132,-1,1
1050 361 m 6,8,-1
 1050 767 l 5,9,-1
 1298 767 l 6,10,11
 1326 767 1326 767 1337 793 c 132,-1,12
 1348 819 1348 819 1326 837 c 6,13,-1
 924 1239 l 6,14,15
 896 1267 896 1267 868 1239 c 6,16,-1
 466 837 l 6,17,18
 445 819 445 819 455.5 793 c 132,-1,19
 466 767 466 767 494 767 c 6,20,-1
 742 767 l 5,21,-1
 742 361 l 6,22,23
 742 319 742 319 784 319 c 6,24,-1
 1008 319 l 6,25,26
 1050 319 1050 319 1050 361 c 6,8,-1
EndSplineSet
EndChar

StartChar: uniEA67
Encoding: 60007 60007 10
Width: 1792
Flags: W
LayerCount: 3
Fore
SplineSet
1764 767 m 132,-1,1
 1764 407 1764 407 1510 153 c 132,-1,2
 1256 -101 1256 -101 896 -101 c 132,-1,3
 536 -101 536 -101 282 153 c 132,-1,4
 28 407 28 407 28 767 c 132,-1,5
 28 1127 28 1127 282 1381 c 132,-1,6
 536 1635 536 1635 896 1635 c 132,-1,7
 1256 1635 1256 1635 1510 1381 c 132,-1,0
 1764 1127 1764 1127 1764 767 c 132,-1,1
742 1173 m 6,8,-1
 742 767 l 5,9,-1
 494 767 l 6,10,11
 466 767 466 767 455 741 c 132,-1,12
 444 715 444 715 466 697 c 6,13,-1
 868 295 l 6,14,15
 896 267 896 267 924 295 c 6,16,-1
 1326 697 l 6,17,18
 1347 715 1347 715 1336.5 741 c 132,-1,19
 1326 767 1326 767 1298 767 c 6,20,-1
 1050 767 l 5,21,-1
 1050 1173 l 6,22,23
 1050 1215 1050 1215 1008 1215 c 6,24,-1
 784 1215 l 6,25,26
 742 1215 742 1215 742 1173 c 6,8,-1
EndSplineSet
EndChar

StartChar: uniEA68
Encoding: 60008 60008 11
Width: 896
Flags: W
LayerCount: 3
Fore
SplineSet
112 822 m 6,0,-1
 588 1298 l 6,1,2
 612 1322 612 1322 647 1322 c 132,-1,3
 682 1322 682 1322 707 1298 c 6,4,-1
 784 1217 l 6,5,6
 808 1193 808 1193 808 1157.5 c 132,-1,7
 808 1122 808 1122 784 1102 c 6,8,-1
 448 762 l 5,9,-1
 784 426 l 6,10,11
 808 402 808 402 808 367 c 132,-1,12
 808 332 808 332 784 307 c 6,13,-1
 707 226 l 6,14,15
 683 202 683 202 647.5 202 c 132,-1,16
 612 202 612 202 588 226 c 6,17,-1
 112 702 l 6,18,19
 88 726 88 726 88 762 c 132,-1,20
 88 798 88 798 112 822 c 6,0,-1
EndSplineSet
Validated: 1
EndChar

StartChar: uniEA69
Encoding: 60009 60009 12
Width: 896
Flags: W
LayerCount: 3
Fore
SplineSet
784 702 m 6,0,-1
 308 226 l 6,1,2
 284 202 284 202 249 202 c 132,-1,3
 214 202 214 202 189 226 c 6,4,-1
 112 307 l 6,5,6
 88 331 88 331 88 366.5 c 132,-1,7
 88 402 88 402 112 426 c 6,8,-1
 448 762 l 5,9,-1
 112 1098 l 6,10,11
 88 1122 88 1122 88 1157 c 132,-1,12
 88 1192 88 1192 112 1217 c 6,13,-1
 189 1298 l 6,14,15
 213 1322 213 1322 248.5 1322 c 132,-1,16
 284 1322 284 1322 308 1298 c 6,17,-1
 784 822 l 6,18,19
 808 798 808 798 808 762 c 132,-1,20
 808 726 808 726 784 702 c 6,0,-1
EndSplineSet
Validated: 1
EndChar

StartChar: uniEA6A
Encoding: 60010 60010 13
Width: 1120
Flags: W
LayerCount: 3
Fore
SplineSet
620 1068 m 6,0,-1
 1096 592 l 6,1,2
 1120 568 1120 568 1120 533 c 132,-1,3
 1120 498 1120 498 1096 473 c 6,4,-1
 1015 396 l 6,5,6
 991 372 991 372 955.5 372 c 132,-1,7
 920 372 920 372 900 396 c 6,8,-1
 560 732 l 5,9,-1
 224 396 l 6,10,11
 200 372 200 372 165 372 c 132,-1,12
 130 372 130 372 105 396 c 6,13,-1
 24 473 l 6,14,15
 0 497 0 497 0 532.5 c 132,-1,16
 0 568 0 568 24 592 c 6,17,-1
 500 1068 l 6,18,19
 524 1092 524 1092 560 1092 c 132,-1,20
 596 1092 596 1092 620 1068 c 6,0,-1
EndSplineSet
Validated: 1
EndChar

StartChar: uniEA6B
Encoding: 60011 60011 14
Width: 1120
Flags: W
LayerCount: 3
Fore
SplineSet
500 396 m 6,0,-1
 24 872 l 6,1,2
 0 896 0 896 0 931 c 132,-1,3
 0 966 0 966 24 991 c 6,4,-1
 105 1068 l 6,5,6
 129 1092 129 1092 164.5 1092 c 132,-1,7
 200 1092 200 1092 224 1068 c 6,8,-1
 560 732 l 5,9,-1
 896 1068 l 6,10,11
 920 1092 920 1092 955 1092 c 132,-1,12
 990 1092 990 1092 1015 1068 c 6,13,-1
 1096 991 l 6,14,15
 1120 967 1120 967 1120 931.5 c 132,-1,16
 1120 896 1120 896 1096 872 c 6,17,-1
 620 396 l 6,18,19
 596 372 596 372 560 372 c 132,-1,20
 524 372 524 372 500 396 c 6,0,-1
EndSplineSet
Validated: 1
EndChar

StartChar: uniEA6C
Encoding: 60012 60012 15
Width: 1792
Flags: W
LayerCount: 3
Fore
SplineSet
896 -103 m 132,-1,1
 536 -103 536 -103 282 151 c 132,-1,2
 28 405 28 405 28 765 c 132,-1,3
 28 1125 28 1125 282 1379 c 132,-1,4
 536 1633 536 1633 896 1633 c 132,-1,5
 1256 1633 1256 1633 1510 1379 c 132,-1,6
 1764 1125 1764 1125 1764 765 c 132,-1,7
 1764 405 1764 405 1510 151 c 132,-1,0
 1256 -103 1256 -103 896 -103 c 132,-1,1
497 705 m 6,8,-1
 973 233 l 6,9,10
 997 205 997 205 1032.5 205 c 132,-1,11
 1068 205 1068 205 1092 233 c 6,12,-1
 1148 289 l 6,13,14
 1176 317 1176 317 1176 350 c 132,-1,15
 1176 383 1176 383 1148 408 c 6,16,-1
 794 765 l 5,17,-1
 1148 1122 l 6,18,19
 1176 1146 1176 1146 1176 1181.5 c 132,-1,20
 1176 1217 1176 1217 1148 1241 c 6,21,-1
 1092 1297 l 6,22,23
 1064 1325 1064 1325 1031 1325 c 132,-1,24
 998 1325 998 1325 973 1297 c 6,25,-1
 497 825 l 6,26,27
 473 801 473 801 473 765 c 132,-1,28
 473 729 473 729 497 705 c 6,8,-1
EndSplineSet
EndChar

StartChar: uniEA6D
Encoding: 60013 60013 16
Width: 1792
Flags: W
LayerCount: 3
Fore
SplineSet
896 1635 m 132,-1,1
 1256 1635 1256 1635 1510 1381 c 132,-1,2
 1764 1127 1764 1127 1764 767 c 132,-1,3
 1764 407 1764 407 1510 153 c 132,-1,4
 1256 -101 1256 -101 896 -101 c 132,-1,5
 536 -101 536 -101 282 153 c 132,-1,6
 28 407 28 407 28 767 c 132,-1,7
 28 1127 28 1127 282 1381 c 132,-1,0
 536 1635 536 1635 896 1635 c 132,-1,1
1295 827 m 6,8,-1
 819 1299 l 6,9,10
 795 1327 795 1327 759.5 1327 c 132,-1,11
 724 1327 724 1327 700 1299 c 6,12,-1
 644 1243 l 6,13,14
 616 1215 616 1215 616 1182 c 132,-1,15
 616 1149 616 1149 644 1124 c 6,16,-1
 998 767 l 5,17,-1
 644 410 l 6,18,19
 616 386 616 386 616 350.5 c 132,-1,20
 616 315 616 315 644 291 c 6,21,-1
 700 235 l 6,22,23
 728 207 728 207 761 207 c 132,-1,24
 794 207 794 207 819 235 c 6,25,-1
 1295 707 l 6,26,27
 1319 731 1319 731 1319 767 c 132,-1,28
 1319 803 1319 803 1295 827 c 6,8,-1
EndSplineSet
EndChar

StartChar: uniEA6E
Encoding: 60014 60014 17
Width: 1792
Flags: W
LayerCount: 3
Fore
SplineSet
28 764 m 132,-1,1
 28 1124 28 1124 282 1378 c 132,-1,2
 536 1632 536 1632 896 1632 c 132,-1,3
 1256 1632 1256 1632 1510 1378 c 132,-1,4
 1764 1124 1764 1124 1764 764 c 132,-1,5
 1764 404 1764 404 1510 150 c 132,-1,6
 1256 -104 1256 -104 896 -104 c 132,-1,7
 536 -104 536 -104 282 150 c 132,-1,0
 28 404 28 404 28 764 c 132,-1,1
836 1163 m 6,8,-1
 364 687 l 6,9,10
 336 663 336 663 336 627.5 c 132,-1,11
 336 592 336 592 364 568 c 6,12,-1
 420 512 l 6,13,14
 448 484 448 484 481 484 c 132,-1,15
 514 484 514 484 539 512 c 6,16,-1
 896 866 l 5,17,-1
 1253 512 l 6,18,19
 1277 484 1277 484 1312.5 484 c 132,-1,20
 1348 484 1348 484 1372 512 c 6,21,-1
 1428 568 l 6,22,23
 1456 596 1456 596 1456 629 c 132,-1,24
 1456 662 1456 662 1428 687 c 6,25,-1
 956 1163 l 6,26,27
 932 1187 932 1187 896 1187 c 132,-1,28
 860 1187 860 1187 836 1163 c 6,8,-1
EndSplineSet
EndChar

StartChar: uniEA6F
Encoding: 60015 60015 18
Width: 1792
Flags: W
LayerCount: 3
Fore
SplineSet
1764 769 m 132,-1,1
 1764 409 1764 409 1510 155 c 132,-1,2
 1256 -99 1256 -99 896 -99 c 132,-1,3
 536 -99 536 -99 282 155 c 132,-1,4
 28 409 28 409 28 769 c 132,-1,5
 28 1129 28 1129 282 1383 c 132,-1,6
 536 1637 536 1637 896 1637 c 132,-1,7
 1256 1637 1256 1637 1510 1383 c 132,-1,0
 1764 1129 1764 1129 1764 769 c 132,-1,1
956 370 m 6,8,-1
 1428 846 l 6,9,10
 1456 870 1456 870 1456 905.5 c 132,-1,11
 1456 941 1456 941 1428 965 c 6,12,-1
 1372 1021 l 6,13,14
 1344 1049 1344 1049 1311 1049 c 132,-1,15
 1278 1049 1278 1049 1253 1021 c 6,16,-1
 896 667 l 5,17,-1
 539 1021 l 6,18,19
 515 1049 515 1049 479.5 1049 c 132,-1,20
 444 1049 444 1049 420 1021 c 6,21,-1
 364 965 l 6,22,23
 336 937 336 937 336 904 c 132,-1,24
 336 871 336 871 364 846 c 6,25,-1
 836 370 l 6,26,27
 860 346 860 346 896 346 c 132,-1,28
 932 346 932 346 956 370 c 6,8,-1
EndSplineSet
EndChar

StartChar: uniEA70
Encoding: 60016 60016 19
Width: 672
Flags: W
LayerCount: 3
Fore
SplineSet
672 1214 m 6,0,-1
 672 310 l 6,1,2
 672 264 672 264 628 247 c 132,-1,3
 584 230 584 230 553 262 c 6,4,-1
 102 713 l 6,5,6
 81 734 81 734 80.5 762 c 132,-1,7
 80 790 80 790 102 811 c 6,8,-1
 553 1262 l 6,9,10
 585 1294 585 1294 628.5 1277 c 132,-1,11
 672 1260 672 1260 672 1214 c 6,0,-1
EndSplineSet
Validated: 33
EndChar

StartChar: uniEA71
Encoding: 60017 60017 20
Width: 672
Flags: W
LayerCount: 3
Fore
SplineSet
0 320 m 6,0,-1
 0 1224 l 6,1,2
 0 1270 0 1270 44 1287 c 132,-1,3
 88 1304 88 1304 119 1272 c 6,4,-1
 570 821 l 6,5,6
 591 800 591 800 591.5 772 c 132,-1,7
 592 744 592 744 570 723 c 6,8,-1
 119 272 l 6,9,10
 87 240 87 240 43.5 257 c 132,-1,11
 0 274 0 274 0 320 c 6,0,-1
EndSplineSet
Validated: 33
EndChar

StartChar: uniEA72
Encoding: 60018 60018 21
Width: 1120
Flags: W
LayerCount: 3
Fore
SplineSet
1012 446 m 6,0,-1
 108 446 l 6,1,2
 62 446 62 446 45 490 c 132,-1,3
 28 534 28 534 60 565 c 6,4,-1
 511 1016 l 6,5,6
 532 1037 532 1037 560 1037.5 c 132,-1,7
 588 1038 588 1038 609 1016 c 6,8,-1
 1060 565 l 6,9,10
 1092 533 1092 533 1075 489.5 c 132,-1,11
 1058 446 1058 446 1012 446 c 6,0,-1
EndSplineSet
Validated: 33
EndChar

StartChar: uniEA73
Encoding: 60019 60019 22
Width: 1120
Flags: W
LayerCount: 3
Fore
SplineSet
108 1016 m 6,0,-1
 1012 1016 l 6,1,2
 1058 1016 1058 1016 1075 972 c 132,-1,3
 1092 928 1092 928 1060 897 c 6,4,-1
 609 446 l 6,5,6
 588 425 588 425 560 424.5 c 132,-1,7
 532 424 532 424 511 446 c 6,8,-1
 60 897 l 6,9,10
 28 929 28 929 45 972.5 c 132,-1,11
 62 1016 62 1016 108 1016 c 6,0,-1
EndSplineSet
Validated: 33
EndChar

StartChar: uniEA74
Encoding: 60020 60020 23
Width: 1568
Flags: W
LayerCount: 3
Fore
SplineSet
224 10 m 6,0,-1
 224 1494 l 6,1,2
 224 1512 224 1512 236 1524 c 132,-1,3
 248 1536 248 1536 266 1536 c 6,4,-1
 434 1536 l 6,5,6
 452 1536 452 1536 464 1524 c 132,-1,7
 476 1512 476 1512 476 1494 c 6,8,-1
 476 878 l 5,9,-1
 1162 1512 l 6,10,11
 1194 1540 1194 1540 1237.5 1536 c 132,-1,12
 1281 1532 1281 1532 1312.5 1501 c 132,-1,13
 1344 1470 1344 1470 1344 1424 c 6,14,-1
 1344 80 l 6,15,16
 1344 34 1344 34 1312.5 3 c 132,-1,17
 1281 -28 1281 -28 1237.5 -32 c 132,-1,18
 1194 -36 1194 -36 1162 -8 c 6,19,-1
 476 622 l 5,20,-1
 476 10 l 6,21,22
 476 -8 476 -8 464 -20 c 132,-1,23
 452 -32 452 -32 434 -32 c 6,24,-1
 266 -32 l 6,25,26
 248 -32 248 -32 236 -20 c 132,-1,27
 224 -8 224 -8 224 10 c 6,0,-1
EndSplineSet
Validated: 33
EndChar

StartChar: uniEA75
Encoding: 60021 60021 24
Width: 1792
Flags: W
LayerCount: 3
Fore
SplineSet
42 674 m 5,0,-1
 714 114 l 6,1,2
 746 86 746 86 789.5 90 c 132,-1,3
 833 94 833 94 864.5 125 c 132,-1,4
 896 156 896 156 896 202 c 6,5,-1
 896 1322 l 6,6,7
 896 1368 896 1368 864.5 1399 c 132,-1,8
 833 1430 833 1430 789.5 1434 c 132,-1,9
 746 1438 746 1438 714 1410 c 6,10,-1
 42 850 l 6,11,12
 0 815 0 815 0 762.5 c 132,-1,13
 0 710 0 710 38 674 c 5,14,-1
 42 674 l 5,0,-1
938 674 m 6,15,-1
 1610 114 l 6,16,17
 1642 86 1642 86 1685.5 90 c 132,-1,18
 1729 94 1729 94 1760.5 125 c 132,-1,19
 1792 156 1792 156 1792 202 c 6,20,-1
 1792 1322 l 6,21,22
 1792 1368 1792 1368 1760.5 1399 c 132,-1,23
 1729 1430 1729 1430 1685.5 1434 c 132,-1,24
 1642 1438 1642 1438 1610 1410 c 6,25,-1
 938 850 l 6,26,27
 896 815 896 815 896 762 c 132,-1,28
 896 709 896 709 938 674 c 6,15,-1
EndSplineSet
Validated: 37
EndChar

StartChar: uniEA76
Encoding: 60022 60022 25
Width: 1792
Flags: W
LayerCount: 3
Fore
SplineSet
1754 850 m 5,0,-1
 1082 1410 l 6,1,2
 1047 1438 1047 1438 1003 1434 c 132,-1,3
 959 1430 959 1430 927.5 1399 c 132,-1,4
 896 1368 896 1368 896 1322 c 6,5,-1
 896 202 l 6,6,7
 896 156 896 156 927.5 125 c 132,-1,8
 959 94 959 94 1002.5 90 c 132,-1,9
 1046 86 1046 86 1078 114 c 6,10,-1
 1754 674 l 6,11,12
 1792 709 1792 709 1792 761.5 c 132,-1,13
 1792 814 1792 814 1750 850 c 5,14,-1
 1754 850 l 5,0,-1
858 850 m 5,15,-1
 186 1410 l 6,16,17
 151 1438 151 1438 107 1434 c 132,-1,18
 63 1430 63 1430 31.5 1399 c 132,-1,19
 0 1368 0 1368 0 1322 c 6,20,-1
 0 202 l 6,21,22
 0 156 0 156 31.5 125 c 132,-1,23
 63 94 63 94 106.5 90 c 132,-1,24
 150 86 150 86 186 114 c 6,25,-1
 858 674 l 6,26,27
 896 709 896 709 896 761.5 c 132,-1,28
 896 814 896 814 854 850 c 5,29,-1
 858 850 l 5,15,-1
EndSplineSet
Validated: 37
EndChar

StartChar: uniEA77
Encoding: 60023 60023 26
Width: 1568
Flags: W
LayerCount: 3
Fore
SplineSet
1344 1494 m 6,0,-1
 1344 10 l 6,1,2
 1344 -8 1344 -8 1332 -20 c 132,-1,3
 1320 -32 1320 -32 1302 -32 c 6,4,-1
 1134 -32 l 6,5,6
 1116 -32 1116 -32 1104 -20 c 132,-1,7
 1092 -8 1092 -8 1092 10 c 6,8,-1
 1092 626 l 5,9,-1
 410 -8 l 6,10,11
 375 -36 375 -36 331 -32 c 132,-1,12
 287 -28 287 -28 255.5 3 c 132,-1,13
 224 34 224 34 224 80 c 6,14,-1
 224 1424 l 6,15,16
 224 1470 224 1470 255.5 1501 c 132,-1,17
 287 1532 287 1532 330.5 1536 c 132,-1,18
 374 1540 374 1540 410 1512 c 6,19,-1
 1092 882 l 5,20,-1
 1092 1494 l 6,21,22
 1092 1512 1092 1512 1104 1524 c 132,-1,23
 1116 1536 1116 1536 1134 1536 c 6,24,-1
 1302 1536 l 6,25,26
 1320 1536 1320 1536 1332 1524 c 132,-1,27
 1344 1512 1344 1512 1344 1494 c 6,0,-1
EndSplineSet
Validated: 33
EndChar

StartChar: uniEA78
Encoding: 60024 60024 27
Width: 1344
Flags: W
LayerCount: 3
Fore
SplineSet
1130 114 m 6,0,-1
 1320 304 l 6,1,2
 1344 328 1344 328 1344 363 c 132,-1,3
 1344 398 1344 398 1320 422 c 6,4,-1
 980 762 l 5,5,-1
 1320 1102 l 6,6,7
 1344 1126 1344 1126 1344 1161 c 132,-1,8
 1344 1196 1344 1196 1320 1220 c 6,9,-1
 1130 1410 l 6,10,11
 1106 1434 1106 1434 1071 1434 c 132,-1,12
 1036 1434 1036 1434 1012 1410 c 6,13,-1
 672 1070 l 5,14,-1
 332 1410 l 6,15,16
 308 1434 308 1434 273 1434 c 132,-1,17
 238 1434 238 1434 214 1410 c 6,18,-1
 24 1220 l 6,19,20
 0 1196 0 1196 0 1161 c 132,-1,21
 0 1126 0 1126 24 1102 c 6,22,-1
 364 762 l 5,23,-1
 24 422 l 6,24,25
 0 398 0 398 0 363 c 132,-1,26
 0 328 0 328 24 304 c 6,27,-1
 214 114 l 6,28,29
 238 90 238 90 273 90 c 132,-1,30
 308 90 308 90 332 114 c 6,31,-1
 672 454 l 5,32,-1
 1012 114 l 6,33,34
 1036 90 1036 90 1071 90 c 132,-1,35
 1106 90 1106 90 1130 114 c 6,0,-1
EndSplineSet
Validated: 9
EndChar

StartChar: uniEA79
Encoding: 60025 60025 28
Width: 1792
Flags: W
LayerCount: 3
Fore
SplineSet
896 1533.20019531 m 260,0,1
 685.400390625 1533.20019531 685.400390625 1533.20019531 505.400390625 1427.90039062 c 132,-1,2
 325.400390625 1322.59960938 325.400390625 1322.59960938 220.099609375 1142.59960938 c 132,-1,3
 114.799804688 962.599609375 114.799804688 962.599609375 114.799804688 752 c 132,-1,4
 114.799804688 541.400390625 114.799804688 541.400390625 220.099609375 361.400390625 c 132,-1,5
 325.400390625 181.400390625 325.400390625 181.400390625 505.400390625 76.099609375 c 132,-1,6
 685.400390625 -29.2001953125 685.400390625 -29.2001953125 896 -29.2001953125 c 132,-1,7
 1106.59960938 -29.2001953125 1106.59960938 -29.2001953125 1286.59960938 76.099609375 c 132,-1,8
 1466.59960938 181.400390625 1466.59960938 181.400390625 1571.90039062 361.400390625 c 132,-1,9
 1677.20019531 541.400390625 1677.20019531 541.400390625 1677.20019531 752 c 132,-1,10
 1677.20019531 962.599609375 1677.20019531 962.599609375 1571.90039062 1142.59960938 c 132,-1,11
 1466.59960938 1322.59960938 1466.59960938 1322.59960938 1286.59960938 1427.90039062 c 132,-1,12
 1106.59960938 1533.20019531 1106.59960938 1533.20019531 896 1533.20019531 c 260,0,1
1280.29980469 546.799804688 m 6,13,14
 1289.29980469 534.200195312 1289.29980469 534.200195312 1289.75 518.900390625 c 132,-1,15
 1290.20019531 503.599609375 1290.20019531 503.599609375 1280.29980469 493.700195312 c 6,16,-1
 1154.29980469 367.700195312 l 6,17,18
 1141.70019531 358.700195312 1141.70019531 358.700195312 1127.75 358.25 c 132,-1,19
 1113.79980469 357.799804688 1113.79980469 357.799804688 1101.20019531 367.700195312 c 6,20,-1
 896 575.599609375 l 5,21,-1
 690.799804688 367.700195312 l 6,22,23
 678.200195312 358.700195312 678.200195312 358.700195312 662.900390625 358.25 c 132,-1,24
 647.599609375 357.799804688 647.599609375 357.799804688 637.700195312 367.700195312 c 6,25,-1
 511.700195312 493.700195312 l 6,26,27
 502.700195312 506.299804688 502.700195312 506.299804688 502.25 520.25 c 132,-1,28
 501.799804688 534.200195312 501.799804688 534.200195312 511.700195312 546.799804688 c 6,29,-1
 719.599609375 752 l 5,30,-1
 511.700195312 957.200195312 l 6,31,32
 502.700195312 969.799804688 502.700195312 969.799804688 502.25 985.099609375 c 132,-1,33
 501.799804688 1000.40039062 501.799804688 1000.40039062 511.700195312 1010.29980469 c 6,34,-1
 637.700195312 1136.29980469 l 6,35,36
 650.299804688 1145.29980469 650.299804688 1145.29980469 664.25 1145.75 c 132,-1,37
 678.200195312 1146.20019531 678.200195312 1146.20019531 690.799804688 1136.29980469 c 6,38,-1
 896 928.400390625 l 5,39,-1
 1101.20019531 1136.29980469 l 6,40,41
 1113.79980469 1145.29980469 1113.79980469 1145.29980469 1129.09960938 1145.75 c 132,-1,42
 1144.40039062 1146.20019531 1144.40039062 1146.20019531 1154.29980469 1136.29980469 c 6,43,-1
 1280.29980469 1010.29980469 l 6,44,45
 1289.29980469 997.700195312 1289.29980469 997.700195312 1289.75 983.75 c 132,-1,46
 1290.20019531 969.799804688 1290.20019531 969.799804688 1280.29980469 957.200195312 c 6,47,-1
 1072.40039062 752 l 5,48,-1
 1280.29980469 546.799804688 l 6,13,14
EndSplineSet
Validated: 9
EndChar

StartChar: uniEA7A
Encoding: 60026 60026 29
Width: 1568
Flags: W
LayerCount: 3
Fore
SplineSet
1568 619 m 6,0,-1
 1568 885 l 6,1,2
 1568 920 1568 920 1543.5 944.5 c 132,-1,3
 1519 969 1519 969 1484 969 c 6,4,-1
 1001 969 l 5,5,-1
 1001 1452 l 6,6,7
 1001 1487 1001 1487 976.5 1511.5 c 132,-1,8
 952 1536 952 1536 917 1536 c 6,9,-1
 651 1536 l 6,10,11
 616 1536 616 1536 591.5 1511.5 c 132,-1,12
 567 1487 567 1487 567 1452 c 6,13,-1
 567 969 l 5,14,-1
 84 969 l 6,15,16
 49 969 49 969 24.5 944.5 c 132,-1,17
 0 920 0 920 0 885 c 6,18,-1
 0 619 l 6,19,20
 0 584 0 584 24.5 559.5 c 132,-1,21
 49 535 49 535 84 535 c 6,22,-1
 567 535 l 5,23,-1
 567 52 l 6,24,25
 567 17 567 17 591.5 -7.5 c 132,-1,26
 616 -32 616 -32 651 -32 c 6,27,-1
 917 -32 l 6,28,29
 952 -32 952 -32 976.5 -7.5 c 132,-1,30
 1001 17 1001 17 1001 52 c 6,31,-1
 1001 535 l 5,32,-1
 1484 535 l 6,33,34
 1519 535 1519 535 1543.5 559.5 c 132,-1,35
 1568 584 1568 584 1568 619 c 6,0,-1
EndSplineSet
Validated: 9
EndChar

StartChar: uniEA7B
Encoding: 60027 60027 30
Width: 1568
Flags: W
LayerCount: 3
Fore
SplineSet
1400 1566 m 6,0,-1
 168 1566 l 6,1,2
 98 1566 98 1566 49 1517 c 132,-1,3
 0 1468 0 1468 0 1398 c 6,4,-1
 0 166 l 6,5,6
 0 96 0 96 49 47 c 132,-1,7
 98 -2 98 -2 168 -2 c 6,8,-1
 1400 -2 l 6,9,10
 1470 -2 1470 -2 1519 47 c 132,-1,11
 1568 96 1568 96 1568 166 c 6,12,-1
 1568 1398 l 6,13,14
 1568 1468 1568 1468 1519 1517 c 132,-1,15
 1470 1566 1470 1566 1400 1566 c 6,0,-1
1288 684 m 6,16,17
 1288 666 1288 666 1276 654 c 132,-1,18
 1264 642 1264 642 1246 642 c 6,19,-1
 924 642 l 5,20,-1
 924 320 l 6,21,22
 924 302 924 302 912 290 c 132,-1,23
 900 278 900 278 882 278 c 6,24,-1
 686 278 l 6,25,26
 668 278 668 278 656 290 c 132,-1,27
 644 302 644 302 644 320 c 6,28,-1
 644 642 l 5,29,-1
 322 642 l 6,30,31
 304 642 304 642 292 654 c 132,-1,32
 280 666 280 666 280 684 c 6,33,-1
 280 880 l 6,34,35
 280 898 280 898 292 910 c 132,-1,36
 304 922 304 922 322 922 c 6,37,-1
 644 922 l 5,38,-1
 644 1244 l 6,39,40
 644 1262 644 1262 656 1274 c 132,-1,41
 668 1286 668 1286 686 1286 c 6,42,-1
 882 1286 l 6,43,44
 900 1286 900 1286 912 1274 c 132,-1,45
 924 1262 924 1262 924 1244 c 6,46,-1
 924 922 l 5,47,-1
 1246 922 l 6,48,49
 1264 922 1264 922 1276 910 c 132,-1,50
 1288 898 1288 898 1288 880 c 6,51,-1
 1288 684 l 6,16,17
EndSplineSet
Validated: 9
EndChar

StartChar: uniEA7C
Encoding: 60028 60028 31
Width: 1792
Flags: W
LayerCount: 3
Fore
SplineSet
896 1533.20019531 m 260,0,1
 685.400390625 1533.20019531 685.400390625 1533.20019531 505.400390625 1427.90039062 c 132,-1,2
 325.400390625 1322.59960938 325.400390625 1322.59960938 220.099609375 1142.59960938 c 132,-1,3
 114.799804688 962.599609375 114.799804688 962.599609375 114.799804688 752 c 132,-1,4
 114.799804688 541.400390625 114.799804688 541.400390625 220.099609375 361.400390625 c 132,-1,5
 325.400390625 181.400390625 325.400390625 181.400390625 505.400390625 76.099609375 c 132,-1,6
 685.400390625 -29.2001953125 685.400390625 -29.2001953125 896 -29.2001953125 c 132,-1,7
 1106.59960938 -29.2001953125 1106.59960938 -29.2001953125 1286.59960938 76.099609375 c 132,-1,8
 1466.59960938 181.400390625 1466.59960938 181.400390625 1571.90039062 361.400390625 c 132,-1,9
 1677.20019531 541.400390625 1677.20019531 541.400390625 1677.20019531 752 c 132,-1,10
 1677.20019531 962.599609375 1677.20019531 962.599609375 1571.90039062 1142.59960938 c 132,-1,11
 1466.59960938 1322.59960938 1466.59960938 1322.59960938 1286.59960938 1427.90039062 c 132,-1,12
 1106.59960938 1533.20019531 1106.59960938 1533.20019531 896 1533.20019531 c 260,0,1
1349.59960938 663.799804688 m 6,13,14
 1349.59960938 647.599609375 1349.59960938 647.599609375 1338.79980469 636.799804688 c 132,-1,15
 1328 626 1328 626 1311.79980469 626 c 6,16,-1
 1022 626 l 5,17,-1
 1022 336.200195312 l 6,18,19
 1022 320 1022 320 1011.20019531 309.200195312 c 132,-1,20
 1000.40039062 298.400390625 1000.40039062 298.400390625 984.200195312 298.400390625 c 6,21,-1
 807.799804688 298.400390625 l 6,22,23
 791.599609375 298.400390625 791.599609375 298.400390625 780.799804688 309.200195312 c 132,-1,24
 770 320 770 320 770 336.200195312 c 6,25,-1
 770 626 l 5,26,-1
 480.200195312 626 l 6,27,28
 464 626 464 626 453.200195312 636.799804688 c 132,-1,29
 442.400390625 647.599609375 442.400390625 647.599609375 442.400390625 663.799804688 c 6,30,-1
 442.400390625 840.200195312 l 6,31,32
 442.400390625 856.400390625 442.400390625 856.400390625 453.200195312 867.200195312 c 132,-1,33
 464 878 464 878 480.200195312 878 c 6,34,-1
 770 878 l 5,35,-1
 770 1167.79980469 l 6,36,37
 770 1184 770 1184 780.799804688 1194.79980469 c 132,-1,38
 791.599609375 1205.59960938 791.599609375 1205.59960938 807.799804688 1205.59960938 c 6,39,-1
 984.200195312 1205.59960938 l 6,40,41
 1000.40039062 1205.59960938 1000.40039062 1205.59960938 1011.20019531 1194.79980469 c 132,-1,42
 1022 1184 1022 1184 1022 1167.79980469 c 6,43,-1
 1022 878 l 5,44,-1
 1311.79980469 878 l 6,45,46
 1328 878 1328 878 1338.79980469 867.200195312 c 132,-1,47
 1349.59960938 856.400390625 1349.59960938 856.400390625 1349.59960938 840.200195312 c 6,48,-1
 1349.59960938 663.799804688 l 6,13,14
EndSplineSet
Validated: 9
EndChar

StartChar: uniEA7D
Encoding: 60029 60029 32
Width: 1568
Flags: W
LayerCount: 3
Fore
SplineSet
1484 565 m 6,0,1
 1519 565 1519 565 1543.5 589.5 c 132,-1,2
 1568 614 1568 614 1568 649 c 6,3,-1
 1568 915 l 6,4,5
 1568 950 1568 950 1543.5 974.5 c 132,-1,6
 1519 999 1519 999 1484 999 c 6,7,-1
 84 999 l 6,8,9
 49 999 49 999 24.5 974.5 c 132,-1,10
 0 950 0 950 0 915 c 6,11,-1
 0 649 l 6,12,13
 0 614 0 614 24.5 589.5 c 132,-1,14
 49 565 49 565 84 565 c 6,15,-1
 1484 565 l 6,0,1
EndSplineSet
Validated: 9
EndChar

StartChar: uniEA7E
Encoding: 60030 60030 33
Width: 1568
Flags: W
LayerCount: 3
Fore
SplineSet
1400 1536 m 6,0,-1
 168 1536 l 6,1,2
 98 1536 98 1536 49 1487 c 132,-1,3
 0 1438 0 1438 0 1368 c 6,4,-1
 0 136 l 6,5,6
 0 66 0 66 49 17 c 132,-1,7
 98 -32 98 -32 168 -32 c 6,8,-1
 1400 -32 l 6,9,10
 1470 -32 1470 -32 1519 17 c 132,-1,11
 1568 66 1568 66 1568 136 c 6,12,-1
 1568 1368 l 6,13,14
 1568 1438 1568 1438 1519 1487 c 132,-1,15
 1470 1536 1470 1536 1400 1536 c 6,0,-1
322 612 m 6,16,17
 304 612 304 612 292 624 c 132,-1,18
 280 636 280 636 280 654 c 6,19,-1
 280 850 l 6,20,21
 280 868 280 868 292 880 c 132,-1,22
 304 892 304 892 322 892 c 6,23,-1
 1246 892 l 6,24,25
 1264 892 1264 892 1276 880 c 132,-1,26
 1288 868 1288 868 1288 850 c 6,27,-1
 1288 654 l 6,28,29
 1288 636 1288 636 1276 624 c 132,-1,30
 1264 612 1264 612 1246 612 c 6,31,-1
 322 612 l 6,16,17
EndSplineSet
Validated: 9
EndChar

StartChar: uniEA7F
Encoding: 60031 60031 34
Width: 1792
Flags: W
LayerCount: 3
Fore
SplineSet
896 1533.20019531 m 260,0,1
 685.400390625 1533.20019531 685.400390625 1533.20019531 505.400390625 1427.90039062 c 132,-1,2
 325.400390625 1322.59960938 325.400390625 1322.59960938 220.099609375 1142.59960938 c 132,-1,3
 114.799804688 962.599609375 114.799804688 962.599609375 114.799804688 752 c 132,-1,4
 114.799804688 541.400390625 114.799804688 541.400390625 220.099609375 361.400390625 c 132,-1,5
 325.400390625 181.400390625 325.400390625 181.400390625 505.400390625 76.099609375 c 132,-1,6
 685.400390625 -29.2001953125 685.400390625 -29.2001953125 896 -29.2001953125 c 132,-1,7
 1106.59960938 -29.2001953125 1106.59960938 -29.2001953125 1286.59960938 76.099609375 c 132,-1,8
 1466.59960938 181.400390625 1466.59960938 181.400390625 1571.90039062 361.400390625 c 132,-1,9
 1677.20019531 541.400390625 1677.20019531 541.400390625 1677.20019531 752 c 132,-1,10
 1677.20019531 962.599609375 1677.20019531 962.599609375 1571.90039062 1142.59960938 c 132,-1,11
 1466.59960938 1322.59960938 1466.59960938 1322.59960938 1286.59960938 1427.90039062 c 132,-1,12
 1106.59960938 1533.20019531 1106.59960938 1533.20019531 896 1533.20019531 c 260,0,1
480.200195312 626 m 6,13,14
 464 626 464 626 453.200195312 636.799804688 c 132,-1,15
 442.400390625 647.599609375 442.400390625 647.599609375 442.400390625 663.799804688 c 6,16,-1
 442.400390625 840.200195312 l 6,17,18
 442.400390625 856.400390625 442.400390625 856.400390625 453.200195312 867.200195312 c 132,-1,19
 464 878 464 878 480.200195312 878 c 6,20,-1
 1311.79980469 878 l 6,21,22
 1328 878 1328 878 1338.79980469 867.200195312 c 132,-1,23
 1349.59960938 856.400390625 1349.59960938 856.400390625 1349.59960938 840.200195312 c 6,24,-1
 1349.59960938 663.799804688 l 6,25,26
 1349.59960938 647.599609375 1349.59960938 647.599609375 1338.79980469 636.799804688 c 132,-1,27
 1328 626 1328 626 1311.79980469 626 c 6,28,-1
 480.200195312 626 l 6,13,14
EndSplineSet
Validated: 9
EndChar

StartChar: uniEA80
Encoding: 60032 60032 35
Width: 1792
Flags: W
LayerCount: 3
Fore
SplineSet
609 122 m 6,0,-1
 24 702 l 6,1,2
 0 726 0 726 0 765 c 132,-1,3
 0 804 0 804 24 828 c 6,4,-1
 154 954 l 6,5,6
 178 982 178 982 215 982 c 132,-1,7
 252 982 252 982 280 954 c 6,8,-1
 672 562 l 5,9,-1
 1512 1402 l 6,10,11
 1540 1430 1540 1430 1577 1430 c 132,-1,12
 1614 1430 1614 1430 1638 1402 c 6,13,-1
 1768 1276 l 6,14,15
 1792 1252 1792 1252 1792 1213.5 c 4,16,17
 1792 1174 1792 1174 1768 1150 c 6,18,-1
 735 122 l 6,19,20
 711 94 711 94 672 94 c 132,-1,21
 633 94 633 94 609 122 c 6,0,-1
EndSplineSet
Validated: 1
EndChar

StartChar: uniEA81
Encoding: 60033 60033 36
Width: 1568
Flags: W
LayerCount: 3
Fore
SplineSet
1400 -32 m 6,0,-1
 168 -32 l 6,1,2
 98 -32 98 -32 49 17 c 132,-1,3
 0 66 0 66 0 136 c 6,4,-1
 0 1368 l 6,5,6
 0 1438 0 1438 49 1487 c 132,-1,7
 98 1536 98 1536 168 1536 c 6,8,-1
 1400 1536 l 6,9,10
 1470 1536 1470 1536 1519 1487 c 132,-1,11
 1568 1438 1568 1438 1568 1368 c 6,12,-1
 1568 136 l 6,13,14
 1568 66 1568 66 1519 17 c 132,-1,15
 1470 -32 1470 -32 1400 -32 c 6,0,-1
682 311 m 6,16,-1
 1326 955 l 6,17,18
 1344 973 1344 973 1344 995.5 c 132,-1,19
 1344 1018 1344 1018 1326 1036 c 6,20,-1
 1250 1112 l 6,21,22
 1232 1130 1232 1130 1209 1130 c 132,-1,23
 1186 1130 1186 1130 1169 1112 c 6,24,-1
 644 588 l 5,25,-1
 399 832 l 6,26,27
 381 850 381 850 358.5 850 c 132,-1,28
 336 850 336 850 318 832 c 6,29,-1
 242 756 l 6,30,31
 224 738 224 738 224 715 c 132,-1,32
 224 692 224 692 242 675 c 6,33,-1
 606 311 l 6,34,35
 620 293 620 293 644 293 c 132,-1,36
 668 293 668 293 682 311 c 6,16,-1
EndSplineSet
Validated: 1
EndChar

StartChar: uniEA82
Encoding: 60034 60034 37
Width: 1120
Flags: W
LayerCount: 3
Fore
SplineSet
144 1010 m 6,0,-1
 976 1010 l 6,1,2
 1011 1010 1011 1010 1035.5 985.5 c 132,-1,3
 1060 961 1060 961 1060 926 c 4,4,5
 1060 890 1060 890 1036 866 c 6,6,-1
 620 450 l 6,7,8
 596 426 596 426 560.5 426 c 4,9,10
 524 426 524 426 500 450 c 6,11,-1
 84 866 l 6,12,13
 60 890 60 890 60 925.5 c 132,-1,14
 60 961 60 961 84.5 985.5 c 132,-1,15
 109 1010 109 1010 144 1010 c 6,0,-1
EndSplineSet
Validated: 1
EndChar

StartChar: uniEA83
Encoding: 60035 60035 38
Width: 1120
Flags: W
LayerCount: 3
Fore
SplineSet
976 514 m 6,0,-1
 144 514 l 6,1,2
 109 514 109 514 84.5 538.5 c 132,-1,3
 60 563 60 563 60 598 c 4,4,5
 60 634 60 634 84 658 c 6,6,-1
 500 1074 l 6,7,8
 524 1098 524 1098 559.5 1098 c 4,9,10
 596 1098 596 1098 620 1074 c 6,11,-1
 1036 658 l 6,12,13
 1060 634 1060 634 1060 598.5 c 132,-1,14
 1060 563 1060 563 1035.5 538.5 c 132,-1,15
 1011 514 1011 514 976 514 c 6,0,-1
EndSplineSet
Validated: 1
EndChar

StartChar: uniEA84
Encoding: 60036 60036 39
Width: 1792
Flags: W
LayerCount: 3
Fore
SplineSet
1677.20019531 762 m 260,0,1
 1677.20019531 551.400390625 1677.20019531 551.400390625 1571.90039062 371.400390625 c 132,-1,2
 1466.59960938 191.400390625 1466.59960938 191.400390625 1286.59960938 86.099609375 c 132,-1,3
 1106.59960938 -19.2001953125 1106.59960938 -19.2001953125 896 -19.2001953125 c 132,-1,4
 685.400390625 -19.2001953125 685.400390625 -19.2001953125 505.400390625 86.099609375 c 132,-1,5
 325.400390625 191.400390625 325.400390625 191.400390625 220.099609375 371.400390625 c 132,-1,6
 114.799804688 551.400390625 114.799804688 551.400390625 114.799804688 762 c 132,-1,7
 114.799804688 972.599609375 114.799804688 972.599609375 220.099609375 1152.59960938 c 132,-1,8
 325.400390625 1332.59960938 325.400390625 1332.59960938 505.400390625 1437.90039062 c 132,-1,9
 685.400390625 1543.20019531 685.400390625 1543.20019531 896 1543.20019531 c 132,-1,10
 1106.59960938 1543.20019531 1106.59960938 1543.20019531 1286.59960938 1437.90039062 c 132,-1,11
 1466.59960938 1332.59960938 1466.59960938 1332.59960938 1571.90039062 1152.59960938 c 132,-1,12
 1677.20019531 972.599609375 1677.20019531 972.599609375 1677.20019531 762 c 260,0,1
896 604.5 m 260,13,14
 836.599609375 604.5 836.599609375 604.5 793.849609375 561.75 c 132,-1,15
 751.099609375 519 751.099609375 519 751.099609375 459.599609375 c 132,-1,16
 751.099609375 400.200195312 751.099609375 400.200195312 793.849609375 357.450195312 c 132,-1,17
 836.599609375 314.700195312 836.599609375 314.700195312 896 314.700195312 c 132,-1,18
 955.400390625 314.700195312 955.400390625 314.700195312 998.150390625 357.450195312 c 132,-1,19
 1040.90039062 400.200195312 1040.90039062 400.200195312 1040.90039062 459.599609375 c 132,-1,20
 1040.90039062 519 1040.90039062 519 998.150390625 561.75 c 132,-1,21
 955.400390625 604.5 955.400390625 604.5 896 604.5 c 260,13,14
757.400390625 1123.79980469 m 6,22,-1
 782.599609375 695.400390625 l 6,23,24
 782.599609375 682.799804688 782.599609375 682.799804688 793.400390625 672 c 132,-1,25
 804.200195312 661.200195312 804.200195312 661.200195312 820.400390625 661.200195312 c 6,26,-1
 971.599609375 661.200195312 l 6,27,28
 987.799804688 661.200195312 987.799804688 661.200195312 998.599609375 672 c 132,-1,29
 1009.40039062 682.799804688 1009.40039062 682.799804688 1009.40039062 695.400390625 c 6,30,-1
 1034.59960938 1123.79980469 l 6,31,32
 1034.59960938 1142.70019531 1034.59960938 1142.70019531 1023.79980469 1153.95019531 c 132,-1,33
 1013 1165.20019531 1013 1165.20019531 996.799804688 1165.20019531 c 6,34,-1
 795.200195312 1165.20019531 l 6,35,36
 779 1165.20019531 779 1165.20019531 768.200195312 1153.95019531 c 132,-1,37
 757.400390625 1142.70019531 757.400390625 1142.70019531 757.400390625 1123.79980469 c 6,22,-1
EndSplineSet
Validated: 1
EndChar

StartChar: uniEA85
Encoding: 60037 60037 40
Width: 1792
Flags: W
LayerCount: 3
Fore
SplineSet
896 1543.20019531 m 260,0,1
 685.400390625 1543.20019531 685.400390625 1543.20019531 505.400390625 1437.90039062 c 132,-1,2
 325.400390625 1332.59960938 325.400390625 1332.59960938 220.099609375 1152.59960938 c 132,-1,3
 114.799804688 972.599609375 114.799804688 972.599609375 114.799804688 762 c 132,-1,4
 114.799804688 551.400390625 114.799804688 551.400390625 220.099609375 371.400390625 c 132,-1,5
 325.400390625 191.400390625 325.400390625 191.400390625 505.400390625 86.099609375 c 132,-1,6
 685.400390625 -19.2001953125 685.400390625 -19.2001953125 896 -19.2001953125 c 132,-1,7
 1106.59960938 -19.2001953125 1106.59960938 -19.2001953125 1286.59960938 86.099609375 c 132,-1,8
 1466.59960938 191.400390625 1466.59960938 191.400390625 1571.90039062 371.400390625 c 132,-1,9
 1677.20019531 551.400390625 1677.20019531 551.400390625 1677.20019531 762 c 132,-1,10
 1677.20019531 972.599609375 1677.20019531 972.599609375 1571.90039062 1152.59960938 c 132,-1,11
 1466.59960938 1332.59960938 1466.59960938 1332.59960938 1286.59960938 1437.90039062 c 132,-1,12
 1106.59960938 1543.20019531 1106.59960938 1543.20019531 896 1543.20019531 c 260,0,1
896 1196.70019531 m 260,13,14
 950 1196.70019531 950 1196.70019531 989.150390625 1157.54980469 c 132,-1,15
 1028.29980469 1118.40039062 1028.29980469 1118.40039062 1028.29980469 1064.40039062 c 132,-1,16
 1028.29980469 1010.40039062 1028.29980469 1010.40039062 989.150390625 971.25 c 132,-1,17
 950 932.099609375 950 932.099609375 896 932.099609375 c 132,-1,18
 842 932.099609375 842 932.099609375 802.849609375 971.25 c 132,-1,19
 763.700195312 1010.40039062 763.700195312 1010.40039062 763.700195312 1064.40039062 c 132,-1,20
 763.700195312 1118.40039062 763.700195312 1118.40039062 802.849609375 1157.54980469 c 132,-1,21
 842 1196.70019531 842 1196.70019531 896 1196.70019531 c 260,13,14
1072.40039062 396.599609375 m 6,22,23
 1072.40039062 380.400390625 1072.40039062 380.400390625 1061.59960938 369.599609375 c 132,-1,24
 1050.79980469 358.799804688 1050.79980469 358.799804688 1034.59960938 358.799804688 c 6,25,-1
 757.400390625 358.799804688 l 6,26,27
 741.200195312 358.799804688 741.200195312 358.799804688 730.400390625 369.599609375 c 132,-1,28
 719.599609375 380.400390625 719.599609375 380.400390625 719.599609375 396.599609375 c 6,29,-1
 719.599609375 472.200195312 l 6,30,31
 719.599609375 488.400390625 719.599609375 488.400390625 730.400390625 499.200195312 c 132,-1,32
 741.200195312 510 741.200195312 510 757.400390625 510 c 6,33,-1
 795.200195312 510 l 5,34,-1
 795.200195312 711.599609375 l 5,35,-1
 757.400390625 711.599609375 l 6,36,37
 741.200195312 711.599609375 741.200195312 711.599609375 730.400390625 722.400390625 c 132,-1,38
 719.599609375 733.200195312 719.599609375 733.200195312 719.599609375 749.400390625 c 6,39,-1
 719.599609375 825 l 6,40,41
 719.599609375 841.200195312 719.599609375 841.200195312 730.400390625 852 c 132,-1,42
 741.200195312 862.799804688 741.200195312 862.799804688 757.400390625 862.799804688 c 6,43,-1
 959 862.799804688 l 6,44,45
 975.200195312 862.799804688 975.200195312 862.799804688 986 852 c 132,-1,46
 996.799804688 841.200195312 996.799804688 841.200195312 996.799804688 825 c 6,47,-1
 996.799804688 510 l 5,48,-1
 1034.59960938 510 l 6,49,50
 1050.79980469 510 1050.79980469 510 1061.59960938 499.200195312 c 132,-1,51
 1072.40039062 488.400390625 1072.40039062 488.400390625 1072.40039062 472.200195312 c 6,52,-1
 1072.40039062 396.599609375 l 6,22,23
EndSplineSet
Validated: 9
EndChar

StartChar: uniEA86
Encoding: 60038 60038 41
Width: 1792
Flags: W
LayerCount: 3
Fore
SplineSet
1677.20019531 762 m 260,0,1
 1677.20019531 551.400390625 1677.20019531 551.400390625 1571.90039062 371.400390625 c 132,-1,2
 1466.59960938 191.400390625 1466.59960938 191.400390625 1286.59960938 86.099609375 c 132,-1,3
 1106.59960938 -19.2001953125 1106.59960938 -19.2001953125 896 -19.2001953125 c 132,-1,4
 685.400390625 -19.2001953125 685.400390625 -19.2001953125 505.400390625 86.099609375 c 132,-1,5
 325.400390625 191.400390625 325.400390625 191.400390625 220.099609375 371.400390625 c 132,-1,6
 114.799804688 551.400390625 114.799804688 551.400390625 114.799804688 762 c 132,-1,7
 114.799804688 972.599609375 114.799804688 972.599609375 220.099609375 1152.59960938 c 132,-1,8
 325.400390625 1332.59960938 325.400390625 1332.59960938 505.400390625 1437.90039062 c 132,-1,9
 685.400390625 1543.20019531 685.400390625 1543.20019531 896 1543.20019531 c 132,-1,10
 1106.59960938 1543.20019531 1106.59960938 1543.20019531 1286.59960938 1437.90039062 c 132,-1,11
 1466.59960938 1332.59960938 1466.59960938 1332.59960938 1571.90039062 1152.59960938 c 132,-1,12
 1677.20019531 972.599609375 1677.20019531 972.599609375 1677.20019531 762 c 260,0,1
917.599609375 1284.90039062 m 4,13,14
 791.599609375 1285.79980469 791.599609375 1285.79980469 700.700195312 1231.79980469 c 4,15,16
 616.099609375 1185 616.099609375 1185 549.5 1083.29980469 c 4,17,18
 540.5 1070.70019531 540.5 1070.70019531 543.650390625 1056.75 c 132,-1,19
 546.799804688 1042.79980469 546.799804688 1042.79980469 559.400390625 1032.90039062 c 6,20,-1
 669.200195312 951 l 6,21,22
 678.200195312 942 678.200195312 942 694.400390625 943.349609375 c 132,-1,23
 710.599609375 944.700195312 710.599609375 944.700195312 719.599609375 957.299804688 c 4,24,25
 770 1016.70019531 770 1016.70019531 798.799804688 1039.20019531 c 4,26,27
 843.799804688 1070.70019531 843.799804688 1070.70019531 899.599609375 1070.70019531 c 4,28,29
 953.599609375 1070.70019531 953.599609375 1070.70019531 998.599609375 1040.54980469 c 132,-1,30
 1043.59960938 1010.40039062 1043.59960938 1010.40039062 1043.59960938 967.200195312 c 4,31,32
 1043.59960938 933 1043.59960938 933 1015.70019531 906.900390625 c 4,33,34
 996.799804688 889.799804688 996.799804688 889.799804688 942.799804688 859.200195312 c 5,35,-1
 937.400390625 856.5 l 5,36,37
 858.200195312 812.400390625 858.200195312 812.400390625 826.700195312 778.200195312 c 4,38,39
 770 718.799804688 770 718.799804688 770 636 c 6,40,-1
 770 623.400390625 l 6,41,42
 770 607.200195312 770 607.200195312 780.799804688 596.400390625 c 132,-1,43
 791.599609375 585.599609375 791.599609375 585.599609375 807.799804688 585.599609375 c 6,44,-1
 984.200195312 585.599609375 l 6,45,46
 1000.40039062 585.599609375 1000.40039062 585.599609375 1011.20019531 596.400390625 c 132,-1,47
 1022 607.200195312 1022 607.200195312 1022 623.400390625 c 6,48,-1
 1022 627 l 6,49,50
 1022 652.200195312 1022 652.200195312 1047.20019531 670.200195312 c 4,51,52
 1063.40039062 682.799804688 1063.40039062 682.799804688 1106.59960938 708 c 4,53,54
 1188.5 758.400390625 1188.5 758.400390625 1223.59960938 796.200195312 c 4,55,56
 1283 862.799804688 1283 862.799804688 1283 963.599609375 c 4,57,58
 1283 1051.79980469 1283 1051.79980469 1229.90039062 1125.59960938 c 132,-1,59
 1176.79980469 1199.40039062 1176.79980469 1199.40039062 1091.29980469 1242.15039062 c 132,-1,60
 1005.79980469 1284.90039062 1005.79980469 1284.90039062 917.599609375 1284.90039062 c 4,13,14
896 503.700195312 m 260,61,62
 836.599609375 503.700195312 836.599609375 503.700195312 793.849609375 460.950195312 c 132,-1,63
 751.099609375 418.200195312 751.099609375 418.200195312 751.099609375 358.799804688 c 132,-1,64
 751.099609375 299.400390625 751.099609375 299.400390625 793.849609375 256.650390625 c 132,-1,65
 836.599609375 213.900390625 836.599609375 213.900390625 896 213.900390625 c 132,-1,66
 955.400390625 213.900390625 955.400390625 213.900390625 998.150390625 256.650390625 c 132,-1,67
 1040.90039062 299.400390625 1040.90039062 299.400390625 1040.90039062 358.799804688 c 132,-1,68
 1040.90039062 418.200195312 1040.90039062 418.200195312 998.150390625 460.950195312 c 132,-1,69
 955.400390625 503.700195312 955.400390625 503.700195312 896 503.700195312 c 260,61,62
EndSplineSet
Validated: 33
EndChar

StartChar: uniEA87
Encoding: 60039 60039 42
Width: 1792
Flags: W
LayerCount: 3
Fore
SplineSet
770 1548.40039062 m 6,0,-1
 1022 1548.40039062 l 6,1,2
 1053.5 1548.40039062 1053.5 1548.40039062 1075.54980469 1526.34960938 c 132,-1,3
 1097.59960938 1504.29980469 1097.59960938 1504.29980469 1097.59960938 1472.79980469 c 6,4,-1
 1097.59960938 943.599609375 l 5,5,-1
 1374.79980469 943.599609375 l 6,6,7
 1416.20019531 943.599609375 1416.20019531 943.599609375 1431.5 904 c 132,-1,8
 1446.79980469 864.400390625 1446.79980469 864.400390625 1418.90039062 836.5 c 6,9,-1
 940.099609375 357.700195312 l 6,10,11
 921.200195312 338.799804688 921.200195312 338.799804688 896 338.799804688 c 132,-1,12
 870.799804688 338.799804688 870.799804688 338.799804688 851.900390625 357.700195312 c 6,13,-1
 373.099609375 836.5 l 6,14,15
 344.299804688 865.299804688 344.299804688 865.299804688 360.049804688 904.450195312 c 132,-1,16
 375.799804688 943.599609375 375.799804688 943.599609375 417.200195312 943.599609375 c 6,17,-1
 694.400390625 943.599609375 l 5,18,-1
 694.400390625 1472.79980469 l 6,19,20
 694.400390625 1504.29980469 694.400390625 1504.29980469 716.450195312 1526.34960938 c 132,-1,21
 738.5 1548.40039062 738.5 1548.40039062 770 1548.40039062 c 6,0,-1
1702.40039062 364 m 6,22,-1
 1702.40039062 11.2001953125 l 6,23,24
 1702.40039062 -20.2998046875 1702.40039062 -20.2998046875 1680.34960938 -42.349609375 c 132,-1,25
 1658.29980469 -64.400390625 1658.29980469 -64.400390625 1626.79980469 -64.400390625 c 6,26,-1
 165.200195312 -64.400390625 l 6,27,28
 133.700195312 -64.400390625 133.700195312 -64.400390625 111.650390625 -42.349609375 c 132,-1,29
 89.599609375 -20.2998046875 89.599609375 -20.2998046875 89.599609375 11.2001953125 c 6,30,-1
 89.599609375 364 l 6,31,32
 89.599609375 395.5 89.599609375 395.5 111.650390625 417.549804688 c 132,-1,33
 133.700195312 439.599609375 133.700195312 439.599609375 165.200195312 439.599609375 c 6,34,-1
 627.799804688 439.599609375 l 5,35,-1
 782.599609375 284.799804688 l 6,36,37
 829.400390625 238 829.400390625 238 896 238 c 132,-1,38
 962.599609375 238 962.599609375 238 1009.40039062 284.799804688 c 6,39,-1
 1164.20019531 439.599609375 l 5,40,-1
 1626.79980469 439.599609375 l 6,41,42
 1658.29980469 439.599609375 1658.29980469 439.599609375 1680.34960938 417.549804688 c 132,-1,43
 1702.40039062 395.5 1702.40039062 395.5 1702.40039062 364 c 6,22,-1
1311.79980469 86.7998046875 m 260,44,45
 1311.79980469 112 1311.79980469 112 1292.90039062 130.900390625 c 132,-1,46
 1274 149.799804688 1274 149.799804688 1248.79980469 149.799804688 c 132,-1,47
 1223.59960938 149.799804688 1223.59960938 149.799804688 1204.70019531 130.900390625 c 132,-1,48
 1185.79980469 112 1185.79980469 112 1185.79980469 86.7998046875 c 132,-1,49
 1185.79980469 61.599609375 1185.79980469 61.599609375 1204.70019531 42.7001953125 c 132,-1,50
 1223.59960938 23.7998046875 1223.59960938 23.7998046875 1248.79980469 23.7998046875 c 132,-1,51
 1274 23.7998046875 1274 23.7998046875 1292.90039062 42.7001953125 c 132,-1,52
 1311.79980469 61.599609375 1311.79980469 61.599609375 1311.79980469 86.7998046875 c 260,44,45
1513.40039062 86.7998046875 m 260,53,54
 1513.40039062 112 1513.40039062 112 1494.5 130.900390625 c 132,-1,55
 1475.59960938 149.799804688 1475.59960938 149.799804688 1450.40039062 149.799804688 c 132,-1,56
 1425.20019531 149.799804688 1425.20019531 149.799804688 1406.29980469 130.900390625 c 132,-1,57
 1387.40039062 112 1387.40039062 112 1387.40039062 86.7998046875 c 132,-1,58
 1387.40039062 61.599609375 1387.40039062 61.599609375 1406.29980469 42.7001953125 c 132,-1,59
 1425.20019531 23.7998046875 1425.20019531 23.7998046875 1450.40039062 23.7998046875 c 132,-1,60
 1475.59960938 23.7998046875 1475.59960938 23.7998046875 1494.5 42.7001953125 c 132,-1,61
 1513.40039062 61.599609375 1513.40039062 61.599609375 1513.40039062 86.7998046875 c 260,53,54
EndSplineSet
Validated: 33
EndChar

StartChar: uniEA88
Encoding: 60040 60040 43
Width: 1792
Flags: W
LayerCount: 3
Fore
SplineSet
1022 338.799804688 m 6,0,-1
 770 338.799804688 l 6,1,2
 738.5 338.799804688 738.5 338.799804688 716.450195312 360.849609375 c 132,-1,3
 694.400390625 382.900390625 694.400390625 382.900390625 694.400390625 414.400390625 c 6,4,-1
 694.400390625 943.599609375 l 5,5,-1
 417.200195312 943.599609375 l 6,6,7
 375.799804688 943.599609375 375.799804688 943.599609375 360.5 983.200195312 c 132,-1,8
 345.200195312 1022.79980469 345.200195312 1022.79980469 373.099609375 1050.70019531 c 6,9,-1
 851.900390625 1529.5 l 6,10,11
 870.799804688 1548.40039062 870.799804688 1548.40039062 896 1548.40039062 c 132,-1,12
 921.200195312 1548.40039062 921.200195312 1548.40039062 940.099609375 1529.5 c 6,13,-1
 1418.90039062 1050.70019531 l 6,14,15
 1447.70019531 1021.90039062 1447.70019531 1021.90039062 1431.95019531 982.75 c 132,-1,16
 1416.20019531 943.599609375 1416.20019531 943.599609375 1374.79980469 943.599609375 c 6,17,-1
 1097.59960938 943.599609375 l 5,18,-1
 1097.59960938 414.400390625 l 6,19,20
 1097.59960938 382.900390625 1097.59960938 382.900390625 1075.54980469 360.849609375 c 132,-1,21
 1053.5 338.799804688 1053.5 338.799804688 1022 338.799804688 c 6,0,-1
1702.40039062 364 m 6,22,-1
 1702.40039062 11.2001953125 l 6,23,24
 1702.40039062 -20.2998046875 1702.40039062 -20.2998046875 1680.34960938 -42.349609375 c 132,-1,25
 1658.29980469 -64.400390625 1658.29980469 -64.400390625 1626.79980469 -64.400390625 c 6,26,-1
 165.200195312 -64.400390625 l 6,27,28
 133.700195312 -64.400390625 133.700195312 -64.400390625 111.650390625 -42.349609375 c 132,-1,29
 89.599609375 -20.2998046875 89.599609375 -20.2998046875 89.599609375 11.2001953125 c 6,30,-1
 89.599609375 364 l 6,31,32
 89.599609375 395.5 89.599609375 395.5 111.650390625 417.549804688 c 132,-1,33
 133.700195312 439.599609375 133.700195312 439.599609375 165.200195312 439.599609375 c 6,34,-1
 593.599609375 439.599609375 l 5,35,-1
 593.599609375 414.400390625 l 6,36,37
 593.599609375 342.400390625 593.599609375 342.400390625 645.799804688 290.200195312 c 132,-1,38
 698 238 698 238 770 238 c 6,39,-1
 1022 238 l 6,40,41
 1094 238 1094 238 1146.20019531 290.200195312 c 132,-1,42
 1198.40039062 342.400390625 1198.40039062 342.400390625 1198.40039062 414.400390625 c 6,43,-1
 1198.40039062 439.599609375 l 5,44,-1
 1626.79980469 439.599609375 l 6,45,46
 1658.29980469 439.599609375 1658.29980469 439.599609375 1680.34960938 417.549804688 c 132,-1,47
 1702.40039062 395.5 1702.40039062 395.5 1702.40039062 364 c 6,22,-1
1311.79980469 86.7998046875 m 260,48,49
 1311.79980469 112 1311.79980469 112 1292.90039062 130.900390625 c 132,-1,50
 1274 149.799804688 1274 149.799804688 1248.79980469 149.799804688 c 132,-1,51
 1223.59960938 149.799804688 1223.59960938 149.799804688 1204.70019531 130.900390625 c 132,-1,52
 1185.79980469 112 1185.79980469 112 1185.79980469 86.7998046875 c 132,-1,53
 1185.79980469 61.599609375 1185.79980469 61.599609375 1204.70019531 42.7001953125 c 132,-1,54
 1223.59960938 23.7998046875 1223.59960938 23.7998046875 1248.79980469 23.7998046875 c 132,-1,55
 1274 23.7998046875 1274 23.7998046875 1292.90039062 42.7001953125 c 132,-1,56
 1311.79980469 61.599609375 1311.79980469 61.599609375 1311.79980469 86.7998046875 c 260,48,49
1513.40039062 86.7998046875 m 260,57,58
 1513.40039062 112 1513.40039062 112 1494.5 130.900390625 c 132,-1,59
 1475.59960938 149.799804688 1475.59960938 149.799804688 1450.40039062 149.799804688 c 132,-1,60
 1425.20019531 149.799804688 1425.20019531 149.799804688 1406.29980469 130.900390625 c 132,-1,61
 1387.40039062 112 1387.40039062 112 1387.40039062 86.7998046875 c 132,-1,62
 1387.40039062 61.599609375 1387.40039062 61.599609375 1406.29980469 42.7001953125 c 132,-1,63
 1425.20019531 23.7998046875 1425.20019531 23.7998046875 1450.40039062 23.7998046875 c 132,-1,64
 1475.59960938 23.7998046875 1475.59960938 23.7998046875 1494.5 42.7001953125 c 132,-1,65
 1513.40039062 61.599609375 1513.40039062 61.599609375 1513.40039062 86.7998046875 c 260,57,58
EndSplineSet
Validated: 33
EndChar

StartChar: uniEA89
Encoding: 60041 60041 44
Width: 1792
Flags: W
LayerCount: 3
Fore
SplineSet
1036 1536 m 6,0,-1
 1708 1536 l 6,1,2
 1743 1536 1743 1536 1767.5 1511.5 c 132,-1,3
 1792 1487 1792 1487 1792 1452 c 6,4,-1
 1792 892 l 6,5,6
 1792 857 1792 857 1767.5 832.5 c 132,-1,7
 1743 808 1743 808 1708 808 c 6,8,-1
 1036 808 l 6,9,10
 1001 808 1001 808 976.5 832.5 c 132,-1,11
 952 857 952 857 952 892 c 6,12,-1
 952 1452 l 6,13,14
 952 1487 952 1487 976.5 1511.5 c 132,-1,15
 1001 1536 1001 1536 1036 1536 c 6,0,-1
756 1536 m 6,16,-1
 84 1536 l 6,17,18
 49 1536 49 1536 24.5 1511.5 c 132,-1,19
 0 1487 0 1487 0 1452 c 6,20,-1
 0 892 l 6,21,22
 0 857 0 857 24.5 832.5 c 132,-1,23
 49 808 49 808 84 808 c 6,24,-1
 756 808 l 6,25,26
 791 808 791 808 815.5 832.5 c 132,-1,27
 840 857 840 857 840 892 c 6,28,-1
 840 1452 l 6,29,30
 840 1487 840 1487 815.5 1511.5 c 132,-1,31
 791 1536 791 1536 756 1536 c 6,16,-1
0 612 m 6,32,-1
 0 52 l 6,33,34
 0 17 0 17 24.5 -7.5 c 132,-1,35
 49 -32 49 -32 84 -32 c 6,36,-1
 756 -32 l 6,37,38
 791 -32 791 -32 815.5 -7.5 c 132,-1,39
 840 17 840 17 840 52 c 6,40,-1
 840 612 l 6,41,42
 840 647 840 647 815.5 671.5 c 132,-1,43
 791 696 791 696 756 696 c 6,44,-1
 84 696 l 6,45,46
 49 696 49 696 24.5 671.5 c 132,-1,47
 0 647 0 647 0 612 c 6,32,-1
1036 -32 m 6,48,-1
 1708 -32 l 6,49,50
 1743 -32 1743 -32 1767.5 -7.5 c 132,-1,51
 1792 17 1792 17 1792 52 c 6,52,-1
 1792 612 l 6,53,54
 1792 647 1792 647 1767.5 671.5 c 132,-1,55
 1743 696 1743 696 1708 696 c 6,56,-1
 1036 696 l 6,57,58
 1001 696 1001 696 976.5 671.5 c 132,-1,59
 952 647 952 647 952 612 c 6,60,-1
 952 52 l 6,61,62
 952 17 952 17 976.5 -7.5 c 132,-1,63
 1001 -32 1001 -32 1036 -32 c 6,48,-1
EndSplineSet
EndChar

StartChar: uniEA8A
Encoding: 60042 60042 45
Width: 1792
Flags: W
LayerCount: 3
Fore
SplineSet
522 1462 m 6,0,-1
 522 1182 l 6,1,2
 522 1147 522 1147 497 1122.5 c 132,-1,3
 472 1098 472 1098 438 1098 c 6,4,-1
 84 1098 l 6,5,6
 49 1098 49 1098 24.5 1122.5 c 132,-1,7
 0 1147 0 1147 0 1182 c 6,8,-1
 0 1462 l 6,9,10
 0 1497 0 1497 24.5 1521.5 c 132,-1,11
 49 1546 49 1546 84 1546 c 6,12,-1
 438 1546 l 6,13,14
 473 1546 473 1546 497.5 1521.5 c 132,-1,15
 522 1497 522 1497 522 1462 c 6,0,-1
1158 622 m 6,16,-1
 1158 902 l 6,17,18
 1158 937 1158 937 1134 961.5 c 132,-1,19
 1110 986 1110 986 1074 986 c 6,20,-1
 718 986 l 6,21,22
 683 986 683 986 658.5 961.5 c 132,-1,23
 634 937 634 937 634 902 c 6,24,-1
 634 622 l 6,25,26
 634 587 634 587 658 562.5 c 132,-1,27
 682 538 682 538 718 538 c 6,28,-1
 1074 538 l 6,29,30
 1109 538 1109 538 1133.5 562.5 c 132,-1,31
 1158 587 1158 587 1158 622 c 6,16,-1
1270 1462 m 6,32,-1
 1270 1182 l 6,33,34
 1270 1147 1270 1147 1295 1122.5 c 132,-1,35
 1320 1098 1320 1098 1354 1098 c 6,36,-1
 1708 1098 l 6,37,38
 1743 1098 1743 1098 1767.5 1122.5 c 132,-1,39
 1792 1147 1792 1147 1792 1182 c 6,40,-1
 1792 1462 l 6,41,42
 1792 1497 1792 1497 1767.5 1521.5 c 132,-1,43
 1743 1546 1743 1546 1708 1546 c 6,44,-1
 1354 1546 l 6,45,46
 1319 1546 1319 1546 1294.5 1521.5 c 132,-1,47
 1270 1497 1270 1497 1270 1462 c 6,32,-1
1158 1182 m 6,48,-1
 1158 1462 l 6,49,50
 1158 1497 1158 1497 1134 1521.5 c 132,-1,51
 1110 1546 1110 1546 1074 1546 c 6,52,-1
 718 1546 l 6,53,54
 683 1546 683 1546 658.5 1521.5 c 132,-1,55
 634 1497 634 1497 634 1462 c 6,56,-1
 634 1182 l 6,57,58
 634 1147 634 1147 658 1122.5 c 132,-1,59
 682 1098 682 1098 718 1098 c 6,60,-1
 1074 1098 l 6,61,62
 1109 1098 1109 1098 1133.5 1122.5 c 132,-1,63
 1158 1147 1158 1147 1158 1182 c 6,48,-1
438 986 m 6,64,-1
 84 986 l 6,65,66
 49 986 49 986 24.5 961.5 c 132,-1,67
 0 937 0 937 0 902 c 6,68,-1
 0 622 l 6,69,70
 0 587 0 587 24.5 562.5 c 132,-1,71
 49 538 49 538 84 538 c 6,72,-1
 438 538 l 6,73,74
 473 538 473 538 497.5 562.5 c 132,-1,75
 522 587 522 587 522 622 c 6,76,-1
 522 902 l 6,77,78
 522 937 522 937 497.5 961.5 c 132,-1,79
 473 986 473 986 438 986 c 6,64,-1
0 342 m 6,80,-1
 0 62 l 6,81,82
 0 27 0 27 24.5 2.5 c 132,-1,83
 49 -22 49 -22 84 -22 c 6,84,-1
 438 -22 l 6,85,86
 473 -22 473 -22 497.5 2.5 c 132,-1,87
 522 27 522 27 522 62 c 6,88,-1
 522 342 l 6,89,90
 522 377 522 377 497 401.5 c 132,-1,91
 472 426 472 426 438 426 c 6,92,-1
 84 426 l 6,93,94
 49 426 49 426 24.5 401.5 c 132,-1,95
 0 377 0 377 0 342 c 6,80,-1
1354 538 m 6,96,-1
 1708 538 l 6,97,98
 1743 538 1743 538 1767.5 562.5 c 132,-1,99
 1792 587 1792 587 1792 622 c 6,100,-1
 1792 902 l 6,101,102
 1792 937 1792 937 1767.5 961.5 c 132,-1,103
 1743 986 1743 986 1708 986 c 6,104,-1
 1354 986 l 6,105,106
 1319 986 1319 986 1294.5 961.5 c 132,-1,107
 1270 937 1270 937 1270 902 c 6,108,-1
 1270 622 l 6,109,110
 1270 587 1270 587 1294.5 562.5 c 132,-1,111
 1319 538 1319 538 1354 538 c 6,96,-1
1354 -22 m 6,112,-1
 1708 -22 l 6,113,114
 1743 -22 1743 -22 1767.5 2.5 c 132,-1,115
 1792 27 1792 27 1792 62 c 6,116,-1
 1792 342 l 6,117,118
 1792 377 1792 377 1767.5 401.5 c 132,-1,119
 1743 426 1743 426 1708 426 c 6,120,-1
 1354 426 l 6,121,122
 1319 426 1319 426 1294.5 401.5 c 132,-1,123
 1270 377 1270 377 1270 342 c 6,124,-1
 1270 62 l 6,125,126
 1270 27 1270 27 1294.5 2.5 c 132,-1,127
 1319 -22 1319 -22 1354 -22 c 6,112,-1
634 342 m 6,128,-1
 634 62 l 6,129,130
 634 27 634 27 658 2.5 c 132,-1,131
 682 -22 682 -22 718 -22 c 6,132,-1
 1074 -22 l 6,133,134
 1109 -22 1109 -22 1133.5 2.5 c 132,-1,135
 1158 27 1158 27 1158 62 c 6,136,-1
 1158 342 l 6,137,138
 1158 377 1158 377 1134 401.5 c 132,-1,139
 1110 426 1110 426 1074 426 c 6,140,-1
 718 426 l 6,141,142
 683 426 683 426 658.5 401.5 c 132,-1,143
 634 377 634 377 634 342 c 6,128,-1
EndSplineSet
Validated: 9
EndChar

StartChar: uniEA8B
Encoding: 60043 60043 46
Width: 1792
Flags: W
LayerCount: 3
Fore
SplineSet
522 902 m 6,0,-1
 522 622 l 6,1,2
 522 587 522 587 497 562.5 c 132,-1,3
 472 538 472 538 438 538 c 6,4,-1
 84 538 l 6,5,6
 49 538 49 538 24.5 562.5 c 132,-1,7
 0 587 0 587 0 622 c 6,8,-1
 0 902 l 6,9,10
 0 937 0 937 24.5 961.5 c 132,-1,11
 49 986 49 986 84 986 c 6,12,-1
 438 986 l 6,13,14
 473 986 473 986 497.5 961.5 c 132,-1,15
 522 937 522 937 522 902 c 6,0,-1
0 342 m 6,16,-1
 0 62 l 6,17,18
 0 27 0 27 24.5 2.5 c 132,-1,19
 49 -22 49 -22 84 -22 c 6,20,-1
 438 -22 l 6,21,22
 473 -22 473 -22 497.5 2.5 c 132,-1,23
 522 27 522 27 522 62 c 6,24,-1
 522 342 l 6,25,26
 522 377 522 377 497 401.5 c 132,-1,27
 472 426 472 426 438 426 c 6,28,-1
 84 426 l 6,29,30
 49 426 49 426 24.5 401.5 c 132,-1,31
 0 377 0 377 0 342 c 6,16,-1
438 1546 m 6,32,-1
 84 1546 l 6,33,34
 49 1546 49 1546 24.5 1521.5 c 132,-1,35
 0 1497 0 1497 0 1462 c 6,36,-1
 0 1182 l 6,37,38
 0 1147 0 1147 24.5 1122.5 c 132,-1,39
 49 1098 49 1098 84 1098 c 6,40,-1
 438 1098 l 6,41,42
 473 1098 473 1098 497.5 1122.5 c 132,-1,43
 522 1147 522 1147 522 1182 c 6,44,-1
 522 1462 l 6,45,46
 522 1497 522 1497 497.5 1521.5 c 132,-1,47
 473 1546 473 1546 438 1546 c 6,32,-1
718 -22 m 6,48,-1
 1708 -22 l 6,49,50
 1743 -22 1743 -22 1767.5 2.5 c 132,-1,51
 1792 27 1792 27 1792 62 c 6,52,-1
 1792 342 l 6,53,54
 1792 377 1792 377 1767.5 401.5 c 132,-1,55
 1743 426 1743 426 1708 426 c 6,56,-1
 718 426 l 6,57,58
 683 426 683 426 658.5 401.5 c 132,-1,59
 634 377 634 377 634 342 c 6,60,-1
 634 62 l 6,61,62
 634 27 634 27 658.5 2.5 c 132,-1,63
 683 -22 683 -22 718 -22 c 6,48,-1
634 1462 m 6,64,-1
 634 1182 l 6,65,66
 634 1147 634 1147 658 1122.5 c 132,-1,67
 682 1098 682 1098 718 1098 c 6,68,-1
 1708 1098 l 6,69,70
 1743 1098 1743 1098 1767.5 1122.5 c 132,-1,71
 1792 1147 1792 1147 1792 1182 c 6,72,-1
 1792 1462 l 6,73,74
 1792 1497 1792 1497 1767.5 1521.5 c 132,-1,75
 1743 1546 1743 1546 1708 1546 c 6,76,-1
 718 1546 l 6,77,78
 683 1546 683 1546 658.5 1521.5 c 132,-1,79
 634 1497 634 1497 634 1462 c 6,64,-1
718 538 m 6,80,-1
 1708 538 l 6,81,82
 1743 538 1743 538 1767.5 562.5 c 132,-1,83
 1792 587 1792 587 1792 622 c 6,84,-1
 1792 902 l 6,85,86
 1792 937 1792 937 1767.5 961.5 c 132,-1,87
 1743 986 1743 986 1708 986 c 6,88,-1
 718 986 l 6,89,90
 683 986 683 986 658.5 961.5 c 132,-1,91
 634 937 634 937 634 902 c 6,92,-1
 634 622 l 6,93,94
 634 587 634 587 658.5 562.5 c 132,-1,95
 683 538 683 538 718 538 c 6,80,-1
EndSplineSet
Validated: 9
EndChar

StartChar: uniEA8C
Encoding: 60044 60044 47
Width: 1792
Flags: W
LayerCount: 3
Fore
SplineSet
1757 980 m 4,0,1
 1767 990 1767 990 1779.5 983 c 132,-1,2
 1792 976 1792 976 1792 962 c 6,3,-1
 1792 248 l 6,4,5
 1792 178 1792 178 1743 129 c 132,-1,6
 1694 80 1694 80 1624 80 c 6,7,-1
 168 80 l 6,8,9
 98 80 98 80 49 129 c 132,-1,10
 0 178 0 178 0 248 c 6,11,-1
 0 962 l 6,12,13
 0 976 0 976 12 981 c 132,-1,14
 24 986 24 986 35 980 c 4,15,16
 151 892 151 892 574 584 c 5,17,-1
 609 552 l 5,18,19
 693 490 693 490 742 462 c 4,20,21
 826 416 826 416 896 416 c 132,-1,22
 966 416 966 416 1050 465 c 4,23,24
 1102 493 1102 493 1183 556 c 6,25,-1
 1218 584 l 5,26,27
 1631 882 1631 882 1757 980 c 4,0,1
896 528 m 260,28,29
 942 528 942 528 1008 570 c 4,30,31
 1046 591 1046 591 1116 647 c 5,32,-1
 1152 672 l 5,33,34
 1593 990 1593 990 1743 1109 c 6,35,-1
 1760 1123 l 6,36,37
 1792 1148 1792 1148 1792 1190 c 6,38,-1
 1792 1256 l 6,39,40
 1792 1326 1792 1326 1743 1375 c 132,-1,41
 1694 1424 1694 1424 1624 1424 c 6,42,-1
 168 1424 l 6,43,44
 98 1424 98 1424 49 1375 c 132,-1,45
 0 1326 0 1326 0 1256 c 6,46,-1
 0 1190 l 6,47,48
 0 1148 0 1148 32 1123 c 6,49,-1
 56 1106 l 5,50,51
 210 988 210 988 640 672 c 5,52,-1
 676 647 l 5,53,54
 746 591 746 591 784 570 c 4,55,56
 850 528 850 528 896 528 c 260,28,29
EndSplineSet
Validated: 9
EndChar

StartChar: uniEA8D
Encoding: 60045 60045 48
Width: 1792
Flags: W
LayerCount: 3
Fore
SplineSet
896 1538.40039062 m 260,0,1
 1031 1538.40039062 1031 1538.40039062 1148 1470.90039062 c 132,-1,2
 1265 1403.40039062 1265 1403.40039062 1332.5 1286.40039062 c 132,-1,3
 1400 1169.40039062 1400 1169.40039062 1400 1034.40039062 c 132,-1,4
 1400 899.400390625 1400 899.400390625 1332.5 782.400390625 c 132,-1,5
 1265 665.400390625 1265 665.400390625 1148 597.900390625 c 132,-1,6
 1031 530.400390625 1031 530.400390625 896 530.400390625 c 132,-1,7
 761 530.400390625 761 530.400390625 644 597.900390625 c 132,-1,8
 527 665.400390625 527 665.400390625 459.5 782.400390625 c 132,-1,9
 392 899.400390625 392 899.400390625 392 1034.40039062 c 132,-1,10
 392 1169.40039062 392 1169.40039062 459.5 1286.40039062 c 132,-1,11
 527 1403.40039062 527 1403.40039062 644 1470.90039062 c 132,-1,12
 761 1538.40039062 761 1538.40039062 896 1538.40039062 c 260,0,1
1472 486.299804688 m 6,13,-1
 1248.79980469 543 l 5,14,15
 1081.40039062 423.299804688 1081.40039062 423.299804688 877.099609375 429.599609375 c 4,16,17
 691.700195312 435.900390625 691.700195312 435.900390625 543.200195312 543 c 5,18,-1
 320 486.299804688 l 6,19,20
 219.200195312 461.099609375 219.200195312 461.099609375 154.400390625 379.200195312 c 4,21,22
 89.599609375 298.200195312 89.599609375 298.200195312 89.599609375 193.799804688 c 6,23,-1
 89.599609375 76.7998046875 l 6,24,25
 89.599609375 13.7998046875 89.599609375 13.7998046875 133.700195312 -30.2998046875 c 132,-1,26
 177.799804688 -74.400390625 177.799804688 -74.400390625 240.799804688 -74.400390625 c 6,27,-1
 1551.20019531 -74.400390625 l 6,28,29
 1614.20019531 -74.400390625 1614.20019531 -74.400390625 1658.29980469 -30.2998046875 c 132,-1,30
 1702.40039062 13.7998046875 1702.40039062 13.7998046875 1702.40039062 76.7998046875 c 6,31,-1
 1702.40039062 193.799804688 l 6,32,33
 1702.40039062 298.200195312 1702.40039062 298.200195312 1637.59960938 379.650390625 c 132,-1,34
 1572.79980469 461.099609375 1572.79980469 461.099609375 1472 486.299804688 c 6,13,-1
EndSplineSet
Validated: 41
EndChar

StartChar: uniEA8E
Encoding: 60046 60046 49
Width: 1792
Flags: W
LayerCount: 3
Fore
SplineSet
1601.59960938 918.400390625 m 6,0,1
 1623.20019531 918.400390625 1623.20019531 918.400390625 1634 899.5 c 132,-1,2
 1644.79980469 880.599609375 1644.79980469 880.599609375 1632.20019531 861.700195312 c 4,3,4
 1572.79980469 760.900390625 1572.79980469 760.900390625 1470.20019531 701.049804688 c 132,-1,5
 1367.59960938 641.200195312 1367.59960938 641.200195312 1245.20019531 641.200195312 c 132,-1,6
 1122.79980469 641.200195312 1122.79980469 641.200195312 1018.40039062 701.049804688 c 132,-1,7
 914 760.900390625 914 760.900390625 852.799804688 864.849609375 c 132,-1,8
 791.599609375 968.799804688 791.599609375 968.799804688 791.599609375 1091.65039062 c 132,-1,9
 791.599609375 1214.5 791.599609375 1214.5 852.799804688 1320.25 c 132,-1,10
 914 1426 914 1426 1018.40039062 1487.20019531 c 132,-1,11
 1122.79980469 1548.40039062 1122.79980469 1548.40039062 1245.20019531 1548.40039062 c 132,-1,12
 1367.59960938 1548.40039062 1367.59960938 1548.40039062 1470.20019531 1488.54980469 c 132,-1,13
 1572.79980469 1428.70019531 1572.79980469 1428.70019531 1632.20019531 1327.90039062 c 4,14,15
 1644.79980469 1309 1644.79980469 1309 1634 1290.09960938 c 132,-1,16
 1623.20019531 1271.20019531 1623.20019531 1271.20019531 1601.59960938 1271.20019531 c 6,17,-1
 1270.40039062 1271.20019531 l 5,18,-1
 1144.40039062 1094.79980469 l 5,19,-1
 1270.40039062 918.400390625 l 5,20,-1
 1601.59960938 918.400390625 l 6,0,1
1062.5 625 m 5,21,-1
 429.799804688 -5 l 6,22,23
 373.099609375 -64.400390625 373.099609375 -64.400390625 288.049804688 -64.400390625 c 132,-1,24
 203 -64.400390625 203 -64.400390625 144.5 -5.900390625 c 132,-1,25
 86 52.599609375 86 52.599609375 86 137.200195312 c 132,-1,26
 86 221.799804688 86 221.799804688 145.400390625 279.400390625 c 6,27,-1
 775.400390625 912.099609375 l 5,28,29
 813.200195312 814.900390625 813.200195312 814.900390625 889.25 738.849609375 c 132,-1,30
 965.299804688 662.799804688 965.299804688 662.799804688 1062.5 625 c 5,21,-1
413.599609375 187.599609375 m 260,31,32
 413.599609375 219.099609375 413.599609375 219.099609375 391.549804688 241.150390625 c 132,-1,33
 369.5 263.200195312 369.5 263.200195312 338 263.200195312 c 132,-1,34
 306.5 263.200195312 306.5 263.200195312 284.450195312 241.150390625 c 132,-1,35
 262.400390625 219.099609375 262.400390625 219.099609375 262.400390625 187.599609375 c 132,-1,36
 262.400390625 156.099609375 262.400390625 156.099609375 284.450195312 134.049804688 c 132,-1,37
 306.5 112 306.5 112 338 112 c 132,-1,38
 369.5 112 369.5 112 391.549804688 134.049804688 c 132,-1,39
 413.599609375 156.099609375 413.599609375 156.099609375 413.599609375 187.599609375 c 260,31,32
EndSplineSet
Validated: 1
EndChar

StartChar: uniEA8F
Encoding: 60047 60047 50
Width: 1792
Flags: W
LayerCount: 3
Fore
SplineSet
1491.79980469 652.200195312 m 5,0,-1
 1623.20019531 573 l 6,1,2
 1635.79980469 566.700195312 1635.79980469 566.700195312 1640.75 554.099609375 c 4,3,4
 1646.59960938 541.5 1646.59960938 541.5 1643 528.900390625 c 4,5,6
 1589 361.5 1589 361.5 1469.29980469 232.799804688 c 4,7,8
 1460.29980469 223.799804688 1460.29980469 223.799804688 1447.25 220.200195312 c 132,-1,9
 1434.20019531 216.599609375 1434.20019531 216.599609375 1421.59960938 223.799804688 c 6,10,-1
 1290.20019531 302.099609375 l 5,11,12
 1205.59960938 229.200195312 1205.59960938 229.200195312 1097.59960938 191.400390625 c 5,13,-1
 1097.59960938 37.5 l 6,14,15
 1097.59960938 24.900390625 1097.59960938 24.900390625 1089.5 13.650390625 c 132,-1,16
 1081.40039062 2.400390625 1081.40039062 2.400390625 1068.79980469 -0.2998046875 c 4,17,18
 896 -38.099609375 896 -38.099609375 723.200195312 -0.2998046875 c 4,19,20
 710.599609375 3.2998046875 710.599609375 3.2998046875 702.5 14.099609375 c 132,-1,21
 694.400390625 24.900390625 694.400390625 24.900390625 694.400390625 37.5 c 6,22,-1
 694.400390625 191.400390625 l 5,23,24
 586.400390625 229.200195312 586.400390625 229.200195312 501.799804688 302.099609375 c 5,25,-1
 370.400390625 223.799804688 l 6,26,27
 357.799804688 217.5 357.799804688 217.5 345.200195312 220.650390625 c 132,-1,28
 332.599609375 223.799804688 332.599609375 223.799804688 322.700195312 232.799804688 c 4,29,30
 203 362.400390625 203 362.400390625 149 528.900390625 c 4,31,32
 145.400390625 541.5 145.400390625 541.5 150.799804688 554.099609375 c 132,-1,33
 156.200195312 566.700195312 156.200195312 566.700195312 168.799804688 573 c 6,34,-1
 300.200195312 652.200195312 l 5,35,36
 280.400390625 762 280.400390625 762 300.200195312 871.799804688 c 5,37,-1
 168.799804688 951 l 6,38,39
 156.200195312 957.299804688 156.200195312 957.299804688 151.25 969.900390625 c 4,40,41
 145.400390625 982.5 145.400390625 982.5 149 995.099609375 c 4,42,43
 203 1162.5 203 1162.5 322.700195312 1291.20019531 c 4,44,45
 331.700195312 1300.20019531 331.700195312 1300.20019531 344.75 1303.79980469 c 132,-1,46
 357.799804688 1307.40039062 357.799804688 1307.40039062 370.400390625 1300.20019531 c 6,47,-1
 501.799804688 1221.90039062 l 5,48,49
 586.400390625 1294.79980469 586.400390625 1294.79980469 694.400390625 1332.59960938 c 5,50,-1
 694.400390625 1486.5 l 6,51,52
 694.400390625 1499.09960938 694.400390625 1499.09960938 702.5 1510.34960938 c 132,-1,53
 710.599609375 1521.59960938 710.599609375 1521.59960938 723.200195312 1524.29980469 c 4,54,55
 896 1562.09960938 896 1562.09960938 1068.79980469 1524.29980469 c 4,56,57
 1081.40039062 1520.70019531 1081.40039062 1520.70019531 1089.5 1509.90039062 c 132,-1,58
 1097.59960938 1499.09960938 1097.59960938 1499.09960938 1097.59960938 1486.5 c 6,59,-1
 1097.59960938 1332.59960938 l 5,60,61
 1205.59960938 1294.79980469 1205.59960938 1294.79980469 1290.20019531 1221.90039062 c 5,62,-1
 1421.59960938 1300.20019531 l 6,63,64
 1434.20019531 1306.5 1434.20019531 1306.5 1446.79980469 1303.34960938 c 132,-1,65
 1459.40039062 1300.20019531 1459.40039062 1300.20019531 1469.29980469 1291.20019531 c 4,66,67
 1589 1161.59960938 1589 1161.59960938 1643 995.099609375 c 4,68,69
 1646.59960938 982.5 1646.59960938 982.5 1641.20019531 969.900390625 c 132,-1,70
 1635.79980469 957.299804688 1635.79980469 957.299804688 1623.20019531 951 c 6,71,-1
 1491.79980469 871.799804688 l 5,72,73
 1511.59960938 762 1511.59960938 762 1491.79980469 652.200195312 c 5,0,-1
1148 762 m 260,74,75
 1148 866.400390625 1148 866.400390625 1074.20019531 940.200195312 c 132,-1,76
 1000.40039062 1014 1000.40039062 1014 896 1014 c 132,-1,77
 791.599609375 1014 791.599609375 1014 717.799804688 940.200195312 c 132,-1,78
 644 866.400390625 644 866.400390625 644 762 c 132,-1,79
 644 657.599609375 644 657.599609375 717.799804688 583.799804688 c 132,-1,80
 791.599609375 510 791.599609375 510 896 510 c 132,-1,81
 1000.40039062 510 1000.40039062 510 1074.20019531 583.799804688 c 132,-1,82
 1148 657.599609375 1148 657.599609375 1148 762 c 260,74,75
EndSplineSet
Validated: 33
EndChar

StartChar: uniEA90
Encoding: 60048 60048 51
Width: 1792
Flags: W
LayerCount: 3
Fore
SplineSet
1349.59960938 1389.70019531 m 4,0,1
 1500.79980469 1282.59960938 1500.79980469 1282.59960938 1589 1114.29980469 c 132,-1,2
 1677.20019531 946 1677.20019531 946 1677.20019531 753.400390625 c 4,3,4
 1677.20019531 542.799804688 1677.20019531 542.799804688 1571.90039062 362.799804688 c 132,-1,5
 1466.59960938 182.799804688 1466.59960938 182.799804688 1288.40039062 77.5 c 132,-1,6
 1110.20019531 -27.7998046875 1110.20019531 -27.7998046875 897.799804688 -27.7998046875 c 132,-1,7
 685.400390625 -27.7998046875 685.400390625 -27.7998046875 505.400390625 77.5 c 132,-1,8
 325.400390625 182.799804688 325.400390625 182.799804688 220.099609375 361 c 132,-1,9
 114.799804688 539.200195312 114.799804688 539.200195312 114.799804688 753.400390625 c 4,10,11
 114.799804688 946 114.799804688 946 203 1112.5 c 132,-1,12
 291.200195312 1279 291.200195312 1279 442.400390625 1389.70019531 c 4,13,14
 471.200195312 1408.59960938 471.200195312 1408.59960938 504.049804688 1400.5 c 4,15,16
 536 1392.40039062 536 1392.40039062 552.200195312 1364.5 c 6,17,-1
 602.599609375 1276.29980469 l 6,18,19
 615.200195312 1251.09960938 615.200195312 1251.09960938 608.900390625 1222.75 c 132,-1,20
 602.599609375 1194.40039062 602.599609375 1194.40039062 581 1178.20019531 c 4,21,22
 480.200195312 1102.59960938 480.200195312 1102.59960938 423.5 992.799804688 c 132,-1,23
 366.799804688 883 366.799804688 883 366.799804688 753.400390625 c 4,24,25
 366.799804688 611.200195312 366.799804688 611.200195312 437.900390625 488.799804688 c 132,-1,26
 509 366.400390625 509 366.400390625 630.049804688 295.299804688 c 132,-1,27
 751.099609375 224.200195312 751.099609375 224.200195312 894.650390625 224.200195312 c 132,-1,28
 1038.20019531 224.200195312 1038.20019531 224.200195312 1160.59960938 295.299804688 c 132,-1,29
 1283 366.400390625 1283 366.400390625 1354.09960938 488.799804688 c 132,-1,30
 1425.20019531 611.200195312 1425.20019531 611.200195312 1425.20019531 757 c 4,31,32
 1425.20019531 879.400390625 1425.20019531 879.400390625 1368.5 991 c 132,-1,33
 1311.79980469 1102.59960938 1311.79980469 1102.59960938 1211 1178.20019531 c 4,34,35
 1189.40039062 1194.40039062 1189.40039062 1194.40039062 1183.09960938 1222.75 c 132,-1,36
 1176.79980469 1251.09960938 1176.79980469 1251.09960938 1189.40039062 1276.29980469 c 6,37,-1
 1239.79980469 1364.5 l 6,38,39
 1256 1393.29980469 1256 1393.29980469 1288.40039062 1400.95019531 c 132,-1,40
 1320.79980469 1408.59960938 1320.79980469 1408.59960938 1349.59960938 1389.70019531 c 4,0,1
1022 728.200195312 m 6,41,-1
 1022 1484.20019531 l 6,42,43
 1022 1515.70019531 1022 1515.70019531 999.950195312 1537.75 c 132,-1,44
 977.900390625 1559.79980469 977.900390625 1559.79980469 946.400390625 1559.79980469 c 6,45,-1
 845.599609375 1559.79980469 l 6,46,47
 814.099609375 1559.79980469 814.099609375 1559.79980469 792.049804688 1537.75 c 132,-1,48
 770 1515.70019531 770 1515.70019531 770 1484.20019531 c 6,49,-1
 770 728.200195312 l 6,50,51
 770 696.700195312 770 696.700195312 792.049804688 674.650390625 c 132,-1,52
 814.099609375 652.599609375 814.099609375 652.599609375 845.599609375 652.599609375 c 6,53,-1
 946.400390625 652.599609375 l 6,54,55
 977.900390625 652.599609375 977.900390625 652.599609375 999.950195312 674.650390625 c 132,-1,56
 1022 696.700195312 1022 696.700195312 1022 728.200195312 c 6,41,-1
EndSplineSet
Validated: 41
EndChar

StartChar: uniEA91
Encoding: 60049 60049 52
Width: 1792
Flags: W
LayerCount: 3
Fore
SplineSet
1479.20019531 1507 m 6,0,-1
 1491.79980469 1249.59960938 l 5,1,2
 1382 1379.20019531 1382 1379.20019531 1227.20019531 1451.20019531 c 132,-1,3
 1072.40039062 1523.20019531 1072.40039062 1523.20019531 896 1523.20019531 c 4,4,5
 707 1523.20019531 707 1523.20019531 545 1439.5 c 132,-1,6
 383 1355.79980469 383 1355.79980469 272.299804688 1210.90039062 c 132,-1,7
 161.599609375 1066 161.599609375 1066 127.400390625 886.900390625 c 4,8,9
 123.799804688 870.700195312 123.799804688 870.700195312 135.049804688 856.75 c 132,-1,10
 146.299804688 842.799804688 146.299804688 842.799804688 165.200195312 842.799804688 c 6,11,-1
 320 842.799804688 l 6,12,13
 332.599609375 842.799804688 332.599609375 842.799804688 343.400390625 850.900390625 c 132,-1,14
 354.200195312 859 354.200195312 859 357.799804688 871.599609375 c 4,15,16
 401.900390625 1057 401.900390625 1057 551.299804688 1176.70019531 c 132,-1,17
 700.700195312 1296.40039062 700.700195312 1296.40039062 896 1296.40039062 c 4,18,19
 1038.20019531 1296.40039062 1038.20019531 1296.40039062 1159.25 1230.25 c 132,-1,20
 1280.29980469 1164.09960938 1280.29980469 1164.09960938 1355.90039062 1050.70019531 c 5,21,-1
 1038.20019531 1066 l 6,22,23
 1019.29980469 1066 1019.29980469 1066 1008.04980469 1055.20019531 c 132,-1,24
 996.799804688 1044.40039062 996.799804688 1044.40039062 996.799804688 1028.20019531 c 6,25,-1
 996.799804688 880.599609375 l 6,26,27
 996.799804688 864.400390625 996.799804688 864.400390625 1007.59960938 853.599609375 c 132,-1,28
 1018.40039062 842.799804688 1018.40039062 842.799804688 1034.59960938 842.799804688 c 6,29,-1
 1664.59960938 842.799804688 l 6,30,31
 1680.79980469 842.799804688 1680.79980469 842.799804688 1691.59960938 853.599609375 c 132,-1,32
 1702.40039062 864.400390625 1702.40039062 864.400390625 1702.40039062 880.599609375 c 6,33,-1
 1702.40039062 1510.59960938 l 6,34,35
 1702.40039062 1526.79980469 1702.40039062 1526.79980469 1691.59960938 1537.59960938 c 132,-1,36
 1680.79980469 1548.40039062 1680.79980469 1548.40039062 1664.59960938 1548.40039062 c 6,37,-1
 1517 1548.40039062 l 6,38,39
 1500.79980469 1548.40039062 1500.79980469 1548.40039062 1490 1537.15039062 c 132,-1,40
 1479.20019531 1525.90039062 1479.20019531 1525.90039062 1479.20019531 1507 c 6,0,-1
896 187.599609375 m 4,41,42
 753.799804688 187.599609375 753.799804688 187.599609375 632.75 253.75 c 132,-1,43
 511.700195312 319.900390625 511.700195312 319.900390625 436.099609375 433.299804688 c 5,44,-1
 757.400390625 418 l 6,45,46
 773.599609375 418 773.599609375 418 784.400390625 428.799804688 c 132,-1,47
 795.200195312 439.599609375 795.200195312 439.599609375 795.200195312 455.799804688 c 6,48,-1
 795.200195312 603.400390625 l 6,49,50
 795.200195312 619.599609375 795.200195312 619.599609375 784.400390625 630.400390625 c 132,-1,51
 773.599609375 641.200195312 773.599609375 641.200195312 757.400390625 641.200195312 c 6,52,-1
 127.400390625 641.200195312 l 6,53,54
 111.200195312 641.200195312 111.200195312 641.200195312 100.400390625 630.400390625 c 132,-1,55
 89.599609375 619.599609375 89.599609375 619.599609375 89.599609375 603.400390625 c 6,56,-1
 89.599609375 -26.599609375 l 6,57,58
 89.599609375 -42.7998046875 89.599609375 -42.7998046875 100.400390625 -53.599609375 c 132,-1,59
 111.200195312 -64.400390625 111.200195312 -64.400390625 127.400390625 -64.400390625 c 6,60,-1
 275 -64.400390625 l 6,61,62
 293.900390625 -64.400390625 293.900390625 -64.400390625 305.150390625 -53.599609375 c 132,-1,63
 316.400390625 -42.7998046875 316.400390625 -42.7998046875 312.799804688 -23 c 6,64,-1
 300.200195312 234.400390625 l 5,65,66
 410 104.799804688 410 104.799804688 564.799804688 32.7998046875 c 132,-1,67
 719.599609375 -39.2001953125 719.599609375 -39.2001953125 896 -39.2001953125 c 4,68,69
 1085 -39.2001953125 1085 -39.2001953125 1247 44.5 c 132,-1,70
 1409 128.200195312 1409 128.200195312 1519.70019531 273.099609375 c 132,-1,71
 1630.40039062 418 1630.40039062 418 1664.59960938 597.099609375 c 4,72,73
 1668.20019531 613.299804688 1668.20019531 613.299804688 1656.95019531 627.25 c 132,-1,74
 1645.70019531 641.200195312 1645.70019531 641.200195312 1626.79980469 641.200195312 c 6,75,-1
 1472 641.200195312 l 6,76,77
 1459.40039062 641.200195312 1459.40039062 641.200195312 1448.59960938 633.099609375 c 132,-1,78
 1437.79980469 625 1437.79980469 625 1434.20019531 612.400390625 c 4,79,80
 1390.09960938 427 1390.09960938 427 1240.70019531 307.299804688 c 132,-1,81
 1091.29980469 187.599609375 1091.29980469 187.599609375 896 187.599609375 c 4,41,42
EndSplineSet
Validated: 9
EndChar

StartChar: uniEA92
Encoding: 60050 60050 53
Width: 1792
Flags: W
LayerCount: 3
Fore
SplineSet
28 983 m 6,0,-1
 644 1515 l 6,1,2
 672 1539 672 1539 705 1535.5 c 132,-1,3
 738 1532 738 1532 761 1509.5 c 132,-1,4
 784 1487 784 1487 784 1452 c 6,5,-1
 784 1172 l 5,6,7
 1264 1164 1264 1164 1498 1042 c 4,8,9
 1792 888 1792 888 1792 521 c 4,10,11
 1792 367 1792 367 1704 213 c 4,12,13
 1624 69 1624 69 1502 -18 c 4,14,15
 1478 -36 1478 -36 1451 -30.5 c 132,-1,16
 1424 -25 1424 -25 1408.5 -4 c 4,17,18
 1394 17 1394 17 1404 45 c 4,19,20
 1481 293 1481 293 1435.5 435 c 4,21,22
 1390 576 1390 576 1222 636 c 4,23,24
 1072 692 1072 692 784 696 c 5,25,-1
 784 388 l 6,26,27
 784 353 784 353 761 330.5 c 132,-1,28
 738 308 738 308 705 304 c 132,-1,29
 672 300 672 300 644 325 c 6,30,-1
 28 857 l 6,31,32
 0 881 0 881 0 920 c 132,-1,33
 0 959 0 959 28 983 c 6,0,-1
EndSplineSet
Validated: 33
EndChar

StartChar: uniEA93
Encoding: 60051 60051 54
Width: 2016
Flags: W
LayerCount: 3
Fore
SplineSet
476 983 m 6,0,-1
 1092 1515 l 6,1,2
 1120 1539 1120 1539 1153 1535.5 c 132,-1,3
 1186 1532 1186 1532 1209 1509.5 c 132,-1,4
 1232 1487 1232 1487 1232 1452 c 6,5,-1
 1232 1162 l 5,6,7
 1606 1134 1606 1134 1792 1000 c 4,8,9
 2016 842 2016 842 2016 521 c 4,10,11
 2016 367 2016 367 1928 213 c 4,12,13
 1848 69 1848 69 1726 -18 c 4,14,15
 1702 -36 1702 -36 1675 -30.5 c 132,-1,16
 1648 -25 1648 -25 1632.5 -4 c 4,17,18
 1618 17 1618 17 1628 45 c 4,19,20
 1726 360 1726 360 1620 510 c 4,21,22
 1526 646 1526 646 1232 682 c 5,23,-1
 1232 388 l 6,24,25
 1232 353 1232 353 1209 330.5 c 132,-1,26
 1186 308 1186 308 1153 304 c 132,-1,27
 1120 300 1120 300 1092 325 c 6,28,-1
 476 857 l 6,29,30
 448 881 448 881 448 920 c 132,-1,31
 448 959 448 959 476 983 c 6,0,-1
28 857 m 6,32,-1
 644 325 l 6,33,34
 672 301 672 301 705 304.5 c 132,-1,35
 738 308 738 308 761 330.5 c 132,-1,36
 784 353 784 353 784 388 c 6,37,-1
 784 444 l 5,38,-1
 402 773 l 6,39,40
 336 829 336 829 336 920 c 132,-1,41
 336 1011 336 1011 402 1067 c 6,42,-1
 784 1396 l 5,43,-1
 784 1452 l 6,44,45
 784 1487 784 1487 761 1509.5 c 132,-1,46
 738 1532 738 1532 705 1536 c 132,-1,47
 672 1540 672 1540 644 1515 c 6,48,-1
 28 983 l 6,49,50
 0 959 0 959 0 920 c 132,-1,51
 0 881 0 881 28 857 c 6,32,-1
EndSplineSet
Validated: 41
EndChar

StartChar: uniEA94
Encoding: 60052 60052 55
Width: 1792
Flags: W
LayerCount: 3
Fore
SplineSet
1764 973 m 6,0,-1
 1148 1505 l 6,1,2
 1120 1529 1120 1529 1087 1525.5 c 132,-1,3
 1054 1522 1054 1522 1031 1499.5 c 132,-1,4
 1008 1477 1008 1477 1008 1442 c 6,5,-1
 1008 1162 l 5,6,7
 528 1154 528 1154 294 1032 c 4,8,9
 0 878 0 878 0 511 c 4,10,11
 0 357 0 357 88 203 c 4,12,13
 168 59 168 59 290 -28 c 4,14,15
 314 -46 314 -46 341 -40.5 c 132,-1,16
 368 -35 368 -35 383.5 -14 c 4,17,18
 398 7 398 7 388 35 c 4,19,20
 311 283 311 283 356.5 425 c 4,21,22
 402 566 402 566 570 626 c 4,23,24
 720 682 720 682 1008 686 c 5,25,-1
 1008 378 l 6,26,27
 1008 343 1008 343 1031 320.5 c 132,-1,28
 1054 298 1054 298 1087 294 c 132,-1,29
 1120 290 1120 290 1148 315 c 6,30,-1
 1764 847 l 6,31,32
 1792 871 1792 871 1792 910 c 132,-1,33
 1792 949 1792 949 1764 973 c 6,0,-1
EndSplineSet
Validated: 41
EndChar

StartChar: uniEA95
Encoding: 60053 60053 56
Width: 1792
Flags: W
LayerCount: 3
Fore
SplineSet
1708 1200 m 6,0,-1
 84 1200 l 6,1,2
 49 1200 49 1200 24.5 1224.5 c 132,-1,3
 0 1249 0 1249 0 1284 c 6,4,-1
 0 1452 l 6,5,6
 0 1487 0 1487 24.5 1511.5 c 132,-1,7
 49 1536 49 1536 84 1536 c 6,8,-1
 1708 1536 l 6,9,10
 1743 1536 1743 1536 1767.5 1511.5 c 132,-1,11
 1792 1487 1792 1487 1792 1452 c 6,12,-1
 1792 1284 l 6,13,14
 1792 1249 1792 1249 1767.5 1224.5 c 132,-1,15
 1743 1200 1743 1200 1708 1200 c 6,0,-1
1680 52 m 6,16,-1
 1680 1004 l 6,17,18
 1680 1039 1680 1039 1655.5 1063.5 c 132,-1,19
 1631 1088 1631 1088 1596 1088 c 6,20,-1
 196 1088 l 6,21,22
 161 1088 161 1088 136.5 1063.5 c 132,-1,23
 112 1039 112 1039 112 1004 c 6,24,-1
 112 52 l 6,25,26
 112 17 112 17 136.5 -7.5 c 132,-1,27
 161 -32 161 -32 196 -32 c 6,28,-1
 1596 -32 l 6,29,30
 1631 -32 1631 -32 1655.5 -7.5 c 132,-1,31
 1680 17 1680 17 1680 52 c 6,16,-1
1078 752 m 6,32,-1
 714 752 l 6,33,34
 696 752 696 752 684 764 c 132,-1,35
 672 776 672 776 672 794 c 6,36,-1
 672 822 l 6,37,38
 672 840 672 840 684 852 c 132,-1,39
 696 864 696 864 714 864 c 6,40,-1
 1078 864 l 6,41,42
 1096 864 1096 864 1108 852 c 132,-1,43
 1120 840 1120 840 1120 822 c 6,44,-1
 1120 794 l 6,45,46
 1120 776 1120 776 1108 764 c 132,-1,47
 1096 752 1096 752 1078 752 c 6,32,-1
EndSplineSet
Validated: 9
EndChar

StartChar: uniEA96
Encoding: 60054 60054 57
Width: 1568
Flags: W
LayerCount: 3
Fore
SplineSet
78.400390625 1313.79980469 m 6,0,-1
 78.400390625 1402 l 6,1,2
 78.400390625 1433.5 78.400390625 1433.5 100.450195312 1455.54980469 c 132,-1,3
 122.5 1477.59960938 122.5 1477.59960938 154 1477.59960938 c 6,4,-1
 506.799804688 1477.59960938 l 5,5,-1
 535.599609375 1537 l 6,6,7
 544.599609375 1555.90039062 544.599609375 1555.90039062 563.5 1567.15039062 c 132,-1,8
 582.400390625 1578.40039062 582.400390625 1578.40039062 604 1578.40039062 c 6,9,-1
 964 1578.40039062 l 6,10,11
 985.599609375 1578.40039062 985.599609375 1578.40039062 1004.5 1567.59960938 c 132,-1,12
 1023.40039062 1556.79980469 1023.40039062 1556.79980469 1032.40039062 1537 c 6,13,-1
 1061.20019531 1477.59960938 l 5,14,-1
 1414 1477.59960938 l 6,15,16
 1445.5 1477.59960938 1445.5 1477.59960938 1467.54980469 1455.54980469 c 132,-1,17
 1489.59960938 1433.5 1489.59960938 1433.5 1489.59960938 1402 c 6,18,-1
 1489.59960938 1313.79980469 l 6,19,20
 1489.59960938 1297.59960938 1489.59960938 1297.59960938 1478.79980469 1286.79980469 c 132,-1,21
 1468 1276 1468 1276 1451.79980469 1276 c 6,22,-1
 116.200195312 1276 l 6,23,24
 100 1276 100 1276 89.2001953125 1286.79980469 c 132,-1,25
 78.400390625 1297.59960938 78.400390625 1297.59960938 78.400390625 1313.79980469 c 6,0,-1
1388.79980469 1137.40039062 m 6,26,-1
 1388.79980469 116.799804688 l 6,27,28
 1388.79980469 53.7998046875 1388.79980469 53.7998046875 1344.70019531 9.7001953125 c 132,-1,29
 1300.59960938 -34.400390625 1300.59960938 -34.400390625 1237.59960938 -34.400390625 c 6,30,-1
 330.400390625 -34.400390625 l 6,31,32
 267.400390625 -34.400390625 267.400390625 -34.400390625 223.299804688 9.7001953125 c 132,-1,33
 179.200195312 53.7998046875 179.200195312 53.7998046875 179.200195312 116.799804688 c 6,34,-1
 179.200195312 1137.40039062 l 6,35,36
 179.200195312 1153.59960938 179.200195312 1153.59960938 190 1164.40039062 c 132,-1,37
 200.799804688 1175.20019531 200.799804688 1175.20019531 217 1175.20019531 c 6,38,-1
 1351 1175.20019531 l 6,39,40
 1367.20019531 1175.20019531 1367.20019531 1175.20019531 1378 1164.40039062 c 132,-1,41
 1388.79980469 1153.59960938 1388.79980469 1153.59960938 1388.79980469 1137.40039062 c 6,26,-1
532 923.200195312 m 6,42,43
 532 944.799804688 532 944.799804688 517.599609375 959.200195312 c 132,-1,44
 503.200195312 973.599609375 503.200195312 973.599609375 481.599609375 973.599609375 c 132,-1,45
 460 973.599609375 460 973.599609375 445.599609375 959.200195312 c 132,-1,46
 431.200195312 944.799804688 431.200195312 944.799804688 431.200195312 923.200195312 c 6,47,-1
 431.200195312 217.599609375 l 6,48,49
 431.200195312 196 431.200195312 196 445.599609375 181.599609375 c 132,-1,50
 460 167.200195312 460 167.200195312 481.599609375 167.200195312 c 132,-1,51
 503.200195312 167.200195312 503.200195312 167.200195312 517.599609375 181.599609375 c 132,-1,52
 532 196 532 196 532 217.599609375 c 6,53,-1
 532 923.200195312 l 6,42,43
834.400390625 923.200195312 m 6,54,55
 834.400390625 944.799804688 834.400390625 944.799804688 820 959.200195312 c 132,-1,56
 805.599609375 973.599609375 805.599609375 973.599609375 784 973.599609375 c 132,-1,57
 762.400390625 973.599609375 762.400390625 973.599609375 748 959.200195312 c 132,-1,58
 733.599609375 944.799804688 733.599609375 944.799804688 733.599609375 923.200195312 c 6,59,-1
 733.599609375 217.599609375 l 6,60,61
 733.599609375 196 733.599609375 196 748 181.599609375 c 132,-1,62
 762.400390625 167.200195312 762.400390625 167.200195312 784 167.200195312 c 132,-1,63
 805.599609375 167.200195312 805.599609375 167.200195312 820 181.599609375 c 132,-1,64
 834.400390625 196 834.400390625 196 834.400390625 217.599609375 c 6,65,-1
 834.400390625 923.200195312 l 6,54,55
1136.79980469 923.200195312 m 6,66,67
 1136.79980469 944.799804688 1136.79980469 944.799804688 1122.40039062 959.200195312 c 132,-1,68
 1108 973.599609375 1108 973.599609375 1086.40039062 973.599609375 c 132,-1,69
 1064.79980469 973.599609375 1064.79980469 973.599609375 1050.40039062 959.200195312 c 132,-1,70
 1036 944.799804688 1036 944.799804688 1036 923.200195312 c 6,71,-1
 1036 217.599609375 l 6,72,73
 1036 196 1036 196 1050.40039062 181.599609375 c 132,-1,74
 1064.79980469 167.200195312 1064.79980469 167.200195312 1086.40039062 167.200195312 c 132,-1,75
 1108 167.200195312 1108 167.200195312 1122.40039062 181.599609375 c 132,-1,76
 1136.79980469 196 1136.79980469 196 1136.79980469 217.599609375 c 6,77,-1
 1136.79980469 923.200195312 l 6,66,67
EndSplineSet
Validated: 1
EndChar

StartChar: uniEA97
Encoding: 60055 60055 58
Width: 1792
Flags: W
LayerCount: 3
Fore
SplineSet
672.799804688 712.349609375 m 6,0,1
 679.099609375 680.849609375 679.099609375 680.849609375 650.75 660.150390625 c 132,-1,2
 622.400390625 639.450195312 622.400390625 639.450195312 593.599609375 659.25 c 6,3,-1
 467.599609375 737.549804688 l 5,4,-1
 307.400390625 482.849609375 l 6,5,6
 285.799804688 451.349609375 285.799804688 451.349609375 291.650390625 414.900390625 c 132,-1,7
 297.5 378.450195312 297.5 378.450195312 325.849609375 353.25 c 132,-1,8
 354.200195312 328.049804688 354.200195312 328.049804688 392 328.049804688 c 6,9,-1
 555.799804688 328.049804688 l 6,10,11
 572 328.049804688 572 328.049804688 582.799804688 317.25 c 132,-1,12
 593.599609375 306.450195312 593.599609375 306.450195312 593.599609375 290.25 c 6,13,-1
 593.599609375 164.25 l 6,14,15
 593.599609375 148.049804688 593.599609375 148.049804688 582.799804688 137.25 c 132,-1,16
 572 126.450195312 572 126.450195312 555.799804688 126.450195312 c 6,17,-1
 392 126.450195312 l 6,18,19
 278.599609375 126.450195312 278.599609375 126.450195312 194.900390625 200.25 c 132,-1,20
 111.200195312 274.049804688 111.200195312 274.049804688 92.2998046875 382.950195312 c 132,-1,21
 73.400390625 491.849609375 73.400390625 491.849609375 136.400390625 589.049804688 c 6,22,-1
 297.5 844.650390625 l 5,23,-1
 168.799804688 926.549804688 l 6,24,25
 140 942.75 140 942.75 144.5 975.599609375 c 132,-1,26
 149 1008.45019531 149 1008.45019531 184.099609375 1017.45019531 c 6,27,-1
 530.599609375 1096.65039062 l 6,28,29
 549.5 1102.95019531 549.5 1102.95019531 568.400390625 1091.70019531 c 4,30,31
 586.400390625 1080.45019531 586.400390625 1080.45019531 590 1058.84960938 c 6,32,-1
 672.799804688 712.349609375 l 6,0,1
980.599609375 1289.25 m 6,33,-1
 1110.20019531 1080.45019531 l 5,34,-1
 984.200195312 999.450195312 l 6,35,36
 955.400390625 983.25 955.400390625 983.25 960.349609375 949.950195312 c 4,37,38
 966.200195312 916.650390625 966.200195312 916.650390625 1000.40039062 907.650390625 c 6,39,-1
 1346 828.450195312 l 6,40,41
 1364.90039062 822.150390625 1364.90039062 822.150390625 1382.45019531 833.400390625 c 132,-1,42
 1400 844.650390625 1400 844.650390625 1406.29980469 866.25 c 6,43,-1
 1484.59960938 1213.65039062 l 6,44,45
 1493.59960938 1245.15039062 1493.59960938 1245.15039062 1465.70019531 1265.40039062 c 132,-1,46
 1437.79980469 1285.65039062 1437.79980469 1285.65039062 1409 1266.75 c 6,47,-1
 1283 1188.45019531 l 5,48,-1
 1151.59960938 1395.45019531 l 6,49,50
 1094.90039062 1487.25 1094.90039062 1487.25 995.450195312 1520.54980469 c 132,-1,51
 896 1553.84960938 896 1553.84960938 797 1520.54980469 c 132,-1,52
 698 1487.25 698 1487.25 640.400390625 1395.45019531 c 6,53,-1
 584.599609375 1304.54980469 l 6,54,55
 575.599609375 1291.95019531 575.599609375 1291.95019531 578.299804688 1276.20019531 c 132,-1,56
 581 1260.45019531 581 1260.45019531 593.599609375 1254.15039062 c 6,57,-1
 700.700195312 1184.84960938 l 5,58,59
 716.900390625 1178.54980469 716.900390625 1178.54980469 730.849609375 1181.70019531 c 132,-1,60
 744.799804688 1184.84960938 744.799804688 1184.84960938 753.799804688 1197.45019531 c 6,61,-1
 811.400390625 1289.25 l 6,62,63
 840.200195312 1336.04980469 840.200195312 1336.04980469 896 1336.04980469 c 132,-1,64
 951.799804688 1336.04980469 951.799804688 1336.04980469 980.599609375 1289.25 c 6,33,-1
1655.59960938 589.049804688 m 6,65,-1
 1570.09960938 727.650390625 l 6,66,67
 1561.09960938 740.25 1561.09960938 740.25 1545.34960938 743.849609375 c 132,-1,68
 1529.59960938 747.450195312 1529.59960938 747.450195312 1517 740.25 c 6,69,-1
 1409 674.549804688 l 6,70,71
 1396.40039062 665.549804688 1396.40039062 665.549804688 1393.70019531 649.799804688 c 132,-1,72
 1391 634.049804688 1391 634.049804688 1400 621.450195312 c 6,73,-1
 1484.59960938 482.849609375 l 6,74,75
 1506.20019531 451.349609375 1506.20019531 451.349609375 1500.34960938 414.900390625 c 132,-1,76
 1494.5 378.450195312 1494.5 378.450195312 1466.15039062 353.25 c 132,-1,77
 1437.79980469 328.049804688 1437.79980469 328.049804688 1400 328.049804688 c 6,78,-1
 1097.59960938 328.049804688 l 5,79,-1
 1097.59960938 479.25 l 6,80,81
 1097.59960938 513.450195312 1097.59960938 513.450195312 1066.09960938 526.049804688 c 132,-1,82
 1034.59960938 538.650390625 1034.59960938 538.650390625 1013 513.450195312 c 6,83,-1
 761 261.450195312 l 6,84,85
 744.799804688 248.849609375 744.799804688 248.849609375 744.799804688 227.25 c 132,-1,86
 744.799804688 205.650390625 744.799804688 205.650390625 761 193.049804688 c 6,87,-1
 1013 -58.9501953125 l 6,88,89
 1034.59960938 -84.150390625 1034.59960938 -84.150390625 1066.09960938 -71.5498046875 c 132,-1,90
 1097.59960938 -58.9501953125 1097.59960938 -58.9501953125 1097.59960938 -24.75 c 6,91,-1
 1097.59960938 126.450195312 l 5,92,-1
 1400 126.450195312 l 6,93,94
 1513.40039062 126.450195312 1513.40039062 126.450195312 1597.09960938 200.25 c 132,-1,95
 1680.79980469 274.049804688 1680.79980469 274.049804688 1699.70019531 382.950195312 c 132,-1,96
 1718.59960938 491.849609375 1718.59960938 491.849609375 1655.59960938 589.049804688 c 6,65,-1
EndSplineSet
Validated: 41
EndChar

StartChar: uniEA98
Encoding: 60056 60056 59
Width: 1792
Flags: W
LayerCount: 3
Fore
SplineSet
89.599609375 744.599609375 m 6,0,-1
 89.599609375 1387.20019531 l 6,1,2
 89.599609375 1450.20019531 89.599609375 1450.20019531 133.700195312 1494.29980469 c 132,-1,3
 177.799804688 1538.40039062 177.799804688 1538.40039062 240.799804688 1538.40039062 c 6,4,-1
 883.400390625 1538.40039062 l 6,5,6
 946.400390625 1538.40039062 946.400390625 1538.40039062 990.5 1494.29980469 c 6,7,-1
 1658.29980469 826.5 l 6,8,9
 1702.40039062 782.400390625 1702.40039062 782.400390625 1702.40039062 719.400390625 c 132,-1,10
 1702.40039062 656.400390625 1702.40039062 656.400390625 1658.29980469 612.299804688 c 6,11,-1
 1015.70019531 -30.2998046875 l 6,12,13
 971.599609375 -74.400390625 971.599609375 -74.400390625 908.599609375 -74.400390625 c 132,-1,14
 845.599609375 -74.400390625 845.599609375 -74.400390625 801.5 -30.2998046875 c 6,15,-1
 133.700195312 637.5 l 6,16,17
 89.599609375 681.599609375 89.599609375 681.599609375 89.599609375 744.599609375 c 6,0,-1
442.400390625 1336.79980469 m 260,18,19
 379.400390625 1336.79980469 379.400390625 1336.79980469 335.299804688 1292.70019531 c 132,-1,20
 291.200195312 1248.59960938 291.200195312 1248.59960938 291.200195312 1185.59960938 c 132,-1,21
 291.200195312 1122.59960938 291.200195312 1122.59960938 335.299804688 1078.5 c 132,-1,22
 379.400390625 1034.40039062 379.400390625 1034.40039062 442.400390625 1034.40039062 c 132,-1,23
 505.400390625 1034.40039062 505.400390625 1034.40039062 549.5 1078.5 c 132,-1,24
 593.599609375 1122.59960938 593.599609375 1122.59960938 593.599609375 1185.59960938 c 132,-1,25
 593.599609375 1248.59960938 593.599609375 1248.59960938 549.5 1292.70019531 c 132,-1,26
 505.400390625 1336.79980469 505.400390625 1336.79980469 442.400390625 1336.79980469 c 260,18,19
EndSplineSet
Validated: 1
EndChar

StartChar: uniEA99
Encoding: 60057 60057 60
Width: 1792
Flags: W
LayerCount: 3
Fore
SplineSet
1148 762 m 260,0,1
 1148 657 1148 657 1074.5 583.5 c 132,-1,2
 1001 510 1001 510 896 510 c 132,-1,3
 791 510 791 510 717.5 583.5 c 132,-1,4
 644 657 644 657 644 762 c 132,-1,5
 644 867 644 867 717.5 940.5 c 132,-1,6
 791 1014 791 1014 896 1014 c 132,-1,7
 1001 1014 1001 1014 1074.5 940.5 c 132,-1,8
 1148 867 1148 867 1148 762 c 260,0,1
1512 1014 m 260,9,10
 1407 1014 1407 1014 1333.5 940.5 c 132,-1,11
 1260 867 1260 867 1260 762 c 132,-1,12
 1260 657 1260 657 1333.5 583.5 c 132,-1,13
 1407 510 1407 510 1512 510 c 132,-1,14
 1617 510 1617 510 1690.5 583.5 c 132,-1,15
 1764 657 1764 657 1764 762 c 132,-1,16
 1764 867 1764 867 1690.5 940.5 c 132,-1,17
 1617 1014 1617 1014 1512 1014 c 260,9,10
280 1014 m 260,18,19
 175 1014 175 1014 101.5 940.5 c 132,-1,20
 28 867 28 867 28 762 c 132,-1,21
 28 657 28 657 101.5 583.5 c 132,-1,22
 175 510 175 510 280 510 c 132,-1,23
 385 510 385 510 458.5 583.5 c 132,-1,24
 532 657 532 657 532 762 c 132,-1,25
 532 867 532 867 458.5 940.5 c 132,-1,26
 385 1014 385 1014 280 1014 c 260,18,19
EndSplineSet
Validated: 9
EndChar

StartChar: uniEA9A
Encoding: 60058 60058 61
Width: 2240
Flags: W
LayerCount: 3
Fore
SplineSet
2240 416 m 4,0,1
 2240 294 2240 294 2180.5 190.5 c 132,-1,2
 2121 87 2121 87 2017.5 27.5 c 132,-1,3
 1914 -32 1914 -32 1792 -32 c 6,4,-1
 504 -32 l 6,5,6
 368 -32 368 -32 252 36 c 132,-1,7
 136 104 136 104 68 220 c 132,-1,8
 0 336 0 336 0 472 c 4,9,10
 0 633 0 633 94.5 764.5 c 132,-1,11
 189 896 189 896 336 948 c 5,12,-1
 336 976 l 6,13,14
 336 1126 336 1126 411 1256 c 132,-1,15
 486 1386 486 1386 616 1461 c 132,-1,16
 746 1536 746 1536 898 1536 c 132,-1,17
 1050 1536 1050 1536 1179.5 1459 c 4,18,19
 1308 1382 1308 1382 1382 1256 c 5,20,21
 1466 1312 1466 1312 1568 1312 c 4,22,23
 1708 1312 1708 1312 1806 1214 c 132,-1,24
 1904 1116 1904 1116 1904 976 c 4,25,26
 1904 914 1904 914 1883 854 c 5,27,28
 2037 822 2037 822 2138.5 699.5 c 132,-1,29
 2240 577 2240 577 2240 416 c 4,0,1
1376 640 m 6,30,-1
 1148 640 l 5,31,-1
 1148 1032 l 6,32,33
 1148 1056 1148 1056 1132 1072 c 132,-1,34
 1116 1088 1116 1088 1092 1088 c 6,35,-1
 924 1088 l 6,36,37
 900 1088 900 1088 884 1072 c 132,-1,38
 868 1056 868 1056 868 1032 c 6,39,-1
 868 640 l 5,40,-1
 640 640 l 6,41,42
 602 640 602 640 588 605 c 132,-1,43
 574 570 574 570 598 546 c 6,44,-1
 970 174 l 6,45,46
 984 160 984 160 1008 160 c 132,-1,47
 1032 160 1032 160 1046 174 c 6,48,-1
 1418 546 l 6,49,50
 1442 570 1442 570 1428 605 c 132,-1,51
 1414 640 1414 640 1376 640 c 6,30,-1
EndSplineSet
Validated: 33
EndChar

StartChar: uniEA9B
Encoding: 60059 60059 62
Width: 1792
Flags: W
LayerCount: 3
Fore
SplineSet
1624 1312 m 6,0,1
 1694 1312 1694 1312 1743 1263 c 132,-1,2
 1792 1214 1792 1214 1792 1144 c 6,3,-1
 1792 168 l 2,4,5
 1792 98 1792 98 1743 49 c 128,-1,6
 1694 0 1694 0 1624 0 c 2,7,-1
 168 0 l 2,8,9
 98 0 98 0 49 49 c 128,-1,10
 0 98 0 98 0 168 c 2,11,-1
 0 1368 l 6,12,13
 0 1438 0 1438 49 1487 c 132,-1,14
 98 1536 98 1536 168 1536 c 6,15,-1
 728 1536 l 5,16,-1
 952 1312 l 5,17,-1
 1624 1312 l 6,0,1
EndSplineSet
EndChar

StartChar: uniEA9C
Encoding: 60060 60060 63
Width: 1792
Flags: W
LayerCount: 3
Fore
SplineSet
1551.20019531 933.599609375 m 6,0,-1
 1500.79980469 933.599609375 l 5,1,-1
 1500.79980469 1280.09960938 l 6,2,3
 1500.79980469 1311.59960938 1500.79980469 1311.59960938 1479.20019531 1333.20019531 c 6,4,-1
 1295.59960938 1516.79980469 l 6,5,6
 1274 1538.40039062 1274 1538.40039062 1242.5 1538.40039062 c 6,7,-1
 366.799804688 1538.40039062 l 6,8,9
 335.299804688 1538.40039062 335.299804688 1538.40039062 313.25 1516.34960938 c 132,-1,10
 291.200195312 1494.29980469 291.200195312 1494.29980469 291.200195312 1462.79980469 c 6,11,-1
 291.200195312 933.599609375 l 5,12,-1
 240.799804688 933.599609375 l 6,13,14
 177.799804688 933.599609375 177.799804688 933.599609375 133.700195312 889.5 c 132,-1,15
 89.599609375 845.400390625 89.599609375 845.400390625 89.599609375 782.400390625 c 6,16,-1
 89.599609375 366.599609375 l 6,17,18
 89.599609375 350.400390625 89.599609375 350.400390625 100.400390625 339.599609375 c 132,-1,19
 111.200195312 328.799804688 111.200195312 328.799804688 127.400390625 328.799804688 c 6,20,-1
 291.200195312 328.799804688 l 5,21,-1
 291.200195312 1.2001953125 l 6,22,23
 291.200195312 -30.2998046875 291.200195312 -30.2998046875 313.25 -52.349609375 c 132,-1,24
 335.299804688 -74.400390625 335.299804688 -74.400390625 366.799804688 -74.400390625 c 6,25,-1
 1425.20019531 -74.400390625 l 6,26,27
 1456.70019531 -74.400390625 1456.70019531 -74.400390625 1478.75 -52.349609375 c 132,-1,28
 1500.79980469 -30.2998046875 1500.79980469 -30.2998046875 1500.79980469 1.2001953125 c 6,29,-1
 1500.79980469 328.799804688 l 5,30,-1
 1664.59960938 328.799804688 l 6,31,32
 1680.79980469 328.799804688 1680.79980469 328.799804688 1691.59960938 339.599609375 c 132,-1,33
 1702.40039062 350.400390625 1702.40039062 350.400390625 1702.40039062 366.599609375 c 6,34,-1
 1702.40039062 782.400390625 l 6,35,36
 1702.40039062 845.400390625 1702.40039062 845.400390625 1658.29980469 889.5 c 132,-1,37
 1614.20019531 933.599609375 1614.20019531 933.599609375 1551.20019531 933.599609375 c 6,0,-1
1299.20019531 127.200195312 m 5,38,-1
 492.799804688 127.200195312 l 5,39,-1
 492.799804688 429.599609375 l 5,40,-1
 1299.20019531 429.599609375 l 5,41,-1
 1299.20019531 127.200195312 l 5,38,-1
492.799804688 832.799804688 m 5,42,-1
 492.799804688 1336.79980469 l 5,43,-1
 1097.59960938 1336.79980469 l 5,44,-1
 1097.59960938 1210.79980469 l 6,45,46
 1097.59960938 1179.29980469 1097.59960938 1179.29980469 1119.65039062 1157.25 c 132,-1,47
 1141.70019531 1135.20019531 1141.70019531 1135.20019531 1173.20019531 1135.20019531 c 6,48,-1
 1299.20019531 1135.20019531 l 5,49,-1
 1299.20019531 832.799804688 l 5,50,-1
 492.799804688 832.799804688 l 5,42,-1
1450.40039062 606 m 260,51,52
 1418.90039062 606 1418.90039062 606 1396.84960938 628.049804688 c 132,-1,53
 1374.79980469 650.099609375 1374.79980469 650.099609375 1374.79980469 681.599609375 c 132,-1,54
 1374.79980469 713.099609375 1374.79980469 713.099609375 1396.84960938 735.150390625 c 132,-1,55
 1418.90039062 757.200195312 1418.90039062 757.200195312 1450.40039062 757.200195312 c 132,-1,56
 1481.90039062 757.200195312 1481.90039062 757.200195312 1503.95019531 735.150390625 c 132,-1,57
 1526 713.099609375 1526 713.099609375 1526 681.599609375 c 132,-1,58
 1526 650.099609375 1526 650.099609375 1503.95019531 628.049804688 c 132,-1,59
 1481.90039062 606 1481.90039062 606 1450.40039062 606 c 260,51,52
EndSplineSet
Validated: 9
EndChar

StartChar: uniEA9D
Encoding: 60061 60061 64
Width: 1792
Flags: W
LayerCount: 3
Fore
SplineSet
1666 1558 m 6,0,-1
 46 620 l 6,1,2
 -3 596 -3 596 0.5 543 c 132,-1,3
 4 490 4 490 52 469 c 6,4,-1
 424 315 l 5,5,-1
 1428 1200 l 6,6,7
 1442 1210 1442 1210 1456 1198 c 132,-1,8
 1470 1186 1470 1186 1460 1172 c 6,9,-1
 616 144 l 5,10,-1
 616 -136 l 6,11,12
 616 -178 616 -178 642 -201 c 132,-1,13
 668 -224 668 -224 705 -224 c 132,-1,14
 742 -224 742 -224 766 -192 c 6,15,-1
 987 77 l 5,16,-1
 1424 -105 l 6,17,18
 1459 -123 1459 -123 1496 -101.5 c 132,-1,19
 1533 -80 1533 -80 1540 -42 c 6,20,-1
 1792 1470 l 6,21,22
 1799 1522 1799 1522 1755.5 1552 c 132,-1,23
 1712 1582 1712 1582 1666 1558 c 6,0,-1
EndSplineSet
Validated: 41
EndChar

StartChar: uniEA9E
Encoding: 60062 60062 65
Width: 1568
Flags: W
LayerCount: 3
Fore
SplineSet
1519 1193 m 6,0,-1
 1225 1487 l 6,1,2
 1176 1536 1176 1536 1106 1536 c 6,3,-1
 168 1536 l 6,4,5
 98 1536 98 1536 49 1487 c 132,-1,6
 0 1438 0 1438 0 1368 c 6,7,-1
 0 136 l 6,8,9
 0 66 0 66 49 17 c 132,-1,10
 98 -32 98 -32 168 -32 c 6,11,-1
 1400 -32 l 6,12,13
 1470 -32 1470 -32 1519 17 c 132,-1,14
 1568 66 1568 66 1568 136 c 6,15,-1
 1568 1074 l 6,16,17
 1568 1144 1568 1144 1519 1193 c 6,0,-1
784 192 m 260,18,19
 690 192 690 192 625 257 c 132,-1,20
 560 322 560 322 560 416 c 132,-1,21
 560 510 560 510 625 575 c 132,-1,22
 690 640 690 640 784 640 c 132,-1,23
 878 640 878 640 943 575 c 132,-1,24
 1008 510 1008 510 1008 416 c 132,-1,25
 1008 322 1008 322 943 257 c 132,-1,26
 878 192 878 192 784 192 c 260,18,19
1120 1260 m 6,27,-1
 1120 906 l 6,28,29
 1120 888 1120 888 1108 876 c 132,-1,30
 1096 864 1096 864 1078 864 c 6,31,-1
 266 864 l 6,32,33
 248 864 248 864 236 876 c 132,-1,34
 224 888 224 888 224 906 c 6,35,-1
 224 1270 l 6,36,37
 224 1288 224 1288 236 1300 c 132,-1,38
 248 1312 248 1312 266 1312 c 6,39,-1
 1068 1312 l 6,40,41
 1082 1312 1082 1312 1096 1298 c 6,42,-1
 1106 1288 l 6,43,44
 1120 1274 1120 1274 1120 1260 c 6,27,-1
EndSplineSet
Validated: 9
EndChar

StartChar: uniEA9F
Encoding: 60063 60063 66
Width: 2016
Flags: W
LayerCount: 3
Fore
SplineSet
835.700195312 298 m 6,0,-1
 309.200195312 820 l 6,1,2
 287.599609375 841.599609375 287.599609375 841.599609375 287.599609375 876.700195312 c 132,-1,3
 287.599609375 911.799804688 287.599609375 911.799804688 309.200195312 933.400390625 c 6,4,-1
 426.200195312 1046.79980469 l 6,5,6
 447.799804688 1072 447.799804688 1072 481.099609375 1072 c 132,-1,7
 514.400390625 1072 514.400390625 1072 539.599609375 1046.79980469 c 6,8,-1
 892.400390625 694 l 5,9,-1
 1648.40039062 1450 l 6,10,11
 1673.59960938 1475.20019531 1673.59960938 1475.20019531 1706.90039062 1475.20019531 c 132,-1,12
 1740.20019531 1475.20019531 1740.20019531 1475.20019531 1761.79980469 1450 c 6,13,-1
 1878.79980469 1336.59960938 l 6,14,15
 1900.40039062 1315 1900.40039062 1315 1900.40039062 1280.34960938 c 4,16,17
 1900.40039062 1244.79980469 1900.40039062 1244.79980469 1878.79980469 1223.20019531 c 6,18,-1
 949.099609375 298 l 6,19,20
 927.5 272.799804688 927.5 272.799804688 892.400390625 272.799804688 c 132,-1,21
 857.299804688 272.799804688 857.299804688 272.799804688 835.700195312 298 c 6,0,-1
1344 547 m 6,22,-1
 1344 190 l 5,23,-1
 224 190 l 5,24,-1
 224 1310 l 5,25,-1
 1029 1310 l 6,26,27
 1047 1310 1047 1310 1057 1320 c 6,28,-1
 1197 1464 l 6,29,30
 1218 1482 1218 1482 1207.5 1508 c 132,-1,31
 1197 1534 1197 1534 1169 1534 c 6,32,-1
 168 1534 l 6,33,34
 98 1534 98 1534 49 1485 c 132,-1,35
 0 1436 0 1436 0 1366 c 6,36,-1
 0 134 l 6,37,38
 0 64 0 64 49 15 c 132,-1,39
 98 -34 98 -34 168 -34 c 6,40,-1
 1400 -34 l 6,41,42
 1470 -34 1470 -34 1519 15 c 132,-1,43
 1568 64 1568 64 1568 134 c 6,44,-1
 1568 687 l 6,45,46
 1568 715 1568 715 1542 725.5 c 132,-1,47
 1516 736 1516 736 1498 715 c 6,48,-1
 1358 575 l 6,49,50
 1344 565 1344 565 1344 547 c 6,22,-1
EndSplineSet
Validated: 9
EndChar

StartChar: uniEAA0
Encoding: 60064 60064 67
Width: 1568
Flags: W
LayerCount: 3
Fore
SplineSet
213.650390625 70.6748046875 m 4,0,1
 125.450195312 162.474609375 125.450195312 162.474609375 93.9501953125 288.025390625 c 132,-1,2
 62.4501953125 413.575195312 62.4501953125 413.575195312 95.75 538.224609375 c 4,3,4
 129.049804688 661.974609375 129.049804688 661.974609375 220.849609375 753.775390625 c 6,5,-1
 878.75 1431.47460938 l 6,6,7
 948.049804688 1500.77539062 948.049804688 1500.77539062 1040.75 1525.97460938 c 132,-1,8
 1133.45019531 1551.17480469 1133.45019531 1551.17480469 1225.25 1525.97460938 c 132,-1,9
 1317.04980469 1500.77539062 1317.04980469 1500.77539062 1386.34960938 1431.47460938 c 132,-1,10
 1455.65039062 1362.17480469 1455.65039062 1362.17480469 1479.04980469 1269.47460938 c 132,-1,11
 1502.45019531 1176.77539062 1502.45019531 1176.77539062 1479.04980469 1083.625 c 132,-1,12
 1455.65039062 990.474609375 1455.65039062 990.474609375 1385.45019531 921.174804688 c 6,13,-1
 809.450195312 332.575195312 l 6,14,15
 740.150390625 260.575195312 740.150390625 260.575195312 639.349609375 261.474609375 c 132,-1,16
 538.549804688 262.375 538.549804688 262.375 470.599609375 333.474609375 c 132,-1,17
 402.650390625 404.575195312 402.650390625 404.575195312 404.450195312 503.575195312 c 132,-1,18
 406.25 602.575195312 406.25 602.575195312 475.549804688 672.775390625 c 6,19,-1
 926.450195312 1135.375 l 6,20,21
 942.650390625 1147.97460938 942.650390625 1147.97460938 962.450195312 1149.77539062 c 132,-1,22
 982.25 1151.57519531 982.25 1151.57519531 998.450195312 1135.375 c 6,23,-1
 1070.45019531 1066.07519531 l 6,24,25
 1086.65039062 1049.875 1086.65039062 1049.875 1086.65039062 1029.625 c 132,-1,26
 1086.65039062 1009.375 1086.65039062 1009.375 1070.45019531 993.174804688 c 6,27,-1
 616.849609375 530.575195312 l 6,28,29
 607.849609375 517.974609375 607.849609375 517.974609375 606.049804688 500.875 c 132,-1,30
 604.25 483.775390625 604.25 483.775390625 615.5 472.525390625 c 132,-1,31
 626.75 461.275390625 626.75 461.275390625 640.700195312 461.275390625 c 132,-1,32
 654.650390625 461.275390625 654.650390625 461.275390625 664.549804688 473.875 c 6,33,-1
 1241.45019531 1059.77539062 l 6,34,35
 1288.25 1110.17480469 1288.25 1110.17480469 1288.25 1176.32519531 c 132,-1,36
 1288.25 1242.47460938 1288.25 1242.47460938 1242.34960938 1289.72460938 c 132,-1,37
 1196.45019531 1336.97460938 1196.45019531 1336.97460938 1133.45019531 1336.97460938 c 132,-1,38
 1070.45019531 1336.97460938 1070.45019531 1336.97460938 1023.65039062 1290.17480469 c 6,39,-1
 362.150390625 615.174804688 l 6,40,41
 280.25 530.575195312 280.25 530.575195312 280.25 412.674804688 c 132,-1,42
 280.25 294.775390625 280.25 294.775390625 360.349609375 211.075195312 c 132,-1,43
 440.450195312 127.375 440.450195312 127.375 553.849609375 127.375 c 132,-1,44
 667.25 127.375 667.25 127.375 746.450195312 209.275390625 c 6,45,-1
 1288.25 763.674804688 l 6,46,47
 1304.45019531 779.875 1304.45019531 779.875 1324.70019531 779.424804688 c 4,48,49
 1344.04980469 778.974609375 1344.04980469 778.974609375 1360.25 763.674804688 c 6,50,-1
 1433.15039062 694.375 l 6,51,52
 1449.34960938 678.174804688 1449.34960938 678.174804688 1448.90039062 657.924804688 c 4,53,54
 1448.45019531 638.575195312 1448.45019531 638.575195312 1433.15039062 622.375 c 6,55,-1
 891.349609375 67.974609375 l 6,56,57
 799.549804688 -26.525390625 799.549804688 -26.525390625 675.349609375 -58.474609375 c 132,-1,58
 551.150390625 -90.4248046875 551.150390625 -90.4248046875 428.299804688 -57.125 c 132,-1,59
 305.450195312 -23.8251953125 305.450195312 -23.8251953125 213.650390625 70.6748046875 c 4,0,1
EndSplineSet
Validated: 33
EndChar

StartChar: uniEAA1
Encoding: 60065 60065 68
Width: 1792
Flags: W
LayerCount: 3
Fore
SplineSet
1658.29980469 1101.09960938 m 6,0,-1
 1513.40039062 956.200195312 l 6,1,2
 1500.79980469 943.599609375 1500.79980469 943.599609375 1485.04980469 943.599609375 c 4,3,4
 1468.40039062 943.599609375 1468.40039062 943.599609375 1459.40039062 956.200195312 c 6,5,-1
 1110.20019531 1305.40039062 l 6,6,7
 1097.59960938 1314.40039062 1097.59960938 1314.40039062 1097.59960938 1330.59960938 c 132,-1,8
 1097.59960938 1346.79980469 1097.59960938 1346.79980469 1110.20019531 1359.40039062 c 6,9,-1
 1255.09960938 1504.29980469 l 6,10,11
 1299.20019531 1548.40039062 1299.20019531 1548.40039062 1362.20019531 1548.40039062 c 132,-1,12
 1425.20019531 1548.40039062 1425.20019531 1548.40039062 1469.29980469 1504.29980469 c 6,13,-1
 1658.29980469 1315.29980469 l 6,14,15
 1702.40039062 1271.20019531 1702.40039062 1271.20019531 1702.40039062 1208.20019531 c 132,-1,16
 1702.40039062 1145.20019531 1702.40039062 1145.20019531 1658.29980469 1101.09960938 c 6,0,-1
984.200195312 1233.40039062 m 6,17,-1
 158.900390625 408.099609375 l 5,18,-1
 89.599609375 23.7998046875 l 6,19,20
 83.2998046875 -14 83.2998046875 -14 111.650390625 -42.349609375 c 132,-1,21
 140 -70.7001953125 140 -70.7001953125 177.799804688 -64.400390625 c 6,22,-1
 562.099609375 4.900390625 l 5,23,-1
 1387.40039062 830.200195312 l 6,24,25
 1400 842.799804688 1400 842.799804688 1400 858.549804688 c 4,26,27
 1400 875.200195312 1400 875.200195312 1387.40039062 884.200195312 c 6,28,-1
 1038.20019531 1233.40039062 l 6,29,30
 1029.20019531 1246 1029.20019531 1246 1013 1246 c 132,-1,31
 996.799804688 1246 996.799804688 1246 984.200195312 1233.40039062 c 6,17,-1
480.200195312 477.400390625 m 260,32,33
 467.599609375 490 467.599609375 490 467.599609375 508.900390625 c 132,-1,34
 467.599609375 527.799804688 467.599609375 527.799804688 480.200195312 540.400390625 c 6,35,-1
 965.299804688 1025.5 l 6,36,37
 977.900390625 1038.09960938 977.900390625 1038.09960938 996.799804688 1038.09960938 c 132,-1,38
 1015.70019531 1038.09960938 1015.70019531 1038.09960938 1028.29980469 1025.5 c 132,-1,39
 1040.90039062 1012.90039062 1040.90039062 1012.90039062 1040.90039062 994 c 132,-1,40
 1040.90039062 975.099609375 1040.90039062 975.099609375 1028.29980469 962.5 c 6,41,-1
 543.200195312 477.400390625 l 6,42,43
 530.599609375 464.799804688 530.599609375 464.799804688 511.700195312 464.799804688 c 132,-1,44
 492.799804688 464.799804688 492.799804688 464.799804688 480.200195312 477.400390625 c 260,32,33
366.799804688 212.799804688 m 5,45,-1
 518 212.799804688 l 5,46,-1
 518 99.400390625 l 5,47,-1
 316.400390625 61.599609375 l 5,48,-1
 215.599609375 162.400390625 l 5,49,-1
 253.400390625 364 l 5,50,-1
 366.799804688 364 l 5,51,-1
 366.799804688 212.799804688 l 5,45,-1
EndSplineSet
Validated: 41
EndChar

StartChar: uniEAA2
Encoding: 60066 60066 69
Width: 1792
Flags: W
LayerCount: 3
Fore
SplineSet
1658.29980469 1091.09960938 m 6,0,-1
 1513.40039062 946.200195312 l 6,1,2
 1500.79980469 933.599609375 1500.79980469 933.599609375 1485.04980469 933.599609375 c 4,3,4
 1468.40039062 933.599609375 1468.40039062 933.599609375 1459.40039062 946.200195312 c 6,5,-1
 1110.20019531 1295.40039062 l 6,6,7
 1097.59960938 1304.40039062 1097.59960938 1304.40039062 1097.59960938 1320.59960938 c 132,-1,8
 1097.59960938 1336.79980469 1097.59960938 1336.79980469 1110.20019531 1349.40039062 c 6,9,-1
 1255.09960938 1494.29980469 l 6,10,11
 1299.20019531 1538.40039062 1299.20019531 1538.40039062 1362.20019531 1538.40039062 c 132,-1,12
 1425.20019531 1538.40039062 1425.20019531 1538.40039062 1469.29980469 1494.29980469 c 6,13,-1
 1658.29980469 1305.29980469 l 6,14,15
 1702.40039062 1261.20019531 1702.40039062 1261.20019531 1702.40039062 1198.20019531 c 132,-1,16
 1702.40039062 1135.20019531 1702.40039062 1135.20019531 1658.29980469 1091.09960938 c 6,0,-1
984.200195312 1223.40039062 m 6,17,-1
 158.900390625 398.099609375 l 5,18,-1
 89.599609375 13.7998046875 l 6,19,20
 83.2998046875 -24 83.2998046875 -24 111.650390625 -52.349609375 c 132,-1,21
 140 -80.7001953125 140 -80.7001953125 177.799804688 -74.400390625 c 6,22,-1
 562.099609375 -5.099609375 l 5,23,-1
 1387.40039062 820.200195312 l 6,24,25
 1400 832.799804688 1400 832.799804688 1400 848.549804688 c 4,26,27
 1400 865.200195312 1400 865.200195312 1387.40039062 874.200195312 c 6,28,-1
 1038.20019531 1223.40039062 l 6,29,30
 1029.20019531 1236 1029.20019531 1236 1013 1236 c 132,-1,31
 996.799804688 1236 996.799804688 1236 984.200195312 1223.40039062 c 6,17,-1
480.200195312 467.400390625 m 260,32,33
 467.599609375 480 467.599609375 480 467.599609375 498.900390625 c 132,-1,34
 467.599609375 517.799804688 467.599609375 517.799804688 480.200195312 530.400390625 c 6,35,-1
 965.299804688 1015.5 l 6,36,37
 977.900390625 1028.09960938 977.900390625 1028.09960938 996.799804688 1028.09960938 c 132,-1,38
 1015.70019531 1028.09960938 1015.70019531 1028.09960938 1028.29980469 1015.5 c 132,-1,39
 1040.90039062 1002.90039062 1040.90039062 1002.90039062 1040.90039062 984 c 132,-1,40
 1040.90039062 965.099609375 1040.90039062 965.099609375 1028.29980469 952.5 c 6,41,-1
 543.200195312 467.400390625 l 6,42,43
 530.599609375 454.799804688 530.599609375 454.799804688 511.700195312 454.799804688 c 132,-1,44
 492.799804688 454.799804688 492.799804688 454.799804688 480.200195312 467.400390625 c 260,32,33
366.799804688 202.799804688 m 5,45,-1
 518 202.799804688 l 5,46,-1
 518 89.400390625 l 5,47,-1
 316.400390625 51.599609375 l 5,48,-1
 215.599609375 152.400390625 l 5,49,-1
 253.400390625 354 l 5,50,-1
 366.799804688 354 l 5,51,-1
 366.799804688 202.799804688 l 5,45,-1
EndSplineSet
Validated: 41
EndChar

StartChar: uniEAA3
Encoding: 60067 60067 70
Width: 2016
Flags: W
LayerCount: 3
Fore
SplineSet
1369.79980469 1317.40039062 m 6,0,-1
 1654.20019531 1033 l 6,1,2
 1663.20019531 1024 1663.20019531 1024 1663.20019531 1011.40039062 c 132,-1,3
 1663.20019531 998.799804688 1663.20019531 998.799804688 1654.20019531 989.799804688 c 6,4,-1
 963.900390625 299.5 l 5,5,-1
 674.099609375 268 l 6,6,7
 642.599609375 264.400390625 642.599609375 264.400390625 621.900390625 285.099609375 c 132,-1,8
 601.200195312 305.799804688 601.200195312 305.799804688 604.799804688 337.299804688 c 6,9,-1
 636.299804688 627.099609375 l 5,10,-1
 1326.59960938 1317.40039062 l 6,11,12
 1335.59960938 1326.40039062 1335.59960938 1326.40039062 1348.20019531 1326.40039062 c 132,-1,13
 1360.79980469 1326.40039062 1360.79980469 1326.40039062 1369.79980469 1317.40039062 c 6,0,-1
1881 1389.40039062 m 6,14,-1
 1726.20019531 1544.20019531 l 6,15,16
 1688.40039062 1578.40039062 1688.40039062 1578.40039062 1638 1578.40039062 c 132,-1,17
 1587.59960938 1578.40039062 1587.59960938 1578.40039062 1553.40039062 1544.20019531 c 6,18,-1
 1440 1430.79980469 l 6,19,20
 1431 1421.79980469 1431 1421.79980469 1430.54980469 1408.75 c 4,21,22
 1431 1394.79980469 1431 1394.79980469 1440 1385.79980469 c 6,23,-1
 1722.59960938 1103.20019531 l 6,24,25
 1731.59960938 1094.20019531 1731.59960938 1094.20019531 1744.65039062 1093.75 c 4,26,27
 1758.59960938 1094.20019531 1758.59960938 1094.20019531 1767.59960938 1103.20019531 c 6,28,-1
 1881 1216.59960938 l 6,29,30
 1915.20019531 1250.79980469 1915.20019531 1250.79980469 1915.20019531 1301.20019531 c 132,-1,31
 1915.20019531 1351.59960938 1915.20019531 1351.59960938 1881 1389.40039062 c 6,14,-1
1310.40039062 488.5 m 6,32,-1
 1310.40039062 167.200195312 l 5,33,-1
 302.400390625 167.200195312 l 5,34,-1
 302.400390625 1175.20019531 l 5,35,-1
 1026.90039062 1175.20019531 l 6,36,37
 1043.09960938 1175.20019531 1043.09960938 1175.20019531 1052.09960938 1184.20019531 c 6,38,-1
 1178.09960938 1313.79980469 l 6,39,40
 1197 1330 1197 1330 1187.54980469 1353.40039062 c 132,-1,41
 1178.09960938 1376.79980469 1178.09960938 1376.79980469 1152.90039062 1376.79980469 c 6,42,-1
 252 1376.79980469 l 6,43,44
 189 1376.79980469 189 1376.79980469 144.900390625 1332.70019531 c 132,-1,45
 100.799804688 1288.59960938 100.799804688 1288.59960938 100.799804688 1225.59960938 c 6,46,-1
 100.799804688 116.799804688 l 6,47,48
 100.799804688 53.7998046875 100.799804688 53.7998046875 144.900390625 9.7001953125 c 132,-1,49
 189 -34.400390625 189 -34.400390625 252 -34.400390625 c 6,50,-1
 1360.79980469 -34.400390625 l 6,51,52
 1423.79980469 -34.400390625 1423.79980469 -34.400390625 1467.90039062 9.7001953125 c 132,-1,53
 1512 53.7998046875 1512 53.7998046875 1512 116.799804688 c 6,54,-1
 1512 614.5 l 6,55,56
 1512 639.700195312 1512 639.700195312 1488.59960938 649.150390625 c 132,-1,57
 1465.20019531 658.599609375 1465.20019531 658.599609375 1449 639.700195312 c 6,58,-1
 1323 513.700195312 l 6,59,60
 1310.40039062 504.700195312 1310.40039062 504.700195312 1310.40039062 488.5 c 6,32,-1
EndSplineSet
Validated: 9
EndChar

StartChar: uniEAA4
Encoding: 60068 60068 71
Width: 1344
Flags: W
LayerCount: 3
Fore
SplineSet
67.2001953125 -74.400390625 m 5,0,-1
 67.2001953125 1387.20019531 l 6,1,2
 67.2001953125 1450.20019531 67.2001953125 1450.20019531 111.299804688 1494.29980469 c 132,-1,3
 155.400390625 1538.40039062 155.400390625 1538.40039062 218.400390625 1538.40039062 c 6,4,-1
 1125.59960938 1538.40039062 l 6,5,6
 1188.59960938 1538.40039062 1188.59960938 1538.40039062 1232.70019531 1494.29980469 c 132,-1,7
 1276.79980469 1450.20019531 1276.79980469 1450.20019531 1276.79980469 1387.20019531 c 6,8,-1
 1276.79980469 -74.400390625 l 5,9,-1
 672 278.400390625 l 5,10,-1
 67.2001953125 -74.400390625 l 5,0,-1
EndSplineSet
Validated: 1
EndChar

StartChar: uniEAA5
Encoding: 60069 60069 72
Width: 1792
Flags: W
LayerCount: 3
Fore
SplineSet
1624 -32 m 6,0,-1
 168 -32 l 6,1,2
 98 -32 98 -32 49 17 c 132,-1,3
 0 66 0 66 0 136 c 6,4,-1
 0 1368 l 6,5,6
 0 1438 0 1438 49 1487 c 132,-1,7
 98 1536 98 1536 168 1536 c 6,8,-1
 1624 1536 l 6,9,10
 1694 1536 1694 1536 1743 1487 c 132,-1,11
 1792 1438 1792 1438 1792 1368 c 6,12,-1
 1792 136 l 6,13,14
 1792 66 1792 66 1743 17 c 132,-1,15
 1694 -32 1694 -32 1624 -32 c 6,0,-1
448 1228 m 260,16,17
 388 1228 388 1228 348 1188 c 132,-1,18
 308 1148 308 1148 308 1088 c 132,-1,19
 308 1028 308 1028 348 988 c 132,-1,20
 388 948 388 948 448 948 c 132,-1,21
 508 948 508 948 548 988 c 132,-1,22
 588 1028 588 1028 588 1088 c 132,-1,23
 588 1148 588 1148 548 1188 c 132,-1,24
 508 1228 508 1228 448 1228 c 260,16,17
448 892 m 260,25,26
 388 892 388 892 348 852 c 132,-1,27
 308 812 308 812 308 752 c 132,-1,28
 308 692 308 692 348 652 c 132,-1,29
 388 612 388 612 448 612 c 132,-1,30
 508 612 508 612 548 652 c 132,-1,31
 588 692 588 692 588 752 c 132,-1,32
 588 812 588 812 548 852 c 132,-1,33
 508 892 508 892 448 892 c 260,25,26
448 556 m 260,34,35
 388 556 388 556 348 516 c 132,-1,36
 308 476 308 476 308 416 c 132,-1,37
 308 356 308 356 348 316 c 132,-1,38
 388 276 388 276 448 276 c 132,-1,39
 508 276 508 276 548 316 c 132,-1,40
 588 356 588 356 588 416 c 132,-1,41
 588 476 588 476 548 516 c 132,-1,42
 508 556 508 556 448 556 c 260,34,35
1456 1032 m 6,43,-1
 1456 1144 l 6,44,45
 1456 1162 1456 1162 1444 1174 c 132,-1,46
 1432 1186 1432 1186 1414 1186 c 6,47,-1
 714 1186 l 6,48,49
 696 1186 696 1186 684 1174 c 132,-1,50
 672 1162 672 1162 672 1144 c 6,51,-1
 672 1032 l 6,52,53
 672 1014 672 1014 684 1002 c 132,-1,54
 696 990 696 990 714 990 c 6,55,-1
 1414 990 l 6,56,57
 1432 990 1432 990 1444 1002 c 132,-1,58
 1456 1014 1456 1014 1456 1032 c 6,43,-1
1456 696 m 6,59,-1
 1456 808 l 6,60,61
 1456 826 1456 826 1444 838 c 132,-1,62
 1432 850 1432 850 1414 850 c 6,63,-1
 714 850 l 6,64,65
 696 850 696 850 684 838 c 132,-1,66
 672 826 672 826 672 808 c 6,67,-1
 672 696 l 6,68,69
 672 678 672 678 684 666 c 132,-1,70
 696 654 696 654 714 654 c 6,71,-1
 1414 654 l 6,72,73
 1432 654 1432 654 1444 666 c 132,-1,74
 1456 678 1456 678 1456 696 c 6,59,-1
1456 360 m 6,75,-1
 1456 472 l 6,76,77
 1456 490 1456 490 1444 502 c 132,-1,78
 1432 514 1432 514 1414 514 c 6,79,-1
 714 514 l 6,80,81
 696 514 696 514 684 502 c 132,-1,82
 672 490 672 490 672 472 c 6,83,-1
 672 360 l 6,84,85
 672 342 672 342 684 330 c 132,-1,86
 696 318 696 318 714 318 c 6,87,-1
 1414 318 l 6,88,89
 1432 318 1432 318 1444 330 c 132,-1,90
 1456 342 1456 342 1456 360 c 6,75,-1
EndSplineSet
Validated: 1
EndChar

StartChar: uniEAA6
Encoding: 60070 60070 73
Width: 1792
Flags: W
LayerCount: 3
Fore
SplineSet
1680.79980469 143.400390625 m 6,0,-1
 1365.79980469 458.400390625 l 6,1,2
 1344.20019531 480 1344.20019531 480 1311.79980469 480 c 6,3,-1
 1261.40039062 480 l 5,4,5
 1400 656.400390625 1400 656.400390625 1400 883.200195312 c 4,6,7
 1400 1063.20019531 1400 1063.20019531 1311.79980469 1212.59960938 c 132,-1,8
 1223.59960938 1362 1223.59960938 1362 1074.20019531 1450.20019531 c 132,-1,9
 924.799804688 1538.40039062 924.799804688 1538.40039062 744.799804688 1538.40039062 c 132,-1,10
 564.799804688 1538.40039062 564.799804688 1538.40039062 415.400390625 1450.20019531 c 132,-1,11
 266 1362 266 1362 177.799804688 1212.59960938 c 132,-1,12
 89.599609375 1063.20019531 89.599609375 1063.20019531 89.599609375 883.200195312 c 132,-1,13
 89.599609375 703.200195312 89.599609375 703.200195312 177.799804688 553.799804688 c 132,-1,14
 266 404.400390625 266 404.400390625 415.400390625 316.200195312 c 132,-1,15
 564.799804688 228 564.799804688 228 744.799804688 228 c 4,16,17
 971.599609375 228 971.599609375 228 1148 366.599609375 c 5,18,-1
 1148 316.200195312 l 6,19,20
 1148 283.799804688 1148 283.799804688 1169.59960938 262.200195312 c 6,21,-1
 1484.59960938 -52.7998046875 l 6,22,23
 1506.20019531 -74.400390625 1506.20019531 -74.400390625 1538.15039062 -74.400390625 c 4,24,25
 1571 -74.400390625 1571 -74.400390625 1592.59960938 -52.7998046875 c 6,26,-1
 1680.79980469 35.400390625 l 6,27,28
 1702.40039062 57 1702.40039062 57 1702.40039062 89.400390625 c 132,-1,29
 1702.40039062 121.799804688 1702.40039062 121.799804688 1680.79980469 143.400390625 c 6,0,-1
744.799804688 480 m 260,30,31
 635 480 635 480 541.849609375 533.549804688 c 132,-1,32
 448.700195312 587.099609375 448.700195312 587.099609375 395.150390625 680.25 c 132,-1,33
 341.599609375 773.400390625 341.599609375 773.400390625 341.599609375 883.200195312 c 132,-1,34
 341.599609375 993 341.599609375 993 395.150390625 1086.15039062 c 132,-1,35
 448.700195312 1179.29980469 448.700195312 1179.29980469 541.849609375 1232.84960938 c 132,-1,36
 635 1286.40039062 635 1286.40039062 744.799804688 1286.40039062 c 132,-1,37
 854.599609375 1286.40039062 854.599609375 1286.40039062 947.75 1232.84960938 c 132,-1,38
 1040.90039062 1179.29980469 1040.90039062 1179.29980469 1094.45019531 1086.15039062 c 132,-1,39
 1148 993 1148 993 1148 883.200195312 c 132,-1,40
 1148 773.400390625 1148 773.400390625 1094.45019531 680.25 c 132,-1,41
 1040.90039062 587.099609375 1040.90039062 587.099609375 947.75 533.549804688 c 132,-1,42
 854.599609375 480 854.599609375 480 744.799804688 480 c 260,30,31
EndSplineSet
Validated: 9
EndChar

StartChar: uniEAA7
Encoding: 60071 60071 74
Width: 1568
Flags: W
LayerCount: 3
Fore
SplineSet
56 1196 m 6,0,-1
 1512 1196 l 6,1,2
 1536 1196 1536 1196 1552 1212 c 132,-1,3
 1568 1228 1568 1228 1568 1252 c 6,4,-1
 1568 1392 l 6,5,6
 1568 1416 1568 1416 1552 1432 c 132,-1,7
 1536 1448 1536 1448 1512 1448 c 6,8,-1
 56 1448 l 6,9,10
 32 1448 32 1448 16 1432 c 132,-1,11
 0 1416 0 1416 0 1392 c 6,12,-1
 0 1252 l 6,13,14
 0 1228 0 1228 16 1212 c 132,-1,15
 32 1196 32 1196 56 1196 c 6,0,-1
56 636 m 6,16,-1
 1512 636 l 6,17,18
 1536 636 1536 636 1552 652 c 132,-1,19
 1568 668 1568 668 1568 692 c 6,20,-1
 1568 832 l 6,21,22
 1568 856 1568 856 1552 872 c 132,-1,23
 1536 888 1536 888 1512 888 c 6,24,-1
 56 888 l 6,25,26
 32 888 32 888 16 872 c 132,-1,27
 0 856 0 856 0 832 c 6,28,-1
 0 692 l 6,29,30
 0 668 0 668 16 652 c 132,-1,31
 32 636 32 636 56 636 c 6,16,-1
56 76 m 6,32,-1
 1512 76 l 6,33,34
 1536 76 1536 76 1552 92 c 132,-1,35
 1568 108 1568 108 1568 132 c 6,36,-1
 1568 272 l 6,37,38
 1568 296 1568 296 1552 312 c 132,-1,39
 1536 328 1536 328 1512 328 c 6,40,-1
 56 328 l 6,41,42
 32 328 32 328 16 312 c 132,-1,43
 0 296 0 296 0 272 c 6,44,-1
 0 132 l 6,45,46
 0 108 0 108 16 92 c 132,-1,47
 32 76 32 76 56 76 c 6,32,-1
EndSplineSet
Validated: 9
EndChar

StartChar: uniEAA8
Encoding: 60072 60072 75
Width: 2240
Flags: W
LayerCount: 3
Fore
SplineSet
990.400390625 -40.599609375 m 6,0,-1
 798.700195312 12.5 l 6,1,2
 782.5 18.7998046875 782.5 18.7998046875 774.849609375 31.400390625 c 132,-1,3
 767.200195312 44 767.200195312 44 773.5 60.2001953125 c 6,4,-1
 1201.90039062 1539.79980469 l 6,5,6
 1208.20019531 1556 1208.20019531 1556 1220.79980469 1564.09960938 c 132,-1,7
 1233.40039062 1572.20019531 1233.40039062 1572.20019531 1249.59960938 1568.59960938 c 6,8,-1
 1441.29980469 1511.90039062 l 6,9,10
 1457.5 1505.59960938 1457.5 1505.59960938 1465.15039062 1493 c 132,-1,11
 1472.79980469 1480.40039062 1472.79980469 1480.40039062 1466.5 1464.20019531 c 6,12,-1
 1038.09960938 -15.400390625 l 6,13,14
 1031.79980469 -31.599609375 1031.79980469 -31.599609375 1019.20019531 -39.25 c 132,-1,15
 1006.59960938 -46.900390625 1006.59960938 -46.900390625 990.400390625 -40.599609375 c 6,0,-1
632.200195312 312.200195312 m 6,16,-1
 767.200195312 456.200195312 l 6,17,18
 779.799804688 468.799804688 779.799804688 468.799804688 778 485 c 132,-1,19
 776.200195312 501.200195312 776.200195312 501.200195312 767.200195312 510.200195312 c 6,20,-1
 481 762.200195312 l 5,21,-1
 767.200195312 1014.20019531 l 6,22,23
 776.200195312 1023.20019531 776.200195312 1023.20019531 778 1039.40039062 c 132,-1,24
 779.799804688 1055.59960938 779.799804688 1055.59960938 767.200195312 1068.20019531 c 6,25,-1
 632.200195312 1212.20019531 l 6,26,27
 623.200195312 1224.79980469 623.200195312 1224.79980469 607 1224.79980469 c 132,-1,28
 590.799804688 1224.79980469 590.799804688 1224.79980469 578.200195312 1215.79980469 c 6,29,-1
 124.599609375 791 l 6,30,31
 112 778.400390625 112 778.400390625 112 762.200195312 c 132,-1,32
 112 746 112 746 124.599609375 733.400390625 c 6,33,-1
 578.200195312 308.599609375 l 6,34,35
 590.799804688 299.599609375 590.799804688 299.599609375 607 299.599609375 c 132,-1,36
 623.200195312 299.599609375 623.200195312 299.599609375 632.200195312 312.200195312 c 6,16,-1
1661.79980469 308.599609375 m 6,37,-1
 2115.40039062 733.400390625 l 6,38,39
 2128 746 2128 746 2128 762.200195312 c 132,-1,40
 2128 778.400390625 2128 778.400390625 2115.40039062 791 c 6,41,-1
 1661.79980469 1215.79980469 l 6,42,43
 1649.20019531 1224.79980469 1649.20019531 1224.79980469 1634.79980469 1224.79980469 c 132,-1,44
 1620.40039062 1224.79980469 1620.40039062 1224.79980469 1607.79980469 1212.20019531 c 6,45,-1
 1472.79980469 1068.20019531 l 6,46,47
 1460.20019531 1055.59960938 1460.20019531 1055.59960938 1462 1039.40039062 c 132,-1,48
 1463.79980469 1023.20019531 1463.79980469 1023.20019531 1472.79980469 1014.20019531 c 6,49,-1
 1759 762.200195312 l 5,50,-1
 1472.79980469 510.200195312 l 6,51,52
 1463.79980469 501.200195312 1463.79980469 501.200195312 1462 485 c 132,-1,53
 1460.20019531 468.799804688 1460.20019531 468.799804688 1472.79980469 456.200195312 c 6,54,-1
 1607.79980469 312.200195312 l 6,55,56
 1616.79980469 299.599609375 1616.79980469 299.599609375 1633 299.599609375 c 132,-1,57
 1649.20019531 299.599609375 1649.20019531 299.599609375 1661.79980469 308.599609375 c 6,37,-1
EndSplineSet
Validated: 9
EndChar

StartChar: uniEAA9
Encoding: 60073 60073 76
Width: 1792
Flags: W
LayerCount: 3
Fore
SplineSet
1047.20019531 259.5 m 6,0,1
 1059.79980469 250.5 1059.79980469 250.5 1059.79980469 234.75 c 132,-1,2
 1059.79980469 219 1059.79980469 219 1047.20019531 206.400390625 c 6,3,-1
 905 64.2001953125 l 6,4,5
 813.200195312 -27.599609375 813.200195312 -27.599609375 690.799804688 -59.099609375 c 132,-1,6
 568.400390625 -90.599609375 568.400390625 -90.599609375 445.549804688 -59.099609375 c 132,-1,7
 322.700195312 -27.599609375 322.700195312 -27.599609375 229.549804688 65.5498046875 c 132,-1,8
 136.400390625 158.700195312 136.400390625 158.700195312 104.900390625 281.549804688 c 132,-1,9
 73.400390625 404.400390625 73.400390625 404.400390625 104.900390625 527.25 c 4,10,11
 136.400390625 649.200195312 136.400390625 649.200195312 228.200195312 741 c 6,12,-1
 370.400390625 883.200195312 l 6,13,14
 383 895.799804688 383 895.799804688 398.299804688 895.799804688 c 132,-1,15
 413.599609375 895.799804688 413.599609375 895.799804688 423.5 883.200195312 c 6,16,-1
 549.5 757.200195312 l 6,17,18
 558.5 748.200195312 558.5 748.200195312 558.950195312 732 c 132,-1,19
 559.400390625 715.799804688 559.400390625 715.799804688 549.5 706.799804688 c 6,20,-1
 408.200195312 564.599609375 l 6,21,22
 341.599609375 498 341.599609375 498 341.599609375 403.950195312 c 132,-1,23
 341.599609375 309.900390625 341.599609375 309.900390625 407.75 243.75 c 132,-1,24
 473.900390625 177.599609375 473.900390625 177.599609375 568.400390625 177.599609375 c 4,25,26
 662 177.599609375 662 177.599609375 728.599609375 244.200195312 c 6,27,-1
 870.799804688 385.5 l 6,28,29
 879.799804688 394.5 879.799804688 394.5 896 394.950195312 c 132,-1,30
 912.200195312 395.400390625 912.200195312 395.400390625 921.200195312 385.5 c 6,31,-1
 1047.20019531 259.5 l 6,0,1
870.799804688 1078.5 m 6,32,33
 879.799804688 1069.5 879.799804688 1069.5 896 1069.04980469 c 132,-1,34
 912.200195312 1068.59960938 912.200195312 1068.59960938 921.200195312 1078.5 c 6,35,-1
 1063.40039062 1219.79980469 l 6,36,37
 1130 1286.40039062 1130 1286.40039062 1224.04980469 1286.40039062 c 132,-1,38
 1318.09960938 1286.40039062 1318.09960938 1286.40039062 1384.25 1220.25 c 132,-1,39
 1450.40039062 1154.09960938 1450.40039062 1154.09960938 1450.40039062 1059.59960938 c 4,40,41
 1450.40039062 966 1450.40039062 966 1383.79980469 899.400390625 c 6,42,-1
 1242.5 757.200195312 l 6,43,44
 1233.5 748.200195312 1233.5 748.200195312 1233.04980469 732 c 132,-1,45
 1232.59960938 715.799804688 1232.59960938 715.799804688 1242.5 706.799804688 c 6,46,-1
 1368.5 580.799804688 l 6,47,48
 1377.5 568.200195312 1377.5 568.200195312 1393.25 568.200195312 c 132,-1,49
 1409 568.200195312 1409 568.200195312 1421.59960938 580.799804688 c 6,50,-1
 1563.79980469 723 l 6,51,52
 1655.59960938 814.799804688 1655.59960938 814.799804688 1687.09960938 937.200195312 c 132,-1,53
 1718.59960938 1059.59960938 1718.59960938 1059.59960938 1687.09960938 1182.45019531 c 132,-1,54
 1655.59960938 1305.29980469 1655.59960938 1305.29980469 1562.45019531 1398.45019531 c 132,-1,55
 1469.29980469 1491.59960938 1469.29980469 1491.59960938 1346.45019531 1523.09960938 c 132,-1,56
 1223.59960938 1554.59960938 1223.59960938 1554.59960938 1100.75 1523.09960938 c 4,57,58
 978.799804688 1491.59960938 978.799804688 1491.59960938 887 1399.79980469 c 6,59,-1
 744.799804688 1257.59960938 l 6,60,61
 732.200195312 1245 732.200195312 1245 732.200195312 1229.70019531 c 132,-1,62
 732.200195312 1214.40039062 732.200195312 1214.40039062 744.799804688 1204.5 c 6,63,-1
 870.799804688 1078.5 l 6,32,33
1607.90039062 -52.7998046875 m 6,64,-1
 1680.79980469 20.099609375 l 6,65,66
 1702.40039062 41.7001953125 1702.40039062 41.7001953125 1702.40039062 73.650390625 c 132,-1,67
 1702.40039062 105.599609375 1702.40039062 105.599609375 1680.79980469 127.200195312 c 6,68,-1
 291.200195312 1516.79980469 l 6,69,70
 269.599609375 1538.40039062 269.599609375 1538.40039062 238.099609375 1538.40039062 c 132,-1,71
 206.599609375 1538.40039062 206.599609375 1538.40039062 184.099609375 1516.79980469 c 6,72,-1
 111.200195312 1443.90039062 l 6,73,74
 89.599609375 1422.29980469 89.599609375 1422.29980469 89.599609375 1390.34960938 c 132,-1,75
 89.599609375 1358.40039062 89.599609375 1358.40039062 111.200195312 1336.79980469 c 6,76,-1
 1500.79980469 -52.7998046875 l 6,77,78
 1522.40039062 -74.400390625 1522.40039062 -74.400390625 1554.34960938 -74.400390625 c 132,-1,79
 1586.29980469 -74.400390625 1586.29980469 -74.400390625 1607.90039062 -52.7998046875 c 6,64,-1
EndSplineSet
Validated: 41
EndChar

StartChar: uniEAAA
Encoding: 60074 60074 77
Width: 2016
Flags: W
LayerCount: 3
Fore
SplineSet
916.224609375 1481.52539062 m 6,0,-1
 711.924804688 1065.72460938 l 5,1,-1
 252.025390625 1000.02539062 l 6,2,3
 210.625 993.724609375 210.625 993.724609375 187.224609375 961.775390625 c 132,-1,4
 163.825195312 929.825195312 163.825195312 929.825195312 165.625 892.025390625 c 132,-1,5
 167.424804688 854.224609375 167.424804688 854.224609375 195.325195312 826.325195312 c 6,6,-1
 529.224609375 501.424804688 l 5,7,-1
 450.025390625 42.4248046875 l 6,8,9
 443.724609375 4.625 443.724609375 4.625 464.424804688 -28.6748046875 c 132,-1,10
 485.125 -61.974609375 485.125 -61.974609375 522.924804688 -71.4248046875 c 4,11,12
 561.625 -80.875 561.625 -80.875 595.825195312 -61.974609375 c 6,13,-1
 1008.02539062 152.224609375 l 5,14,-1
 1420.22460938 -61.974609375 l 6,15,16
 1454.42480469 -80.875 1454.42480469 -80.875 1492.67480469 -71.4248046875 c 132,-1,17
 1530.92480469 -61.974609375 1530.92480469 -61.974609375 1551.17480469 -28.6748046875 c 132,-1,18
 1571.42480469 4.625 1571.42480469 4.625 1566.02539062 42.4248046875 c 6,19,-1
 1486.82519531 501.424804688 l 5,20,-1
 1820.72460938 826.325195312 l 6,21,22
 1849.52539062 855.125 1849.52539062 855.125 1850.875 892.474609375 c 132,-1,23
 1852.22460938 929.825195312 1852.22460938 929.825195312 1828.82519531 961.325195312 c 132,-1,24
 1805.42480469 992.825195312 1805.42480469 992.825195312 1764.02539062 1000.02539062 c 6,25,-1
 1304.125 1065.72460938 l 5,26,-1
 1099.82519531 1481.52539062 l 6,27,28
 1080.92480469 1519.32519531 1080.92480469 1519.32519531 1044.47460938 1531.92480469 c 132,-1,29
 1008.02539062 1544.52539062 1008.02539062 1544.52539062 971.575195312 1531.92480469 c 132,-1,30
 935.125 1519.32519531 935.125 1519.32519531 916.224609375 1481.52539062 c 6,0,-1
EndSplineSet
Validated: 41
EndChar

StartChar: uniEAAB
Encoding: 60075 60075 78
Width: 1792
Flags: W
LayerCount: 3
Fore
SplineSet
320 1410 m 4,0,1
 320 1338 320 1338 256 1300 c 5,2,-1
 256 34 l 6,3,4
 256 21 256 21 246.5 11.5 c 132,-1,5
 237 2 237 2 224 2 c 6,6,-1
 160 2 l 6,7,8
 147 2 147 2 137.5 11.5 c 132,-1,9
 128 21 128 21 128 34 c 6,10,-1
 128 1300 l 5,11,12
 64 1338 64 1338 64 1410 c 4,13,14
 64 1463 64 1463 101.5 1500.5 c 132,-1,15
 139 1538 139 1538 192 1538 c 132,-1,16
 245 1538 245 1538 282.5 1500.5 c 132,-1,17
 320 1463 320 1463 320 1410 c 4,0,1
1792 1346 m 6,18,-1
 1792 583 l 6,19,20
 1792 558 1792 558 1779.5 544.5 c 132,-1,21
 1767 531 1767 531 1740 517 c 4,22,23
 1525 401 1525 401 1371 401 c 4,24,25
 1310 401 1310 401 1247.5 423 c 132,-1,26
 1185 445 1185 445 1139 471 c 132,-1,27
 1093 497 1093 497 1023.5 519 c 132,-1,28
 954 541 954 541 881 541 c 4,29,30
 689 541 689 541 417 395 c 4,31,32
 400 386 400 386 384 386 c 4,33,34
 358 386 358 386 339 405 c 132,-1,35
 320 424 320 424 320 450 c 6,36,-1
 320 1192 l 6,37,38
 320 1224 320 1224 351 1247 c 5,39,40
 372 1261 372 1261 430 1290 c 4,41,42
 666 1410 666 1410 851 1410 c 4,43,44
 958 1410 958 1410 1051 1381 c 132,-1,45
 1144 1352 1144 1352 1270 1293 c 5,46,47
 1308 1274 1308 1274 1358 1274 c 4,48,49
 1412 1274 1412 1274 1475.5 1295 c 132,-1,50
 1539 1316 1539 1316 1585.5 1342 c 132,-1,51
 1632 1368 1632 1368 1673.5 1389 c 132,-1,52
 1715 1410 1715 1410 1728 1410 c 4,53,54
 1754 1410 1754 1410 1773 1391 c 132,-1,55
 1792 1372 1792 1372 1792 1346 c 6,18,-1
EndSplineSet
EndChar

StartChar: uniEAAC
Encoding: 60076 60076 79
Width: 1792
Flags: W
LayerCount: 3
Fore
SplineSet
1664 621 m 5,0,-1
 1664 1237 l 5,1,2
 1495 1146 1495 1146 1358 1146 c 4,3,4
 1276 1146 1276 1146 1213 1178 c 5,5,6
 1113 1227 1113 1227 1029 1254.5 c 132,-1,7
 945 1282 945 1282 851 1282 c 4,8,9
 678 1282 678 1282 448 1155 c 5,10,-1
 448 556 l 5,11,12
 693 669 693 669 881 669 c 4,13,14
 936 669 936 669 984.5 661.5 c 132,-1,15
 1033 654 1033 654 1082.5 635.5 c 132,-1,16
 1132 617 1132 617 1159.5 604.5 c 132,-1,17
 1187 592 1187 592 1242 565 c 6,18,-1
 1270 551 l 6,19,20
 1314 529 1314 529 1371 529 c 4,21,22
 1491 529 1491 529 1664 621 c 5,0,-1
320 1410 m 4,23,24
 320 1375 320 1375 302.5 1346 c 132,-1,25
 285 1317 285 1317 256 1300 c 5,26,-1
 256 34 l 6,27,28
 256 20 256 20 247 11 c 132,-1,29
 238 2 238 2 224 2 c 6,30,-1
 160 2 l 6,31,32
 146 2 146 2 137 11 c 132,-1,33
 128 20 128 20 128 34 c 6,34,-1
 128 1300 l 5,35,36
 99 1317 99 1317 81.5 1346 c 132,-1,37
 64 1375 64 1375 64 1410 c 4,38,39
 64 1463 64 1463 101.5 1500.5 c 132,-1,40
 139 1538 139 1538 192 1538 c 132,-1,41
 245 1538 245 1538 282.5 1500.5 c 132,-1,42
 320 1463 320 1463 320 1410 c 4,23,24
1792 1346 m 6,43,-1
 1792 583 l 6,44,45
 1792 544 1792 544 1757 526 c 4,46,47
 1747 521 1747 521 1740 517 c 4,48,49
 1522 401 1522 401 1371 401 c 4,50,51
 1283 401 1283 401 1213 436 c 6,52,-1
 1185 450 l 6,53,54
 1121 483 1121 483 1086 498 c 132,-1,55
 1051 513 1051 513 995 527 c 132,-1,56
 939 541 939 541 881 541 c 4,57,58
 779 541 779 541 645.5 497 c 132,-1,59
 512 453 512 453 417 395 c 4,60,61
 402 386 402 386 384 386 c 4,62,63
 368 386 368 386 352 394 c 5,64,65
 320 413 320 413 320 450 c 6,66,-1
 320 1192 l 6,67,68
 320 1227 320 1227 351 1247 c 5,69,70
 386 1268 386 1268 429.5 1289.5 c 132,-1,71
 473 1311 473 1311 543.5 1341.5 c 132,-1,72
 614 1372 614 1372 696 1391 c 132,-1,73
 778 1410 778 1410 851 1410 c 4,74,75
 963 1410 963 1410 1060 1379 c 132,-1,76
 1157 1348 1157 1348 1269 1293 c 4,77,78
 1307 1274 1307 1274 1358 1274 c 4,79,80
 1480 1274 1480 1274 1668 1386 c 4,81,82
 1690 1398 1690 1398 1699 1403 c 4,83,84
 1730 1419 1730 1419 1761 1401 c 5,85,86
 1792 1381 1792 1381 1792 1346 c 6,43,-1
EndSplineSet
EndChar

StartChar: uniEAAD
Encoding: 60077 60077 80
Width: 1344
Flags: W
LayerCount: 3
Fore
SplineSet
784 1176 m 6,0,1
 784 1141 784 1141 808.5 1116.5 c 132,-1,2
 833 1092 833 1092 868 1092 c 6,3,-1
 1344 1092 l 5,4,-1
 1344 -56 l 6,5,6
 1344 -91 1344 -91 1319.5 -115.5 c 132,-1,7
 1295 -140 1295 -140 1260 -140 c 6,8,-1
 84 -140 l 6,9,10
 49 -140 49 -140 24.5 -115.5 c 132,-1,11
 0 -91 0 -91 0 -56 c 6,12,-1
 0 1568 l 6,13,14
 0 1603 0 1603 24.5 1627.5 c 132,-1,15
 49 1652 49 1652 84 1652 c 6,16,-1
 784 1652 l 5,17,-1
 784 1176 l 6,0,1
1008 350 m 6,18,-1
 1008 378 l 6,19,20
 1008 420 1008 420 966 420 c 6,21,-1
 378 420 l 6,22,23
 336 420 336 420 336 378 c 6,24,-1
 336 350 l 6,25,26
 336 308 336 308 378 308 c 6,27,-1
 966 308 l 6,28,29
 1008 308 1008 308 1008 350 c 6,18,-1
1008 574 m 6,30,-1
 1008 602 l 6,31,32
 1008 644 1008 644 966 644 c 6,33,-1
 378 644 l 6,34,35
 336 644 336 644 336 602 c 6,36,-1
 336 574 l 6,37,38
 336 532 336 532 378 532 c 6,39,-1
 966 532 l 6,40,41
 1008 532 1008 532 1008 574 c 6,30,-1
1008 826 m 6,42,43
 1008 868 1008 868 966 868 c 6,44,-1
 378 868 l 6,45,46
 336 868 336 868 336 826 c 6,47,-1
 336 798 l 6,48,49
 336 756 336 756 378 756 c 6,50,-1
 966 756 l 6,51,52
 1008 756 1008 756 1008 798 c 6,53,-1
 1008 826 l 6,42,43
1344 1225 m 6,54,-1
 1344 1204 l 5,55,-1
 896 1204 l 5,56,-1
 896 1652 l 5,57,-1
 917 1652 l 6,58,59
 952 1652 952 1652 976 1628 c 6,60,-1
 1320 1284 l 6,61,62
 1344 1260 1344 1260 1344 1225 c 6,54,-1
EndSplineSet
EndChar

StartChar: uniEAAE
Encoding: 60078 60078 81
Width: 1536
Flags: W
LayerCount: 3
Fore
SplineSet
755 610 m 132,-1,1
 755 597 755 597 745 587 c 6,2,-1
 413 255 l 5,3,-1
 557 111 l 6,4,5
 576 92 576 92 576 66 c 132,-1,6
 576 40 576 40 557 21 c 132,-1,7
 538 2 538 2 512 2 c 6,8,-1
 64 2 l 6,9,10
 38 2 38 2 19 21 c 132,-1,11
 0 40 0 40 0 66 c 6,12,-1
 0 514 l 6,13,14
 0 540 0 540 19 559 c 132,-1,15
 38 578 38 578 64 578 c 132,-1,16
 90 578 90 578 109 559 c 6,17,-1
 253 415 l 5,18,-1
 585 747 l 6,19,20
 595 757 595 757 608 757 c 132,-1,21
 621 757 621 757 631 747 c 6,22,-1
 745 633 l 6,23,0
 755 623 755 623 755 610 c 132,-1,1
1536 1474 m 6,24,-1
 1536 1026 l 6,25,26
 1536 1000 1536 1000 1517 981 c 132,-1,27
 1498 962 1498 962 1472 962 c 132,-1,28
 1446 962 1446 962 1427 981 c 6,29,-1
 1283 1125 l 5,30,-1
 951 793 l 6,31,32
 941 783 941 783 928 783 c 132,-1,33
 915 783 915 783 905 793 c 6,34,-1
 791 907 l 6,35,36
 781 917 781 917 781 930 c 132,-1,37
 781 943 781 943 791 953 c 6,38,-1
 1123 1285 l 5,39,-1
 979 1429 l 6,40,41
 960 1448 960 1448 960 1474 c 132,-1,42
 960 1500 960 1500 979 1519 c 132,-1,43
 998 1538 998 1538 1024 1538 c 6,44,-1
 1472 1538 l 6,45,46
 1498 1538 1498 1538 1517 1519 c 132,-1,47
 1536 1500 1536 1500 1536 1474 c 6,24,-1
EndSplineSet
Validated: 1
EndChar

StartChar: uniEAAF
Encoding: 60079 60079 82
Width: 2016
Flags: W
LayerCount: 3
Fore
SplineSet
2016 798 m 260,0,1
 2016 598 2016 598 1881 432 c 132,-1,2
 1746 266 1746 266 1513.5 168 c 132,-1,3
 1281 70 1281 70 1008 70 c 4,4,5
 760 70 760 70 539 154 c 5,6,7
 325 -14 325 -14 42 -42 c 4,8,9
 28 -42 28 -42 16 -35 c 132,-1,10
 4 -28 4 -28 0 -14 c 132,-1,11
 -4 0 -4 0 21 24 c 6,12,-1
 49 49 l 6,13,14
 112 104 112 104 140 150 c 4,15,16
 186 230 186 230 206 357 c 5,17,18
 108 451 108 451 54 563.5 c 132,-1,19
 0 676 0 676 0 798 c 4,20,21
 0 998 0 998 136.5 1164 c 132,-1,22
 273 1330 273 1330 504 1428 c 132,-1,23
 735 1526 735 1526 1008 1526 c 132,-1,24
 1281 1526 1281 1526 1512 1428 c 132,-1,25
 1743 1330 1743 1330 1879.5 1164 c 132,-1,26
 2016 998 2016 998 2016 798 c 260,0,1
EndSplineSet
Validated: 1
EndChar

StartChar: uniEAB0
Encoding: 60080 60080 83
Width: 1792
Flags: W
LayerCount: 3
Fore
SplineSet
896 1533.20019531 m 260,0,1
 685.400390625 1533.20019531 685.400390625 1533.20019531 505.400390625 1427.90039062 c 132,-1,2
 325.400390625 1322.59960938 325.400390625 1322.59960938 220.099609375 1142.59960938 c 132,-1,3
 114.799804688 962.599609375 114.799804688 962.599609375 114.799804688 752 c 132,-1,4
 114.799804688 541.400390625 114.799804688 541.400390625 220.099609375 361.400390625 c 132,-1,5
 325.400390625 181.400390625 325.400390625 181.400390625 505.400390625 76.099609375 c 132,-1,6
 685.400390625 -29.2001953125 685.400390625 -29.2001953125 896 -29.2001953125 c 132,-1,7
 1106.59960938 -29.2001953125 1106.59960938 -29.2001953125 1286.59960938 76.099609375 c 132,-1,8
 1466.59960938 181.400390625 1466.59960938 181.400390625 1571.90039062 361.400390625 c 132,-1,9
 1677.20019531 541.400390625 1677.20019531 541.400390625 1677.20019531 752 c 132,-1,10
 1677.20019531 962.599609375 1677.20019531 962.599609375 1571.90039062 1142.59960938 c 132,-1,11
 1466.59960938 1322.59960938 1466.59960938 1322.59960938 1286.59960938 1427.90039062 c 132,-1,12
 1106.59960938 1533.20019531 1106.59960938 1533.20019531 896 1533.20019531 c 260,0,1
1305.5 1161.5 m 260,13,14
 1406.29980469 1060.70019531 1406.29980469 1060.70019531 1447.25 929.75 c 132,-1,15
 1488.20019531 798.799804688 1488.20019531 798.799804688 1467.5 663.799804688 c 132,-1,16
 1446.79980469 528.799804688 1446.79980469 528.799804688 1371.20019531 418.099609375 c 5,17,-1
 562.099609375 1227.20019531 l 5,18,19
 671.900390625 1302.79980469 671.900390625 1302.79980469 807.349609375 1323.5 c 132,-1,20
 942.799804688 1344.20019531 942.799804688 1344.20019531 1073.75 1303.25 c 132,-1,21
 1204.70019531 1262.29980469 1204.70019531 1262.29980469 1305.5 1161.5 c 260,13,14
486.5 342.5 m 260,22,23
 385.700195312 443.299804688 385.700195312 443.299804688 344.75 574.25 c 132,-1,24
 303.799804688 705.200195312 303.799804688 705.200195312 324.5 840.200195312 c 132,-1,25
 345.200195312 975.200195312 345.200195312 975.200195312 420.799804688 1085.90039062 c 5,26,-1
 1229.90039062 276.799804688 l 5,27,28
 1120.09960938 201.200195312 1120.09960938 201.200195312 984.650390625 180.5 c 132,-1,29
 849.200195312 159.799804688 849.200195312 159.799804688 718.25 200.75 c 132,-1,30
 587.299804688 241.700195312 587.299804688 241.700195312 486.5 342.5 c 260,22,23
EndSplineSet
Validated: 41
EndChar

StartChar: uniEAB1
Encoding: 60081 60081 84
Width: 1792
Flags: W
LayerCount: 3
Fore
SplineSet
896 1543.20019531 m 260,0,1
 685.400390625 1543.20019531 685.400390625 1543.20019531 505.400390625 1437.90039062 c 132,-1,2
 325.400390625 1332.59960938 325.400390625 1332.59960938 220.099609375 1152.59960938 c 132,-1,3
 114.799804688 972.599609375 114.799804688 972.599609375 114.799804688 762 c 132,-1,4
 114.799804688 551.400390625 114.799804688 551.400390625 220.099609375 371.400390625 c 132,-1,5
 325.400390625 191.400390625 325.400390625 191.400390625 505.400390625 86.099609375 c 132,-1,6
 685.400390625 -19.2001953125 685.400390625 -19.2001953125 896 -19.2001953125 c 132,-1,7
 1106.59960938 -19.2001953125 1106.59960938 -19.2001953125 1286.59960938 86.099609375 c 132,-1,8
 1466.59960938 191.400390625 1466.59960938 191.400390625 1571.90039062 371.400390625 c 132,-1,9
 1677.20019531 551.400390625 1677.20019531 551.400390625 1677.20019531 762 c 132,-1,10
 1677.20019531 972.599609375 1677.20019531 972.599609375 1571.90039062 1152.59960938 c 132,-1,11
 1466.59960938 1332.59960938 1466.59960938 1332.59960938 1286.59960938 1437.90039062 c 132,-1,12
 1106.59960938 1543.20019531 1106.59960938 1543.20019531 896 1543.20019531 c 260,0,1
1076 440.700195312 m 6,13,-1
 798.799804688 642.299804688 l 6,14,15
 782.599609375 654.900390625 782.599609375 654.900390625 782.599609375 673.799804688 c 6,16,-1
 782.599609375 1203 l 6,17,18
 782.599609375 1219.20019531 782.599609375 1219.20019531 793.400390625 1230 c 132,-1,19
 804.200195312 1240.79980469 804.200195312 1240.79980469 820.400390625 1240.79980469 c 6,20,-1
 971.599609375 1240.79980469 l 6,21,22
 987.799804688 1240.79980469 987.799804688 1240.79980469 998.599609375 1230 c 132,-1,23
 1009.40039062 1219.20019531 1009.40039062 1219.20019531 1009.40039062 1203 c 6,24,-1
 1009.40039062 768.299804688 l 5,25,-1
 1211 623.400390625 l 6,26,27
 1223.59960938 614.400390625 1223.59960938 614.400390625 1225.40039062 598.200195312 c 132,-1,28
 1227.20019531 582 1227.20019531 582 1217.29980469 569.400390625 c 6,29,-1
 1129.09960938 450.599609375 l 6,30,31
 1120.09960938 438 1120.09960938 438 1104.34960938 434.849609375 c 132,-1,32
 1088.59960938 431.700195312 1088.59960938 431.700195312 1076 440.700195312 c 6,13,-1
EndSplineSet
Validated: 9
EndChar

StartChar: uniEAB2
Encoding: 60082 60082 85
Width: 1568
Flags: W
LayerCount: 3
Fore
SplineSet
1187.20019531 550.400390625 m 4,0,1
 1080.09960938 550.400390625 1080.09960938 550.400390625 998.200195312 483.799804688 c 5,2,-1
 676.900390625 685.400390625 l 5,3,4
 689.5 752 689.5 752 676.900390625 818.599609375 c 5,5,-1
 998.200195312 1020.20019531 l 5,6,7
 1080.09960938 953.599609375 1080.09960938 953.599609375 1187.20019531 953.599609375 c 4,8,9
 1313.20019531 953.599609375 1313.20019531 953.599609375 1401.40039062 1041.79980469 c 132,-1,10
 1489.59960938 1130 1489.59960938 1130 1489.59960938 1256 c 132,-1,11
 1489.59960938 1382 1489.59960938 1382 1401.40039062 1470.20019531 c 132,-1,12
 1313.20019531 1558.40039062 1313.20019531 1558.40039062 1187.20019531 1558.40039062 c 132,-1,13
 1061.20019531 1558.40039062 1061.20019531 1558.40039062 973 1470.20019531 c 132,-1,14
 884.799804688 1382 884.799804688 1382 884.799804688 1256 c 4,15,16
 884.799804688 1221.79980469 884.799804688 1221.79980469 891.099609375 1189.40039062 c 5,17,-1
 569.799804688 987.799804688 l 5,18,19
 487.900390625 1054.40039062 487.900390625 1054.40039062 380.799804688 1054.40039062 c 4,20,21
 254.799804688 1054.40039062 254.799804688 1054.40039062 166.599609375 966.200195312 c 132,-1,22
 78.400390625 878 78.400390625 878 78.400390625 752 c 132,-1,23
 78.400390625 626 78.400390625 626 166.599609375 537.799804688 c 132,-1,24
 254.799804688 449.599609375 254.799804688 449.599609375 380.799804688 449.599609375 c 4,25,26
 487.900390625 449.599609375 487.900390625 449.599609375 569.799804688 516.200195312 c 5,27,-1
 891.099609375 314.599609375 l 5,28,29
 884.799804688 283.099609375 884.799804688 283.099609375 884.799804688 248 c 4,30,31
 884.799804688 122 884.799804688 122 973 33.7998046875 c 132,-1,32
 1061.20019531 -54.400390625 1061.20019531 -54.400390625 1187.20019531 -54.400390625 c 132,-1,33
 1313.20019531 -54.400390625 1313.20019531 -54.400390625 1401.40039062 33.7998046875 c 132,-1,34
 1489.59960938 122 1489.59960938 122 1489.59960938 248 c 132,-1,35
 1489.59960938 374 1489.59960938 374 1401.40039062 462.200195312 c 132,-1,36
 1313.20019531 550.400390625 1313.20019531 550.400390625 1187.20019531 550.400390625 c 4,0,1
EndSplineSet
Validated: 41
EndChar

StartChar: uniEAB3
Encoding: 60083 60083 86
Width: 1792
Flags: W
LayerCount: 3
Fore
SplineSet
896 1533.20019531 m 260,0,1
 685.400390625 1533.20019531 685.400390625 1533.20019531 505.400390625 1427.90039062 c 132,-1,2
 325.400390625 1322.59960938 325.400390625 1322.59960938 220.099609375 1142.59960938 c 132,-1,3
 114.799804688 962.599609375 114.799804688 962.599609375 114.799804688 752 c 132,-1,4
 114.799804688 541.400390625 114.799804688 541.400390625 220.099609375 361.400390625 c 132,-1,5
 325.400390625 181.400390625 325.400390625 181.400390625 505.400390625 76.099609375 c 132,-1,6
 685.400390625 -29.2001953125 685.400390625 -29.2001953125 896 -29.2001953125 c 132,-1,7
 1106.59960938 -29.2001953125 1106.59960938 -29.2001953125 1286.59960938 76.099609375 c 132,-1,8
 1466.59960938 181.400390625 1466.59960938 181.400390625 1571.90039062 361.400390625 c 132,-1,9
 1677.20019531 541.400390625 1677.20019531 541.400390625 1677.20019531 752 c 132,-1,10
 1677.20019531 962.599609375 1677.20019531 962.599609375 1571.90039062 1142.59960938 c 132,-1,11
 1466.59960938 1322.59960938 1466.59960938 1322.59960938 1286.59960938 1427.90039062 c 132,-1,12
 1106.59960938 1533.20019531 1106.59960938 1533.20019531 896 1533.20019531 c 260,0,1
1148 752 m 260,13,14
 1148 647.599609375 1148 647.599609375 1074.20019531 573.799804688 c 132,-1,15
 1000.40039062 500 1000.40039062 500 896 500 c 132,-1,16
 791.599609375 500 791.599609375 500 717.799804688 573.799804688 c 132,-1,17
 644 647.599609375 644 647.599609375 644 752 c 132,-1,18
 644 856.400390625 644 856.400390625 717.799804688 930.200195312 c 132,-1,19
 791.599609375 1004 791.599609375 1004 896 1004 c 132,-1,20
 1000.40039062 1004 1000.40039062 1004 1074.20019531 930.200195312 c 132,-1,21
 1148 856.400390625 1148 856.400390625 1148 752 c 260,13,14
EndSplineSet
Validated: 9
EndChar

StartChar: uniEAB4
Encoding: 60084 60084 87
Width: 1568
Flags: W
LayerCount: 3
Fore
SplineSet
1451.79980469 1044.40039062 m 6,0,-1
 116.200195312 1044.40039062 l 6,1,2
 100 1044.40039062 100 1044.40039062 89.2001953125 1055.20019531 c 132,-1,3
 78.400390625 1066 78.400390625 1066 78.400390625 1082.20019531 c 6,4,-1
 78.400390625 1195.59960938 l 6,5,6
 78.400390625 1258.59960938 78.400390625 1258.59960938 122.5 1302.70019531 c 132,-1,7
 166.599609375 1346.79980469 166.599609375 1346.79980469 229.599609375 1346.79980469 c 6,8,-1
 380.799804688 1346.79980469 l 5,9,-1
 380.799804688 1510.59960938 l 6,10,11
 380.799804688 1526.79980469 380.799804688 1526.79980469 391.599609375 1537.59960938 c 132,-1,12
 402.400390625 1548.40039062 402.400390625 1548.40039062 418.599609375 1548.40039062 c 6,13,-1
 544.599609375 1548.40039062 l 6,14,15
 560.799804688 1548.40039062 560.799804688 1548.40039062 571.599609375 1537.59960938 c 132,-1,16
 582.400390625 1526.79980469 582.400390625 1526.79980469 582.400390625 1510.59960938 c 6,17,-1
 582.400390625 1346.79980469 l 5,18,-1
 985.599609375 1346.79980469 l 5,19,-1
 985.599609375 1510.59960938 l 6,20,21
 985.599609375 1526.79980469 985.599609375 1526.79980469 996.400390625 1537.59960938 c 132,-1,22
 1007.20019531 1548.40039062 1007.20019531 1548.40039062 1023.40039062 1548.40039062 c 6,23,-1
 1149.40039062 1548.40039062 l 6,24,25
 1165.59960938 1548.40039062 1165.59960938 1548.40039062 1176.40039062 1537.59960938 c 132,-1,26
 1187.20019531 1526.79980469 1187.20019531 1526.79980469 1187.20019531 1510.59960938 c 6,27,-1
 1187.20019531 1346.79980469 l 5,28,-1
 1338.40039062 1346.79980469 l 6,29,30
 1401.40039062 1346.79980469 1401.40039062 1346.79980469 1445.5 1302.70019531 c 132,-1,31
 1489.59960938 1258.59960938 1489.59960938 1258.59960938 1489.59960938 1195.59960938 c 6,32,-1
 1489.59960938 1082.20019531 l 6,33,34
 1489.59960938 1066 1489.59960938 1066 1478.79980469 1055.20019531 c 132,-1,35
 1468 1044.40039062 1468 1044.40039062 1451.79980469 1044.40039062 c 6,0,-1
116.200195312 943.599609375 m 6,36,-1
 1451.79980469 943.599609375 l 6,37,38
 1468 943.599609375 1468 943.599609375 1478.79980469 932.799804688 c 132,-1,39
 1489.59960938 922 1489.59960938 922 1489.59960938 905.799804688 c 6,40,-1
 1489.59960938 86.7998046875 l 6,41,42
 1489.59960938 23.7998046875 1489.59960938 23.7998046875 1445.5 -20.2998046875 c 132,-1,43
 1401.40039062 -64.400390625 1401.40039062 -64.400390625 1338.40039062 -64.400390625 c 6,44,-1
 229.599609375 -64.400390625 l 6,45,46
 166.599609375 -64.400390625 166.599609375 -64.400390625 122.5 -20.2998046875 c 132,-1,47
 78.400390625 23.7998046875 78.400390625 23.7998046875 78.400390625 86.7998046875 c 6,48,-1
 78.400390625 905.799804688 l 6,49,50
 78.400390625 922 78.400390625 922 89.2001953125 932.799804688 c 132,-1,51
 100 943.599609375 100 943.599609375 116.200195312 943.599609375 c 6,36,-1
481.599609375 301 m 6,52,53
 481.599609375 317.200195312 481.599609375 317.200195312 470.799804688 328 c 132,-1,54
 460 338.799804688 460 338.799804688 443.799804688 338.799804688 c 6,55,-1
 317.799804688 338.799804688 l 6,56,57
 301.599609375 338.799804688 301.599609375 338.799804688 290.799804688 328 c 132,-1,58
 280 317.200195312 280 317.200195312 280 301 c 6,59,-1
 280 175 l 6,60,61
 280 158.799804688 280 158.799804688 290.799804688 148 c 132,-1,62
 301.599609375 137.200195312 301.599609375 137.200195312 317.799804688 137.200195312 c 6,63,-1
 443.799804688 137.200195312 l 6,64,65
 460 137.200195312 460 137.200195312 470.799804688 148 c 132,-1,66
 481.599609375 158.799804688 481.599609375 158.799804688 481.599609375 175 c 6,67,-1
 481.599609375 301 l 6,52,53
481.599609375 704.200195312 m 6,68,69
 481.599609375 720.400390625 481.599609375 720.400390625 470.799804688 731.200195312 c 132,-1,70
 460 742 460 742 443.799804688 742 c 6,71,-1
 317.799804688 742 l 6,72,73
 301.599609375 742 301.599609375 742 290.799804688 731.200195312 c 132,-1,74
 280 720.400390625 280 720.400390625 280 704.200195312 c 6,75,-1
 280 578.200195312 l 6,76,77
 280 562 280 562 290.799804688 551.200195312 c 132,-1,78
 301.599609375 540.400390625 301.599609375 540.400390625 317.799804688 540.400390625 c 6,79,-1
 443.799804688 540.400390625 l 6,80,81
 460 540.400390625 460 540.400390625 470.799804688 551.200195312 c 132,-1,82
 481.599609375 562 481.599609375 562 481.599609375 578.200195312 c 6,83,-1
 481.599609375 704.200195312 l 6,68,69
884.799804688 301 m 6,84,85
 884.799804688 317.200195312 884.799804688 317.200195312 874 328 c 132,-1,86
 863.200195312 338.799804688 863.200195312 338.799804688 847 338.799804688 c 6,87,-1
 721 338.799804688 l 6,88,89
 704.799804688 338.799804688 704.799804688 338.799804688 694 328 c 132,-1,90
 683.200195312 317.200195312 683.200195312 317.200195312 683.200195312 301 c 6,91,-1
 683.200195312 175 l 6,92,93
 683.200195312 158.799804688 683.200195312 158.799804688 694 148 c 132,-1,94
 704.799804688 137.200195312 704.799804688 137.200195312 721 137.200195312 c 6,95,-1
 847 137.200195312 l 6,96,97
 863.200195312 137.200195312 863.200195312 137.200195312 874 148 c 132,-1,98
 884.799804688 158.799804688 884.799804688 158.799804688 884.799804688 175 c 6,99,-1
 884.799804688 301 l 6,84,85
884.799804688 704.200195312 m 6,100,101
 884.799804688 720.400390625 884.799804688 720.400390625 874 731.200195312 c 132,-1,102
 863.200195312 742 863.200195312 742 847 742 c 6,103,-1
 721 742 l 6,104,105
 704.799804688 742 704.799804688 742 694 731.200195312 c 132,-1,106
 683.200195312 720.400390625 683.200195312 720.400390625 683.200195312 704.200195312 c 6,107,-1
 683.200195312 578.200195312 l 6,108,109
 683.200195312 562 683.200195312 562 694 551.200195312 c 132,-1,110
 704.799804688 540.400390625 704.799804688 540.400390625 721 540.400390625 c 6,111,-1
 847 540.400390625 l 6,112,113
 863.200195312 540.400390625 863.200195312 540.400390625 874 551.200195312 c 132,-1,114
 884.799804688 562 884.799804688 562 884.799804688 578.200195312 c 6,115,-1
 884.799804688 704.200195312 l 6,100,101
1288 301 m 6,116,117
 1288 317.200195312 1288 317.200195312 1277.20019531 328 c 132,-1,118
 1266.40039062 338.799804688 1266.40039062 338.799804688 1250.20019531 338.799804688 c 6,119,-1
 1124.20019531 338.799804688 l 6,120,121
 1108 338.799804688 1108 338.799804688 1097.20019531 328 c 132,-1,122
 1086.40039062 317.200195312 1086.40039062 317.200195312 1086.40039062 301 c 6,123,-1
 1086.40039062 175 l 6,124,125
 1086.40039062 158.799804688 1086.40039062 158.799804688 1097.20019531 148 c 132,-1,126
 1108 137.200195312 1108 137.200195312 1124.20019531 137.200195312 c 6,127,-1
 1250.20019531 137.200195312 l 6,128,129
 1266.40039062 137.200195312 1266.40039062 137.200195312 1277.20019531 148 c 132,-1,130
 1288 158.799804688 1288 158.799804688 1288 175 c 6,131,-1
 1288 301 l 6,116,117
1288 704.200195312 m 6,132,133
 1288 720.400390625 1288 720.400390625 1277.20019531 731.200195312 c 132,-1,134
 1266.40039062 742 1266.40039062 742 1250.20019531 742 c 6,135,-1
 1124.20019531 742 l 6,136,137
 1108 742 1108 742 1097.20019531 731.200195312 c 132,-1,138
 1086.40039062 720.400390625 1086.40039062 720.400390625 1086.40039062 704.200195312 c 6,139,-1
 1086.40039062 578.200195312 l 6,140,141
 1086.40039062 562 1086.40039062 562 1097.20019531 551.200195312 c 132,-1,142
 1108 540.400390625 1108 540.400390625 1124.20019531 540.400390625 c 6,143,-1
 1250.20019531 540.400390625 l 6,144,145
 1266.40039062 540.400390625 1266.40039062 540.400390625 1277.20019531 551.200195312 c 132,-1,146
 1288 562 1288 562 1288 578.200195312 c 6,147,-1
 1288 704.200195312 l 6,132,133
EndSplineSet
Validated: 1
EndChar

StartChar: uniEAB5
Encoding: 60085 60085 88
Width: 1568
Flags: W
LayerCount: 3
Fore
SplineSet
1451.79980469 1044.40039062 m 6,0,-1
 116.200195312 1044.40039062 l 6,1,2
 100 1044.40039062 100 1044.40039062 89.2001953125 1055.20019531 c 132,-1,3
 78.400390625 1066 78.400390625 1066 78.400390625 1082.20019531 c 6,4,-1
 78.400390625 1195.59960938 l 6,5,6
 78.400390625 1258.59960938 78.400390625 1258.59960938 122.5 1302.70019531 c 132,-1,7
 166.599609375 1346.79980469 166.599609375 1346.79980469 229.599609375 1346.79980469 c 6,8,-1
 380.799804688 1346.79980469 l 5,9,-1
 380.799804688 1510.59960938 l 6,10,11
 380.799804688 1526.79980469 380.799804688 1526.79980469 391.599609375 1537.59960938 c 132,-1,12
 402.400390625 1548.40039062 402.400390625 1548.40039062 418.599609375 1548.40039062 c 6,13,-1
 544.599609375 1548.40039062 l 6,14,15
 560.799804688 1548.40039062 560.799804688 1548.40039062 571.599609375 1537.59960938 c 132,-1,16
 582.400390625 1526.79980469 582.400390625 1526.79980469 582.400390625 1510.59960938 c 6,17,-1
 582.400390625 1346.79980469 l 5,18,-1
 985.599609375 1346.79980469 l 5,19,-1
 985.599609375 1510.59960938 l 6,20,21
 985.599609375 1526.79980469 985.599609375 1526.79980469 996.400390625 1537.59960938 c 132,-1,22
 1007.20019531 1548.40039062 1007.20019531 1548.40039062 1023.40039062 1548.40039062 c 6,23,-1
 1149.40039062 1548.40039062 l 6,24,25
 1165.59960938 1548.40039062 1165.59960938 1548.40039062 1176.40039062 1537.59960938 c 132,-1,26
 1187.20019531 1526.79980469 1187.20019531 1526.79980469 1187.20019531 1510.59960938 c 6,27,-1
 1187.20019531 1346.79980469 l 5,28,-1
 1338.40039062 1346.79980469 l 6,29,30
 1401.40039062 1346.79980469 1401.40039062 1346.79980469 1445.5 1302.70019531 c 132,-1,31
 1489.59960938 1258.59960938 1489.59960938 1258.59960938 1489.59960938 1195.59960938 c 6,32,-1
 1489.59960938 1082.20019531 l 6,33,34
 1489.59960938 1066 1489.59960938 1066 1478.79980469 1055.20019531 c 132,-1,35
 1468 1044.40039062 1468 1044.40039062 1451.79980469 1044.40039062 c 6,0,-1
116.200195312 943.599609375 m 6,36,-1
 1451.79980469 943.599609375 l 6,37,38
 1468 943.599609375 1468 943.599609375 1478.79980469 932.799804688 c 132,-1,39
 1489.59960938 922 1489.59960938 922 1489.59960938 905.799804688 c 6,40,-1
 1489.59960938 86.7998046875 l 6,41,42
 1489.59960938 23.7998046875 1489.59960938 23.7998046875 1445.5 -20.2998046875 c 132,-1,43
 1401.40039062 -64.400390625 1401.40039062 -64.400390625 1338.40039062 -64.400390625 c 6,44,-1
 229.599609375 -64.400390625 l 6,45,46
 166.599609375 -64.400390625 166.599609375 -64.400390625 122.5 -20.2998046875 c 132,-1,47
 78.400390625 23.7998046875 78.400390625 23.7998046875 78.400390625 86.7998046875 c 6,48,-1
 78.400390625 905.799804688 l 6,49,50
 78.400390625 922 78.400390625 922 89.2001953125 932.799804688 c 132,-1,51
 100 943.599609375 100 943.599609375 116.200195312 943.599609375 c 6,36,-1
1165.59960938 641.200195312 m 6,52,-1
 1077.40039062 729.400390625 l 6,53,54
 1068.40039062 742 1068.40039062 742 1052.20019531 742 c 132,-1,55
 1036 742 1036 742 1023.40039062 733 c 6,56,-1
 689.5 398.200195312 l 5,57,-1
 544.599609375 546.700195312 l 6,58,59
 535.599609375 555.700195312 535.599609375 555.700195312 519.400390625 556.150390625 c 132,-1,60
 503.200195312 556.599609375 503.200195312 556.599609375 490.599609375 546.700195312 c 6,61,-1
 402.400390625 458.5 l 6,62,63
 389.799804688 445.900390625 389.799804688 445.900390625 389.799804688 430.150390625 c 132,-1,64
 389.799804688 414.400390625 389.799804688 414.400390625 402.400390625 405.400390625 c 6,65,-1
 661.599609375 140.799804688 l 6,66,67
 674.200195312 131.799804688 674.200195312 131.799804688 689.5 131.349609375 c 4,68,69
 704.799804688 131.799804688 704.799804688 131.799804688 714.700195312 140.799804688 c 6,70,-1
 1165.59960938 587.200195312 l 6,71,72
 1178.20019531 599.799804688 1178.20019531 599.799804688 1178.20019531 616 c 132,-1,73
 1178.20019531 632.200195312 1178.20019531 632.200195312 1165.59960938 641.200195312 c 6,52,-1
EndSplineSet
Validated: 1
EndChar

StartChar: uniEAB6
Encoding: 60086 60086 89
Width: 1568
Flags: W
LayerCount: 3
Fore
SplineSet
1451.79980469 1044.40039062 m 6,0,-1
 116.200195312 1044.40039062 l 6,1,2
 100 1044.40039062 100 1044.40039062 89.2001953125 1055.20019531 c 132,-1,3
 78.400390625 1066 78.400390625 1066 78.400390625 1082.20019531 c 6,4,-1
 78.400390625 1195.59960938 l 6,5,6
 78.400390625 1258.59960938 78.400390625 1258.59960938 122.5 1302.70019531 c 132,-1,7
 166.599609375 1346.79980469 166.599609375 1346.79980469 229.599609375 1346.79980469 c 6,8,-1
 380.799804688 1346.79980469 l 5,9,-1
 380.799804688 1510.59960938 l 6,10,11
 380.799804688 1526.79980469 380.799804688 1526.79980469 391.599609375 1537.59960938 c 132,-1,12
 402.400390625 1548.40039062 402.400390625 1548.40039062 418.599609375 1548.40039062 c 6,13,-1
 544.599609375 1548.40039062 l 6,14,15
 560.799804688 1548.40039062 560.799804688 1548.40039062 571.599609375 1537.59960938 c 132,-1,16
 582.400390625 1526.79980469 582.400390625 1526.79980469 582.400390625 1510.59960938 c 6,17,-1
 582.400390625 1346.79980469 l 5,18,-1
 985.599609375 1346.79980469 l 5,19,-1
 985.599609375 1510.59960938 l 6,20,21
 985.599609375 1526.79980469 985.599609375 1526.79980469 996.400390625 1537.59960938 c 132,-1,22
 1007.20019531 1548.40039062 1007.20019531 1548.40039062 1023.40039062 1548.40039062 c 6,23,-1
 1149.40039062 1548.40039062 l 6,24,25
 1165.59960938 1548.40039062 1165.59960938 1548.40039062 1176.40039062 1537.59960938 c 132,-1,26
 1187.20019531 1526.79980469 1187.20019531 1526.79980469 1187.20019531 1510.59960938 c 6,27,-1
 1187.20019531 1346.79980469 l 5,28,-1
 1338.40039062 1346.79980469 l 6,29,30
 1401.40039062 1346.79980469 1401.40039062 1346.79980469 1445.5 1302.70019531 c 132,-1,31
 1489.59960938 1258.59960938 1489.59960938 1258.59960938 1489.59960938 1195.59960938 c 6,32,-1
 1489.59960938 1082.20019531 l 6,33,34
 1489.59960938 1066 1489.59960938 1066 1478.79980469 1055.20019531 c 132,-1,35
 1468 1044.40039062 1468 1044.40039062 1451.79980469 1044.40039062 c 6,0,-1
116.200195312 943.599609375 m 6,36,-1
 1451.79980469 943.599609375 l 6,37,38
 1468 943.599609375 1468 943.599609375 1478.79980469 932.799804688 c 132,-1,39
 1489.59960938 922 1489.59960938 922 1489.59960938 905.799804688 c 6,40,-1
 1489.59960938 86.7998046875 l 6,41,42
 1489.59960938 23.7998046875 1489.59960938 23.7998046875 1445.5 -20.2998046875 c 132,-1,43
 1401.40039062 -64.400390625 1401.40039062 -64.400390625 1338.40039062 -64.400390625 c 6,44,-1
 229.599609375 -64.400390625 l 6,45,46
 166.599609375 -64.400390625 166.599609375 -64.400390625 122.5 -20.2998046875 c 132,-1,47
 78.400390625 23.7998046875 78.400390625 23.7998046875 78.400390625 86.7998046875 c 6,48,-1
 78.400390625 905.799804688 l 6,49,50
 78.400390625 922 78.400390625 922 89.2001953125 932.799804688 c 132,-1,51
 100 943.599609375 100 943.599609375 116.200195312 943.599609375 c 6,36,-1
1111.59960938 502.599609375 m 6,52,53
 1111.59960938 518.799804688 1111.59960938 518.799804688 1100.79980469 529.599609375 c 132,-1,54
 1090 540.400390625 1090 540.400390625 1073.79980469 540.400390625 c 6,55,-1
 884.799804688 540.400390625 l 5,56,-1
 884.799804688 729.400390625 l 6,57,58
 884.799804688 745.599609375 884.799804688 745.599609375 874 756.400390625 c 132,-1,59
 863.200195312 767.200195312 863.200195312 767.200195312 847 767.200195312 c 6,60,-1
 721 767.200195312 l 6,61,62
 704.799804688 767.200195312 704.799804688 767.200195312 694 756.400390625 c 132,-1,63
 683.200195312 745.599609375 683.200195312 745.599609375 683.200195312 729.400390625 c 6,64,-1
 683.200195312 540.400390625 l 5,65,-1
 494.200195312 540.400390625 l 6,66,67
 478 540.400390625 478 540.400390625 467.200195312 529.599609375 c 132,-1,68
 456.400390625 518.799804688 456.400390625 518.799804688 456.400390625 502.599609375 c 6,69,-1
 456.400390625 376.599609375 l 6,70,71
 456.400390625 360.400390625 456.400390625 360.400390625 467.200195312 349.599609375 c 132,-1,72
 478 338.799804688 478 338.799804688 494.200195312 338.799804688 c 6,73,-1
 683.200195312 338.799804688 l 5,74,-1
 683.200195312 149.799804688 l 6,75,76
 683.200195312 133.599609375 683.200195312 133.599609375 694 122.799804688 c 132,-1,77
 704.799804688 112 704.799804688 112 721 112 c 6,78,-1
 847 112 l 6,79,80
 863.200195312 112 863.200195312 112 874 122.799804688 c 132,-1,81
 884.799804688 133.599609375 884.799804688 133.599609375 884.799804688 149.799804688 c 6,82,-1
 884.799804688 338.799804688 l 5,83,-1
 1073.79980469 338.799804688 l 6,84,85
 1090 338.799804688 1090 338.799804688 1100.79980469 349.599609375 c 132,-1,86
 1111.59960938 360.400390625 1111.59960938 360.400390625 1111.59960938 376.599609375 c 6,87,-1
 1111.59960938 502.599609375 l 6,52,53
EndSplineSet
Validated: 1
EndChar

StartChar: uniEAB7
Encoding: 60087 60087 90
Width: 1568
Flags: W
LayerCount: 3
Fore
SplineSet
1451.79980469 1044.40039062 m 6,0,-1
 116.200195312 1044.40039062 l 6,1,2
 100 1044.40039062 100 1044.40039062 89.2001953125 1055.20019531 c 132,-1,3
 78.400390625 1066 78.400390625 1066 78.400390625 1082.20019531 c 6,4,-1
 78.400390625 1195.59960938 l 6,5,6
 78.400390625 1258.59960938 78.400390625 1258.59960938 122.5 1302.70019531 c 132,-1,7
 166.599609375 1346.79980469 166.599609375 1346.79980469 229.599609375 1346.79980469 c 6,8,-1
 380.799804688 1346.79980469 l 5,9,-1
 380.799804688 1510.59960938 l 6,10,11
 380.799804688 1526.79980469 380.799804688 1526.79980469 391.599609375 1537.59960938 c 132,-1,12
 402.400390625 1548.40039062 402.400390625 1548.40039062 418.599609375 1548.40039062 c 6,13,-1
 544.599609375 1548.40039062 l 6,14,15
 560.799804688 1548.40039062 560.799804688 1548.40039062 571.599609375 1537.59960938 c 132,-1,16
 582.400390625 1526.79980469 582.400390625 1526.79980469 582.400390625 1510.59960938 c 6,17,-1
 582.400390625 1346.79980469 l 5,18,-1
 985.599609375 1346.79980469 l 5,19,-1
 985.599609375 1510.59960938 l 6,20,21
 985.599609375 1526.79980469 985.599609375 1526.79980469 996.400390625 1537.59960938 c 132,-1,22
 1007.20019531 1548.40039062 1007.20019531 1548.40039062 1023.40039062 1548.40039062 c 6,23,-1
 1149.40039062 1548.40039062 l 6,24,25
 1165.59960938 1548.40039062 1165.59960938 1548.40039062 1176.40039062 1537.59960938 c 132,-1,26
 1187.20019531 1526.79980469 1187.20019531 1526.79980469 1187.20019531 1510.59960938 c 6,27,-1
 1187.20019531 1346.79980469 l 5,28,-1
 1338.40039062 1346.79980469 l 6,29,30
 1401.40039062 1346.79980469 1401.40039062 1346.79980469 1445.5 1302.70019531 c 132,-1,31
 1489.59960938 1258.59960938 1489.59960938 1258.59960938 1489.59960938 1195.59960938 c 6,32,-1
 1489.59960938 1082.20019531 l 6,33,34
 1489.59960938 1066 1489.59960938 1066 1478.79980469 1055.20019531 c 132,-1,35
 1468 1044.40039062 1468 1044.40039062 1451.79980469 1044.40039062 c 6,0,-1
116.200195312 943.599609375 m 6,36,-1
 1451.79980469 943.599609375 l 6,37,38
 1468 943.599609375 1468 943.599609375 1478.79980469 932.799804688 c 132,-1,39
 1489.59960938 922 1489.59960938 922 1489.59960938 905.799804688 c 6,40,-1
 1489.59960938 86.7998046875 l 6,41,42
 1489.59960938 23.7998046875 1489.59960938 23.7998046875 1445.5 -20.2998046875 c 132,-1,43
 1401.40039062 -64.400390625 1401.40039062 -64.400390625 1338.40039062 -64.400390625 c 6,44,-1
 229.599609375 -64.400390625 l 6,45,46
 166.599609375 -64.400390625 166.599609375 -64.400390625 122.5 -20.2998046875 c 132,-1,47
 78.400390625 23.7998046875 78.400390625 23.7998046875 78.400390625 86.7998046875 c 6,48,-1
 78.400390625 905.799804688 l 6,49,50
 78.400390625 922 78.400390625 922 89.2001953125 932.799804688 c 132,-1,51
 100 943.599609375 100 943.599609375 116.200195312 943.599609375 c 6,36,-1
EndSplineSet
Validated: 1
EndChar

StartChar: uniEAB8
Encoding: 60088 60088 91
Width: 1792
Flags: W
LayerCount: 3
Fore
SplineSet
896 1543.20019531 m 260,0,1
 685.400390625 1543.20019531 685.400390625 1543.20019531 505.400390625 1437.90039062 c 132,-1,2
 325.400390625 1332.59960938 325.400390625 1332.59960938 220.099609375 1152.59960938 c 132,-1,3
 114.799804688 972.599609375 114.799804688 972.599609375 114.799804688 762 c 132,-1,4
 114.799804688 551.400390625 114.799804688 551.400390625 220.099609375 371.400390625 c 132,-1,5
 325.400390625 191.400390625 325.400390625 191.400390625 505.400390625 86.099609375 c 132,-1,6
 685.400390625 -19.2001953125 685.400390625 -19.2001953125 896 -19.2001953125 c 132,-1,7
 1106.59960938 -19.2001953125 1106.59960938 -19.2001953125 1286.59960938 86.099609375 c 132,-1,8
 1466.59960938 191.400390625 1466.59960938 191.400390625 1571.90039062 371.400390625 c 132,-1,9
 1677.20019531 551.400390625 1677.20019531 551.400390625 1677.20019531 762 c 132,-1,10
 1677.20019531 972.599609375 1677.20019531 972.599609375 1571.90039062 1152.59960938 c 132,-1,11
 1466.59960938 1332.59960938 1466.59960938 1332.59960938 1286.59960938 1437.90039062 c 132,-1,12
 1106.59960938 1543.20019531 1106.59960938 1543.20019531 896 1543.20019531 c 260,0,1
1444.09960938 1165.20019531 m 5,13,-1
 1242.5 967.200195312 l 5,14,15
 1189.40039062 1055.40039062 1189.40039062 1055.40039062 1101.20019531 1108.5 c 5,16,-1
 1299.20019531 1310.09960938 l 5,17,18
 1381.09960938 1247.09960938 1381.09960938 1247.09960938 1444.09960938 1165.20019531 c 5,13,-1
896 459.599609375 m 260,19,20
 770 459.599609375 770 459.599609375 681.799804688 547.799804688 c 132,-1,21
 593.599609375 636 593.599609375 636 593.599609375 762 c 132,-1,22
 593.599609375 888 593.599609375 888 681.799804688 976.200195312 c 132,-1,23
 770 1064.40039062 770 1064.40039062 896 1064.40039062 c 132,-1,24
 1022 1064.40039062 1022 1064.40039062 1110.20019531 976.200195312 c 132,-1,25
 1198.40039062 888 1198.40039062 888 1198.40039062 762 c 132,-1,26
 1198.40039062 636 1198.40039062 636 1110.20019531 547.799804688 c 132,-1,27
 1022 459.599609375 1022 459.599609375 896 459.599609375 c 260,19,20
492.799804688 1310.09960938 m 5,28,-1
 690.799804688 1108.5 l 5,29,30
 602.599609375 1055.40039062 602.599609375 1055.40039062 549.5 967.200195312 c 5,31,-1
 347.900390625 1165.20019531 l 5,32,33
 410.900390625 1247.09960938 410.900390625 1247.09960938 492.799804688 1310.09960938 c 5,28,-1
347.900390625 358.799804688 m 5,34,-1
 549.5 556.799804688 l 5,35,36
 602.599609375 468.599609375 602.599609375 468.599609375 690.799804688 415.5 c 5,37,-1
 492.799804688 213.900390625 l 5,38,39
 410.900390625 276.900390625 410.900390625 276.900390625 347.900390625 358.799804688 c 5,34,-1
1299.20019531 213.900390625 m 5,40,-1
 1101.20019531 415.5 l 5,41,42
 1189.40039062 468.599609375 1189.40039062 468.599609375 1242.5 556.799804688 c 5,43,-1
 1444.09960938 358.799804688 l 5,44,45
 1381.09960938 276.900390625 1381.09960938 276.900390625 1299.20019531 213.900390625 c 5,40,-1
EndSplineSet
Validated: 9
EndChar

StartChar: uniEAB9
Encoding: 60089 60089 92
Width: 1792
Flags: W
LayerCount: 3
Fore
SplineSet
1677.20019531 762 m 4,0,1
 1677.20019531 551.400390625 1677.20019531 551.400390625 1571.90039062 371.400390625 c 132,-1,2
 1466.59960938 191.400390625 1466.59960938 191.400390625 1286.59960938 86.099609375 c 132,-1,3
 1106.59960938 -19.2001953125 1106.59960938 -19.2001953125 896 -19.2001953125 c 4,4,5
 761 -19.2001953125 761 -19.2001953125 635 26.7001953125 c 132,-1,6
 509 72.599609375 509 72.599609375 404.599609375 153.599609375 c 4,7,8
 379.400390625 175.200195312 379.400390625 175.200195312 377.599609375 208.5 c 132,-1,9
 375.799804688 241.799804688 375.799804688 241.799804688 401 267 c 6,10,-1
 436.099609375 302.099609375 l 6,11,12
 455 321 455 321 484.700195312 322.799804688 c 132,-1,13
 514.400390625 324.599609375 514.400390625 324.599609375 536.900390625 308.400390625 c 4,14,15
 694.400390625 182.400390625 694.400390625 182.400390625 896 182.400390625 c 4,16,17
 1053.5 182.400390625 1053.5 182.400390625 1187.15039062 259.799804688 c 132,-1,18
 1320.79980469 337.200195312 1320.79980469 337.200195312 1398.20019531 470.849609375 c 132,-1,19
 1475.59960938 604.5 1475.59960938 604.5 1475.59960938 762 c 132,-1,20
 1475.59960938 919.5 1475.59960938 919.5 1398.20019531 1053.15039062 c 132,-1,21
 1320.79980469 1186.79980469 1320.79980469 1186.79980469 1187.15039062 1264.20019531 c 132,-1,22
 1053.5 1341.59960938 1053.5 1341.59960938 896 1341.59960938 c 4,23,24
 782.599609375 1341.59960938 782.599609375 1341.59960938 680 1300.65039062 c 132,-1,25
 577.400390625 1259.70019531 577.400390625 1259.70019531 499.099609375 1184.09960938 c 5,26,-1
 660.200195312 1023 l 6,27,28
 681.799804688 1001.40039062 681.799804688 1001.40039062 669.200195312 969.900390625 c 132,-1,29
 656.599609375 938.400390625 656.599609375 938.400390625 622.400390625 938.400390625 c 6,30,-1
 165.200195312 938.400390625 l 6,31,32
 143.599609375 938.400390625 143.599609375 938.400390625 129.200195312 952.799804688 c 132,-1,33
 114.799804688 967.200195312 114.799804688 967.200195312 114.799804688 988.799804688 c 6,34,-1
 114.799804688 1446 l 6,35,36
 114.799804688 1480.20019531 114.799804688 1480.20019531 146.299804688 1492.79980469 c 132,-1,37
 177.799804688 1505.40039062 177.799804688 1505.40039062 199.400390625 1483.79980469 c 6,38,-1
 357.799804688 1325.40039062 l 5,39,40
 464.900390625 1429.79980469 464.900390625 1429.79980469 603.049804688 1486.5 c 132,-1,41
 741.200195312 1543.20019531 741.200195312 1543.20019531 896 1543.20019531 c 4,42,43
 1106.59960938 1543.20019531 1106.59960938 1543.20019531 1286.59960938 1437.90039062 c 132,-1,44
 1466.59960938 1332.59960938 1466.59960938 1332.59960938 1571.90039062 1154.40039062 c 132,-1,45
 1677.20019531 976.200195312 1677.20019531 976.200195312 1677.20019531 762 c 4,0,1
1106.59960938 516.299804688 m 6,46,-1
 1139 554.099609375 l 6,47,48
 1157.90039062 579.299804688 1157.90039062 579.299804688 1154.75 610.799804688 c 132,-1,49
 1151.59960938 642.299804688 1151.59960938 642.299804688 1126.40039062 661.200195312 c 6,50,-1
 996.799804688 762 l 5,51,-1
 996.799804688 1089.59960938 l 6,52,53
 996.799804688 1121.09960938 996.799804688 1121.09960938 974.75 1143.15039062 c 132,-1,54
 952.700195312 1165.20019531 952.700195312 1165.20019531 921.200195312 1165.20019531 c 6,55,-1
 870.799804688 1165.20019531 l 6,56,57
 839.299804688 1165.20019531 839.299804688 1165.20019531 817.25 1143.15039062 c 132,-1,58
 795.200195312 1121.09960938 795.200195312 1121.09960938 795.200195312 1089.59960938 c 6,59,-1
 795.200195312 661.200195312 l 5,60,-1
 1000.40039062 501 l 6,61,62
 1025.59960938 482.099609375 1025.59960938 482.099609375 1056.65039062 486.599609375 c 132,-1,63
 1087.70019531 491.099609375 1087.70019531 491.099609375 1106.59960938 516.299804688 c 6,46,-1
EndSplineSet
Validated: 41
EndChar

StartChar: uniEABA
Encoding: 60090 60090 93
Width: 2016
Flags: W
LayerCount: 3
Fore
SplineSet
2016 762 m 260,0,1
 2016 580 2016 580 1925 426 c 132,-1,2
 1834 272 1834 272 1680 181 c 132,-1,3
 1526 90 1526 90 1344 90 c 6,4,-1
 672 90 l 6,5,6
 490 90 490 90 336 181 c 132,-1,7
 182 272 182 272 91 426 c 132,-1,8
 0 580 0 580 0 762 c 132,-1,9
 0 944 0 944 91 1098 c 132,-1,10
 182 1252 182 1252 336 1343 c 132,-1,11
 490 1434 490 1434 672 1434 c 6,12,-1
 1344 1434 l 6,13,14
 1526 1434 1526 1434 1680 1343 c 132,-1,15
 1834 1252 1834 1252 1925 1098 c 132,-1,16
 2016 944 2016 944 2016 762 c 260,0,1
1344 1210 m 260,17,18
 1222 1210 1222 1210 1118.5 1150.5 c 132,-1,19
 1015 1091 1015 1091 955.5 987.5 c 132,-1,20
 896 884 896 884 896 762 c 132,-1,21
 896 640 896 640 955.5 536.5 c 132,-1,22
 1015 433 1015 433 1118.5 373.5 c 132,-1,23
 1222 314 1222 314 1344 314 c 132,-1,24
 1466 314 1466 314 1569.5 373.5 c 132,-1,25
 1673 433 1673 433 1732.5 536.5 c 132,-1,26
 1792 640 1792 640 1792 762 c 132,-1,27
 1792 884 1792 884 1732.5 987.5 c 132,-1,28
 1673 1091 1673 1091 1569.5 1150.5 c 132,-1,29
 1466 1210 1466 1210 1344 1210 c 260,17,18
EndSplineSet
Validated: 1
EndChar

StartChar: uniEABB
Encoding: 60091 60091 94
Width: 1792
Flags: W
LayerCount: 3
Fore
SplineSet
1702.40039062 1397.20019531 m 6,0,-1
 1702.40039062 490 l 6,1,2
 1702.40039062 427 1702.40039062 427 1658.29980469 382.900390625 c 132,-1,3
 1614.20019531 338.799804688 1614.20019531 338.799804688 1551.20019531 338.799804688 c 6,4,-1
 1400 338.799804688 l 5,5,-1
 1400 994 l 6,6,7
 1400 1098.40039062 1400 1098.40039062 1326.20019531 1172.20019531 c 132,-1,8
 1252.40039062 1246 1252.40039062 1246 1148 1246 c 6,9,-1
 492.799804688 1246 l 5,10,-1
 492.799804688 1397.20019531 l 6,11,12
 492.799804688 1460.20019531 492.799804688 1460.20019531 536.900390625 1504.29980469 c 132,-1,13
 581 1548.40039062 581 1548.40039062 644 1548.40039062 c 6,14,-1
 1551.20019531 1548.40039062 l 6,15,16
 1614.20019531 1548.40039062 1614.20019531 1548.40039062 1658.29980469 1504.29980469 c 132,-1,17
 1702.40039062 1460.20019531 1702.40039062 1460.20019531 1702.40039062 1397.20019531 c 6,0,-1
1299.20019531 994 m 6,18,-1
 1299.20019531 86.7998046875 l 6,19,20
 1299.20019531 23.7998046875 1299.20019531 23.7998046875 1255.09960938 -20.2998046875 c 132,-1,21
 1211 -64.400390625 1211 -64.400390625 1148 -64.400390625 c 6,22,-1
 240.799804688 -64.400390625 l 6,23,24
 177.799804688 -64.400390625 177.799804688 -64.400390625 133.700195312 -20.2998046875 c 132,-1,25
 89.599609375 23.7998046875 89.599609375 23.7998046875 89.599609375 86.7998046875 c 6,26,-1
 89.599609375 994 l 6,27,28
 89.599609375 1057 89.599609375 1057 133.700195312 1101.09960938 c 132,-1,29
 177.799804688 1145.20019531 177.799804688 1145.20019531 240.799804688 1145.20019531 c 6,30,-1
 1148 1145.20019531 l 6,31,32
 1211 1145.20019531 1211 1145.20019531 1255.09960938 1101.09960938 c 132,-1,33
 1299.20019531 1057 1299.20019531 1057 1299.20019531 994 c 6,18,-1
1085 905.799804688 m 6,34,35
 1085 922 1085 922 1074.20019531 932.799804688 c 132,-1,36
 1063.40039062 943.599609375 1063.40039062 943.599609375 1047.20019531 943.599609375 c 6,37,-1
 329 943.599609375 l 6,38,39
 312.799804688 943.599609375 312.799804688 943.599609375 302 932.799804688 c 132,-1,40
 291.200195312 922 291.200195312 922 291.200195312 905.799804688 c 6,41,-1
 291.200195312 742 l 5,42,-1
 1085 742 l 5,43,-1
 1085 905.799804688 l 6,34,35
EndSplineSet
Validated: 1
EndChar

StartChar: uniEB28
Encoding: 60200 60200 95
Width: 1792
Flags: MW
LayerCount: 3
Fore
SplineSet
1792 866 m 6,0,-1
 1792 674 l 6,1,2
 1792 660 1792 660 1783 651 c 132,-1,3
 1774 642 1774 642 1760 642 c 6,4,-1
 512 642 l 5,5,-1
 512 418 l 6,6,7
 512 397 512 397 493 389 c 132,-1,8
 474 381 474 381 458 394 c 5,9,-1
 74 744 l 6,10,11
 64 754 64 754 64 767 c 4,12,13
 64 781 64 781 74 791 c 6,14,-1
 458 1145 l 6,15,16
 474 1159 474 1159 493 1151 c 4,17,18
 512 1142 512 1142 512 1122 c 6,19,-1
 512 898 l 5,20,-1
 1760 898 l 6,21,22
 1774 898 1774 898 1783 889 c 132,-1,23
 1792 880 1792 880 1792 866 c 6,0,-1
EndSplineSet
Validated: 1
EndChar

StartChar: uniEB29
Encoding: 60201 60201 96
Width: 1792
Flags: W
LayerCount: 3
Fore
SplineSet
1728 773 m 4,0,1
 1728 759 1728 759 1718 749 c 6,2,-1
 1334 395 l 6,3,4
 1318 381 1318 381 1299 389 c 4,5,6
 1280 398 1280 398 1280 418 c 6,7,-1
 1280 642 l 5,8,-1
 32 642 l 6,9,10
 18 642 18 642 9 651 c 132,-1,11
 0 660 0 660 0 674 c 6,12,-1
 0 866 l 6,13,14
 0 880 0 880 9 889 c 132,-1,15
 18 898 18 898 32 898 c 6,16,-1
 1280 898 l 5,17,-1
 1280 1122 l 6,18,19
 1280 1143 1280 1143 1299 1151 c 132,-1,20
 1318 1159 1318 1159 1334 1146 c 5,21,-1
 1718 796 l 6,22,23
 1728 786 1728 786 1728 773 c 4,0,1
EndSplineSet
Validated: 1
EndChar

StartChar: uniEB2A
Encoding: 60202 60202 97
Width: 768
Flags: W
LayerCount: 3
Fore
SplineSet
765 1102 m 4,0,1
 756 1083 756 1083 736 1083 c 6,2,-1
 512 1083 l 5,3,-1
 512 -165 l 6,4,5
 512 -179 512 -179 503 -188 c 132,-1,6
 494 -197 494 -197 480 -197 c 6,7,-1
 288 -197 l 6,8,9
 274 -197 274 -197 265 -188 c 132,-1,10
 256 -179 256 -179 256 -165 c 6,11,-1
 256 1083 l 5,12,-1
 32 1083 l 6,13,14
 11 1083 11 1083 3 1102 c 132,-1,15
 -5 1121 -5 1121 8 1137 c 5,16,-1
 358 1521 l 6,17,18
 368 1531 368 1531 381 1531 c 4,19,20
 395 1531 395 1531 405 1521 c 6,21,-1
 760 1137 l 5,22,23
 773 1121 773 1121 765 1102 c 4,0,1
EndSplineSet
Validated: 1
EndChar

StartChar: uniEB2B
Encoding: 60203 60203 98
Width: 768
Flags: W
LayerCount: 3
Fore
SplineSet
765 237 m 128,-1,1
 773 218 773 218 760 202 c 1,2,-1
 410 -182 l 2,3,4
 400 -192 400 -192 387 -192 c 0,5,6
 373 -192 373 -192 363 -182 c 2,7,-1
 8 202 l 1,8,9
 -5 218 -5 218 3 237 c 0,10,11
 12 256 12 256 32 256 c 2,12,-1
 256 256 l 1,13,-1
 256 1504 l 2,14,15
 256 1518 256 1518 265 1527 c 128,-1,16
 274 1536 274 1536 288 1536 c 2,17,-1
 480 1536 l 2,18,19
 494 1536 494 1536 503 1527 c 128,-1,20
 512 1518 512 1518 512 1504 c 2,21,-1
 512 256 l 1,22,-1
 736 256 l 2,23,0
 757 256 757 256 765 237 c 128,-1,1
EndSplineSet
Validated: 1
EndChar

StartChar: uniEB2C
Encoding: 60204 60204 99
Width: 1536
Flags: W
LayerCount: 3
Fore
SplineSet
1278 701 m 6,0,-1
 1278 829 l 6,1,2
 1278 855 1278 855 1259 874 c 132,-1,3
 1240 893 1240 893 1214 893 c 6,4,-1
 712 893 l 5,5,-1
 901 1082 l 6,6,7
 920 1101 920 1101 920 1127 c 132,-1,8
 920 1153 920 1153 901 1172 c 6,9,-1
 810 1263 l 6,10,11
 792 1281 792 1281 765 1281 c 132,-1,12
 738 1281 738 1281 720 1263 c 6,13,-1
 358 901 l 5,14,-1
 267 810 l 6,15,16
 249 792 249 792 249 765 c 132,-1,17
 249 738 249 738 267 720 c 6,18,-1
 358 629 l 5,19,-1
 720 267 l 6,20,21
 738 249 738 249 765 249 c 132,-1,22
 792 249 792 249 810 267 c 6,23,-1
 901 358 l 6,24,25
 919 376 919 376 919 403 c 132,-1,26
 919 430 919 430 901 448 c 6,27,-1
 712 637 l 5,28,-1
 1214 637 l 6,29,30
 1240 637 1240 637 1259 656 c 132,-1,31
 1278 675 1278 675 1278 701 c 6,0,-1
1534 765 m 132,-1,33
 1534 556 1534 556 1431 379.5 c 132,-1,34
 1328 203 1328 203 1151.5 100 c 132,-1,35
 975 -3 975 -3 766 -3 c 132,-1,36
 557 -3 557 -3 380.5 100 c 132,-1,37
 204 203 204 203 101 379.5 c 132,-1,38
 -2 556 -2 556 -2 765 c 132,-1,39
 -2 974 -2 974 101 1150.5 c 132,-1,40
 204 1327 204 1327 380.5 1430 c 132,-1,41
 557 1533 557 1533 766 1533 c 132,-1,42
 975 1533 975 1533 1151.5 1430 c 132,-1,43
 1328 1327 1328 1327 1431 1150.5 c 132,-1,32
 1534 974 1534 974 1534 765 c 132,-1,33
EndSplineSet
Validated: 1
EndChar

StartChar: uniEB2D
Encoding: 60205 60205 100
Width: 1536
Flags: W
LayerCount: 3
Fore
SplineSet
1287 765 m 132,-1,1
 1287 792 1287 792 1269 810 c 6,2,-1
 1178 901 l 5,3,-1
 816 1263 l 6,4,5
 798 1281 798 1281 771 1281 c 132,-1,6
 744 1281 744 1281 726 1263 c 6,7,-1
 635 1172 l 6,8,9
 617 1154 617 1154 617 1127 c 132,-1,10
 617 1100 617 1100 635 1082 c 6,11,-1
 824 893 l 5,12,-1
 322 893 l 6,13,14
 296 893 296 893 277 874 c 132,-1,15
 258 855 258 855 258 829 c 6,16,-1
 258 701 l 6,17,18
 258 675 258 675 277 656 c 132,-1,19
 296 637 296 637 322 637 c 6,20,-1
 824 637 l 5,21,-1
 635 448 l 6,22,23
 616 429 616 429 616 403 c 132,-1,24
 616 377 616 377 635 358 c 6,25,-1
 726 267 l 6,26,27
 744 249 744 249 771 249 c 132,-1,28
 798 249 798 249 816 267 c 6,29,-1
 1178 629 l 5,30,-1
 1269 720 l 6,31,0
 1287 738 1287 738 1287 765 c 132,-1,1
1538 765 m 132,-1,33
 1538 556 1538 556 1435 379.5 c 132,-1,34
 1332 203 1332 203 1155.5 100 c 132,-1,35
 979 -3 979 -3 770 -3 c 132,-1,36
 561 -3 561 -3 384.5 100 c 132,-1,37
 208 203 208 203 105 379.5 c 132,-1,38
 2 556 2 556 2 765 c 132,-1,39
 2 974 2 974 105 1150.5 c 132,-1,40
 208 1327 208 1327 384.5 1430 c 132,-1,41
 561 1533 561 1533 770 1533 c 132,-1,42
 979 1533 979 1533 1155.5 1430 c 132,-1,43
 1332 1327 1332 1327 1435 1150.5 c 132,-1,32
 1538 974 1538 974 1538 765 c 132,-1,33
EndSplineSet
Validated: 1
EndChar

StartChar: uniEB2E
Encoding: 60206 60206 101
Width: 1536
Flags: W
LayerCount: 3
Fore
SplineSet
1292 769 m 132,-1,1
 1292 796 1292 796 1274 814 c 6,2,-1
 912 1176 l 5,3,-1
 821 1267 l 6,4,5
 803 1285 803 1285 776 1285 c 132,-1,6
 749 1285 749 1285 731 1267 c 6,7,-1
 640 1176 l 5,8,-1
 278 814 l 6,9,10
 260 796 260 796 260 769 c 132,-1,11
 260 742 260 742 278 724 c 6,12,-1
 369 633 l 6,13,14
 387 615 387 615 414 615 c 132,-1,15
 441 615 441 615 459 633 c 6,16,-1
 648 822 l 5,17,-1
 648 320 l 6,18,19
 648 294 648 294 667 275 c 132,-1,20
 686 256 686 256 712 256 c 6,21,-1
 840 256 l 6,22,23
 866 256 866 256 885 275 c 132,-1,24
 904 294 904 294 904 320 c 6,25,-1
 904 822 l 5,26,-1
 1093 633 l 6,27,28
 1112 614 1112 614 1138 614 c 132,-1,29
 1164 614 1164 614 1183 633 c 6,30,-1
 1274 724 l 6,31,0
 1292 742 1292 742 1292 769 c 132,-1,1
1544 768 m 132,-1,33
 1544 559 1544 559 1441 382.5 c 132,-1,34
 1338 206 1338 206 1161.5 103 c 132,-1,35
 985 0 985 0 776 0 c 132,-1,36
 567 0 567 0 390.5 103 c 132,-1,37
 214 206 214 206 111 382.5 c 132,-1,38
 8 559 8 559 8 768 c 132,-1,39
 8 977 8 977 111 1153.5 c 132,-1,40
 214 1330 214 1330 390.5 1433 c 132,-1,41
 567 1536 567 1536 776 1536 c 132,-1,42
 985 1536 985 1536 1161.5 1433 c 132,-1,43
 1338 1330 1338 1330 1441 1153.5 c 132,-1,32
 1544 977 1544 977 1544 768 c 132,-1,33
EndSplineSet
Validated: 1
EndChar

StartChar: uniEB2F
Encoding: 60207 60207 102
Width: 1536
Flags: W
LayerCount: 3
Fore
SplineSet
1288 767 m 132,-1,1
 1288 794 1288 794 1270 812 c 6,2,-1
 1179 903 l 6,3,4
 1161 921 1161 921 1134 921 c 132,-1,5
 1107 921 1107 921 1089 903 c 6,6,-1
 900 714 l 5,7,-1
 900 1216 l 6,8,9
 900 1242 900 1242 881 1261 c 132,-1,10
 862 1280 862 1280 836 1280 c 6,11,-1
 708 1280 l 6,12,13
 682 1280 682 1280 663 1261 c 132,-1,14
 644 1242 644 1242 644 1216 c 6,15,-1
 644 714 l 5,16,-1
 455 903 l 6,17,18
 436 922 436 922 410 922 c 132,-1,19
 384 922 384 922 365 903 c 6,20,-1
 274 812 l 6,21,22
 256 794 256 794 256 767 c 132,-1,23
 256 740 256 740 274 722 c 6,24,-1
 636 360 l 5,25,-1
 727 269 l 6,26,27
 745 251 745 251 772 251 c 132,-1,28
 799 251 799 251 817 269 c 6,29,-1
 908 360 l 5,30,-1
 1270 722 l 6,31,0
 1288 740 1288 740 1288 767 c 132,-1,1
1540 768 m 132,-1,33
 1540 559 1540 559 1437 382.5 c 132,-1,34
 1334 206 1334 206 1157.5 103 c 132,-1,35
 981 0 981 0 772 0 c 132,-1,36
 563 0 563 0 386.5 103 c 132,-1,37
 210 206 210 206 107 382.5 c 132,-1,38
 4 559 4 559 4 768 c 132,-1,39
 4 977 4 977 107 1153.5 c 132,-1,40
 210 1330 210 1330 386.5 1433 c 132,-1,41
 563 1536 563 1536 772 1536 c 132,-1,42
 981 1536 981 1536 1157.5 1433 c 132,-1,43
 1334 1330 1334 1330 1437 1153.5 c 132,-1,32
 1540 977 1540 977 1540 768 c 132,-1,33
EndSplineSet
Validated: 1
EndChar

StartChar: uniEB30
Encoding: 60208 60208 103
Width: 640
Flags: W
LayerCount: 3
Fore
SplineSet
627 1182 m 132,-1,1
 627 1169 627 1169 617 1159 c 6,2,-1
 224 766 l 5,3,-1
 617 373 l 6,4,5
 627 363 627 363 627 350 c 132,-1,6
 627 337 627 337 617 327 c 6,7,-1
 567 277 l 6,8,9
 557 267 557 267 544 267 c 132,-1,10
 531 267 531 267 521 277 c 6,11,-1
 55 743 l 6,12,13
 45 753 45 753 45 766 c 132,-1,14
 45 779 45 779 55 789 c 6,15,-1
 521 1255 l 6,16,17
 531 1265 531 1265 544 1265 c 132,-1,18
 557 1265 557 1265 567 1255 c 6,19,-1
 617 1205 l 6,20,0
 627 1195 627 1195 627 1182 c 132,-1,1
EndSplineSet
Validated: 1
EndChar

StartChar: uniEB31
Encoding: 60209 60209 104
Width: 640
Flags: W
LayerCount: 3
Fore
SplineSet
595 766 m 132,-1,1
 595 753 595 753 585 743 c 6,2,-1
 119 277 l 6,3,4
 109 267 109 267 96 267 c 132,-1,5
 83 267 83 267 73 277 c 6,6,-1
 23 327 l 6,7,8
 13 337 13 337 13 350 c 132,-1,9
 13 363 13 363 23 373 c 6,10,-1
 416 766 l 5,11,-1
 23 1159 l 6,12,13
 13 1169 13 1169 13 1182 c 132,-1,14
 13 1195 13 1195 23 1205 c 6,15,-1
 73 1255 l 6,16,17
 83 1265 83 1265 96 1265 c 132,-1,18
 109 1265 109 1265 119 1255 c 6,19,-1
 585 789 l 6,20,0
 595 779 595 779 595 766 c 132,-1,1
EndSplineSet
Validated: 1
EndChar

StartChar: uniEB32
Encoding: 60210 60210 105
Width: 1152
Flags: W
LayerCount: 3
Fore
SplineSet
1075 562 m 132,-1,1
 1075 549 1075 549 1065 539 c 6,2,-1
 1015 489 l 6,3,4
 1005 479 1005 479 992 479 c 132,-1,5
 979 479 979 479 969 489 c 6,6,-1
 576 882 l 5,7,-1
 183 489 l 6,8,9
 173 479 173 479 160 479 c 132,-1,10
 147 479 147 479 137 489 c 6,11,-1
 87 539 l 6,12,13
 77 549 77 549 77 562 c 132,-1,14
 77 575 77 575 87 585 c 6,15,-1
 553 1051 l 6,16,17
 563 1061 563 1061 576 1061 c 132,-1,18
 589 1061 589 1061 599 1051 c 6,19,-1
 1065 585 l 6,20,0
 1075 575 1075 575 1075 562 c 132,-1,1
EndSplineSet
Validated: 1
EndChar

StartChar: uniEB33
Encoding: 60211 60211 106
Width: 1152
Flags: W
LayerCount: 3
Fore
SplineSet
1075 940 m 128,-1,1
 1075 927 1075 927 1065 917 c 2,2,-1
 599 451 l 2,3,4
 589 441 589 441 576 441 c 128,-1,5
 563 441 563 441 553 451 c 2,6,-1
 87 917 l 2,7,8
 77 927 77 927 77 940 c 128,-1,9
 77 953 77 953 87 963 c 2,10,-1
 137 1013 l 2,11,12
 147 1023 147 1023 160 1023 c 128,-1,13
 173 1023 173 1023 183 1013 c 2,14,-1
 576 620 l 1,15,-1
 969 1013 l 2,16,17
 979 1023 979 1023 992 1023 c 128,-1,18
 1005 1023 1005 1023 1015 1013 c 2,19,-1
 1065 963 l 2,20,0
 1075 953 1075 953 1075 940 c 128,-1,1
EndSplineSet
Validated: 1
EndChar

StartChar: uniEB34
Encoding: 60212 60212 107
Width: 1536
Flags: W
LayerCount: 3
Fore
SplineSet
909 271 m 6,0,-1
 1011 373 l 6,1,2
 1030 392 1030 392 1030 418 c 132,-1,3
 1030 444 1030 444 1011 463 c 6,4,-1
 704 770 l 5,5,-1
 1011 1077 l 6,6,7
 1030 1096 1030 1096 1030 1122 c 132,-1,8
 1030 1148 1030 1148 1011 1167 c 6,9,-1
 909 1269 l 6,10,11
 890 1288 890 1288 864 1288 c 132,-1,12
 838 1288 838 1288 819 1269 c 6,13,-1
 365 815 l 6,14,15
 346 796 346 796 346 770 c 132,-1,16
 346 744 346 744 365 725 c 6,17,-1
 819 271 l 6,18,19
 838 252 838 252 864 252 c 132,-1,20
 890 252 890 252 909 271 c 6,0,-1
1536 770 m 132,-1,22
 1536 561 1536 561 1433 384.5 c 132,-1,23
 1330 208 1330 208 1153.5 105 c 132,-1,24
 977 2 977 2 768 2 c 132,-1,25
 559 2 559 2 382.5 105 c 132,-1,26
 206 208 206 208 103 384.5 c 132,-1,27
 0 561 0 561 0 770 c 132,-1,28
 0 979 0 979 103 1155.5 c 132,-1,29
 206 1332 206 1332 382.5 1435 c 132,-1,30
 559 1538 559 1538 768 1538 c 132,-1,31
 977 1538 977 1538 1153.5 1435 c 132,-1,32
 1330 1332 1330 1332 1433 1155.5 c 132,-1,21
 1536 979 1536 979 1536 770 c 132,-1,22
EndSplineSet
Validated: 1
EndChar

StartChar: uniEB35
Encoding: 60213 60213 108
Width: 1536
Flags: W
LayerCount: 3
Fore
SplineSet
717 271 m 6,0,-1
 1171 725 l 6,1,2
 1190 744 1190 744 1190 770 c 132,-1,3
 1190 796 1190 796 1171 815 c 6,4,-1
 717 1269 l 6,5,6
 698 1288 698 1288 672 1288 c 132,-1,7
 646 1288 646 1288 627 1269 c 6,8,-1
 525 1167 l 6,9,10
 506 1148 506 1148 506 1122 c 132,-1,11
 506 1096 506 1096 525 1077 c 6,12,-1
 832 770 l 5,13,-1
 525 463 l 6,14,15
 506 444 506 444 506 418 c 132,-1,16
 506 392 506 392 525 373 c 6,17,-1
 627 271 l 6,18,19
 646 252 646 252 672 252 c 132,-1,20
 698 252 698 252 717 271 c 6,0,-1
1536 770 m 132,-1,22
 1536 561 1536 561 1433 384.5 c 132,-1,23
 1330 208 1330 208 1153.5 105 c 132,-1,24
 977 2 977 2 768 2 c 132,-1,25
 559 2 559 2 382.5 105 c 132,-1,26
 206 208 206 208 103 384.5 c 132,-1,27
 0 561 0 561 0 770 c 132,-1,28
 0 979 0 979 103 1155.5 c 132,-1,29
 206 1332 206 1332 382.5 1435 c 132,-1,30
 559 1538 559 1538 768 1538 c 132,-1,31
 977 1538 977 1538 1153.5 1435 c 132,-1,32
 1330 1332 1330 1332 1433 1155.5 c 132,-1,21
 1536 979 1536 979 1536 770 c 132,-1,22
EndSplineSet
Validated: 1
EndChar

StartChar: uniEB36
Encoding: 60214 60214 109
Width: 1536
Flags: W
LayerCount: 3
Fore
SplineSet
1165 527 m 6,0,-1
 1267 629 l 6,1,2
 1286 648 1286 648 1286 674 c 132,-1,3
 1286 700 1286 700 1267 719 c 6,4,-1
 813 1173 l 6,5,6
 794 1192 794 1192 768 1192 c 132,-1,7
 742 1192 742 1192 723 1173 c 6,8,-1
 269 719 l 6,9,10
 250 700 250 700 250 674 c 132,-1,11
 250 648 250 648 269 629 c 6,12,-1
 371 527 l 6,13,14
 390 508 390 508 416 508 c 132,-1,15
 442 508 442 508 461 527 c 6,16,-1
 768 834 l 5,17,-1
 1075 527 l 6,18,19
 1094 508 1094 508 1120 508 c 132,-1,20
 1146 508 1146 508 1165 527 c 6,0,-1
1536 770 m 132,-1,22
 1536 561 1536 561 1433 384.5 c 132,-1,23
 1330 208 1330 208 1153.5 105 c 132,-1,24
 977 2 977 2 768 2 c 132,-1,25
 559 2 559 2 382.5 105 c 132,-1,26
 206 208 206 208 103 384.5 c 132,-1,27
 0 561 0 561 0 770 c 132,-1,28
 0 979 0 979 103 1155.5 c 132,-1,29
 206 1332 206 1332 382.5 1435 c 132,-1,30
 559 1538 559 1538 768 1538 c 132,-1,31
 977 1538 977 1538 1153.5 1435 c 132,-1,32
 1330 1332 1330 1332 1433 1155.5 c 132,-1,21
 1536 979 1536 979 1536 770 c 132,-1,22
EndSplineSet
Validated: 1
EndChar

StartChar: uniEB37
Encoding: 60215 60215 110
Width: 1536
Flags: W
LayerCount: 3
Fore
SplineSet
813 367 m 6,0,-1
 1267 821 l 6,1,2
 1286 840 1286 840 1286 866 c 132,-1,3
 1286 892 1286 892 1267 911 c 6,4,-1
 1165 1013 l 6,5,6
 1146 1032 1146 1032 1120 1032 c 132,-1,7
 1094 1032 1094 1032 1075 1013 c 6,8,-1
 768 706 l 5,9,-1
 461 1013 l 6,10,11
 442 1032 442 1032 416 1032 c 132,-1,12
 390 1032 390 1032 371 1013 c 6,13,-1
 269 911 l 6,14,15
 250 892 250 892 250 866 c 132,-1,16
 250 840 250 840 269 821 c 6,17,-1
 723 367 l 6,18,19
 742 348 742 348 768 348 c 132,-1,20
 794 348 794 348 813 367 c 6,0,-1
1536 770 m 132,-1,22
 1536 561 1536 561 1433 384.5 c 132,-1,23
 1330 208 1330 208 1153.5 105 c 132,-1,24
 977 2 977 2 768 2 c 132,-1,25
 559 2 559 2 382.5 105 c 132,-1,26
 206 208 206 208 103 384.5 c 132,-1,27
 0 561 0 561 0 770 c 132,-1,28
 0 979 0 979 103 1155.5 c 132,-1,29
 206 1332 206 1332 382.5 1435 c 132,-1,30
 559 1538 559 1538 768 1538 c 132,-1,31
 977 1538 977 1538 1153.5 1435 c 132,-1,32
 1330 1332 1330 1332 1433 1155.5 c 132,-1,21
 1536 979 1536 979 1536 770 c 132,-1,22
EndSplineSet
Validated: 1
EndChar

StartChar: uniEB38
Encoding: 60216 60216 111
Width: 640
Flags: W
LayerCount: 3
Fore
SplineSet
640 1208 m 6,0,-1
 640 312 l 6,1,2
 640 286 640 286 621 267 c 132,-1,3
 602 248 602 248 576 248 c 132,-1,4
 550 248 550 248 531 267 c 6,5,-1
 83 715 l 6,6,7
 64 734 64 734 64 760 c 132,-1,8
 64 786 64 786 83 805 c 6,9,-1
 531 1253 l 6,10,11
 550 1272 550 1272 576 1272 c 132,-1,12
 602 1272 602 1272 621 1253 c 132,-1,13
 640 1234 640 1234 640 1208 c 6,0,-1
EndSplineSet
Validated: 1
EndChar

StartChar: uniEB39
Encoding: 60217 60217 112
Width: 640
Flags: W
LayerCount: 3
Fore
SplineSet
576 770 m 132,-1,1
 576 744 576 744 557 725 c 6,2,-1
 109 277 l 6,3,4
 90 258 90 258 64 258 c 132,-1,5
 38 258 38 258 19 277 c 132,-1,6
 0 296 0 296 0 322 c 6,7,-1
 0 1218 l 6,8,9
 0 1244 0 1244 19 1263 c 132,-1,10
 38 1282 38 1282 64 1282 c 132,-1,11
 90 1282 90 1282 109 1263 c 6,12,-1
 557 815 l 6,13,0
 576 796 576 796 576 770 c 132,-1,1
EndSplineSet
Validated: 1
EndChar

StartChar: uniEB3A
Encoding: 60218 60218 113
Width: 1024
Flags: W
LayerCount: 3
Fore
SplineSet
1024 570 m 132,-1,1
 1024 544 1024 544 1005 525 c 132,-1,2
 986 506 986 506 960 506 c 6,3,-1
 64 506 l 6,4,5
 38 506 38 506 19 525 c 132,-1,6
 0 544 0 544 0 570 c 132,-1,7
 0 596 0 596 19 615 c 6,8,-1
 467 1063 l 6,9,10
 486 1082 486 1082 512 1082 c 132,-1,11
 538 1082 538 1082 557 1063 c 6,12,-1
 1005 615 l 6,13,0
 1024 596 1024 596 1024 570 c 132,-1,1
EndSplineSet
Validated: 1
EndChar

StartChar: uniEB3B
Encoding: 60219 60219 114
Width: 1024
Flags: W
LayerCount: 3
Fore
SplineSet
1024 942 m 132,-1,1
 1024 916 1024 916 1005 897 c 6,2,-1
 557 449 l 6,3,4
 538 430 538 430 512 430 c 132,-1,5
 486 430 486 430 467 449 c 6,6,-1
 19 897 l 6,7,8
 0 916 0 916 0 942 c 132,-1,9
 0 968 0 968 19 987 c 132,-1,10
 38 1006 38 1006 64 1006 c 6,11,-1
 960 1006 l 6,12,13
 986 1006 986 1006 1005 987 c 132,-1,0
 1024 968 1024 968 1024 942 c 132,-1,1
EndSplineSet
Validated: 1
EndChar

